<?xml version="1.0" encoding="UTF-8"?>
<svg id="Camada_2" data-name="Camada 2" xmlns="http://www.w3.org/2000/svg" viewBox="0 0 377.71 93.9">
  <g id="Graphic_Elements" data-name="Graphic Elements">
    <path d="M375.84,55.78c-1.68-1.92-3.69-3.48-5.92-4.68-12.17-6.54-25.08-11.25-38.33-15-14.83-4.19-29.93-7.25-45.04-10.23-5.51-1.09-11.04-2.12-16.55-3.18-1.1-.15-2.21-.3-3.31-.45h0c-.31-.13-.62-.25-.96-.39-.22-.09-.45-.18-.7-.29,1.14-.15,2.21.02,3.26.13.59.06,1.17.1,1.76.04.11.08.22.17.34.25l.13-.02.12.05c1.03-.11,2.04-.05,3.04.17.16.02.32.06.48.11,5.71.47,11.4,1.19,17.08,1.9,9.64,1.2,19.24,2.72,28.79,4.49,7.58,1.4,15.11,3,22.49,5.26,3.16.97,6.26,2.12,9.36,3.25,1.52.55,2.97,1.21,3.85-.88.05-.11.23-.17.35-.25,1.8-1.2,1.79-2.96-.16-3.88-3.51-1.67-7.04-3.31-10.64-4.75-7.41-2.94-15.3-4.07-23.06-5.62-12.82-2.56-25.72-4.73-38.66-6.57-4.76-.67-9.5-1.45-14.31-1.73-.28-.24-.63-.22-.97-.25-3.48-.33-6.96-.7-10.44-1-13.65-1.19-27.32-2.26-41.03-2.5-4.96-.09-9.93-.32-14.88-.05-10.14.56-20.07-1.2-30.05-2.35-12.89-1.49-25.8-2.83-38.74-3.8-18.57-1.4-37.14-2.71-55.76-3.18-13.71-.35-27.42-.74-41.12.13-5.49.35-10.95.86-16.31,2.16-.38.09-.9-.05-1.1.56.4.1.76.22,1.14.29,8.25,1.67,16.58,2.93,24.96,3.61,11.04.91,22.1,1.59,33.16,2.29,9.99.63,19.99,1.14,29.96,2.07,4.52.09,8.99.73,13.49,1.02.77.05,1.54.15,2.48.24-.17.16-.34.26-.52.33-.71.29-1.49.07-2.09.42-3.54.38-7.09.76-10.63,1.13-.61.06-1.22.3-1.85.09-1.3.19-2.59.4-3.89.57-18.46,2.47-36.82,5.44-54.81,10.4-11.42,3.15-22.5,7.15-32.91,12.9-5.69,3.15-10.82,6.95-14.38,12.5-4.62,7.21-3.8,11.13,2.21,15.88,5.37,4.25,11.46,7.34,17.77,9.93,8.7,3.57,17.77,5.97,26.94,7.96,4.08.89,8.16,1.75,12.31,2.25.85.4,1.77.46,2.67.59,16.89,2.43,33.9,3.74,50.92,4.83,29.92,1.92,59.87,1.46,89.81.64,18.76-.51,37.47-1.72,56.17-3.33,19.31-1.66,38.63-3.24,57.84-5.94,13.62-1.92,27.24-3.87,40.4-8.09,2.8-.9,5.68-1.65,8.2-3.27-.25.12-.5.14-.75.11.25-.04.5-.08.75-.11,3.53-1.68,6.25-4.28,8.25-7.57,1.92-3.16,1.58-6.7-.61-9.21ZM289.49,35.39c-.18.06-.36,0-.5-.12.17.04.33.08.5.12ZM204.65,21.21c-.17,0-.31-.01-.42-.07.14.02.28.05.42.07ZM51.26,76.26c-9.59-1.64-19.07-3.81-28.21-7.22-3.1-1.16-5.78-2.88-7.77-5.66-1.42-1.98-1.43-3.93-.62-6.06,1.29-3.38,3.92-5.46,6.89-7.25,5.64-3.4,11.59-6.16,17.66-8.65.49-.2.96-.46,1.44-.69.23-.04.48-.05.7-.13,8.67-3.38,17.56-6.04,26.61-8.12,16.92-3.89,34.09-6.33,51.3-8.49,22.51-2.82,45.14-3.63,67.78-4.2,6.68-.17,13.24,1.25,19.83,2.15,13.91,1.9,27.78,4.14,41.62,6.5,14.75,2.52,29.5,5.07,44.19,7.95,3.14.62,6.3,1.15,9.44,1.73,6.49,1.43,13,2.82,19.48,4.32,11.38,2.62,22.62,5.73,33.53,9.91,1.83.7,3.61,1.57,5.37,2.44,1.32.65,2.41,1.64,3.3,2.82,1.58,2.09,1.04,4.44-1.33,5.53-4.44,2.06-9.13,3.34-13.89,4.36-19.66,4.2-39.57,6.72-59.57,8.52-13.99,1.26-28,2.23-42,3.38-24.53,2.02-49.12,2.62-73.72,3.19-21.79.5-43.57.13-65.33-.94-18.98-.93-37.95-2.2-56.72-5.4Z"/>
  </g>
</svg>