<?xml version="1.0" encoding="UTF-8"?>
<svg id="Camada_2" data-name="Camada 2" xmlns="http://www.w3.org/2000/svg" viewBox="0 0 290.88 131.35">
  <g id="Graphic_Elements" data-name="Graphic Elements">
    <g>
      <polygon points="243.15 112.22 243.15 112.22 243.15 112.22 243.15 112.22"/>
      <polygon points="218.4 114.54 218.4 114.54 218.4 114.54 218.4 114.54"/>
      <path d="M290.63,55.38c-.14-.27-.05-.46-.05-.69-.02-.64.46-1.2.26-1.85-.17-.18-.08-.42-.14-.63.08-.8-.38-1.54-.25-2.35v-.38c0-.13,0-.26,0-.39-.32-.48-.37-1.02-.4-1.58-.02-.34.04-.72-.26-1-.13-.05-.09-.18-.13-.27-.15-.86-.32-1.72-1.02-2.34-.03-.26.14-.56-.11-.79h0c-.02-.14,0-.28-.14-.37-.26-.37-.36-.9-.99-.9.13-.18.37-.16.33-.39-.06-.4-.14-.8-.53-1.03-.54-.33-.44-1.05-.87-1.45-.61-1.2-1.36-2.29-2.36-3.2h0c-.16-.22-.32-.44-.49-.66-.61-.82-1.4-1.48-2.09-2.23-.24-.14-.26-.53-.62-.53-.01-.2-.18-.28-.3-.39-1.46-1.35-2.95-2.65-4.52-3.88-.59-.61-1.39-.93-2.07-1.42-.11-.31-.38-.43-.66-.51-.26-.28-.54-.5-.89-.7-.39-.23-.86-.36-1.16-.74-.46-.25-.91-.52-1.29-.88-.37-.35-.8-.61-1.33-.65-.14-.37-.45-.52-.8-.64-.33-.12-.49-.51-.86-.56-.05-.04-.1-.08-.14-.12-.42-.08-.75-.34-1.07-.6-.11-.08-.2-.19-.36-.12-.4-.02-.54-.49-.93-.54-.53-.45-1.25-.52-1.79-.95-.55-.45-1.27-.58-1.84-.99-.53-.29-1.11-.47-1.68-.65-.11-.16-.25-.27-.41-.35,0,0,0-.02,0-.03,0,0-.01.01-.02.02-.15-.07-.31-.12-.47-.18-.18-.16-.41-.21-.64-.27-.47-.13-.93-.29-1.3-.64-.14-.14-.33-.13-.51-.14-.13-.19-.33-.22-.54-.24-.16-.1-.32-.19-.49-.29-.57-.28-1.12-.61-1.72-.82-.89-.31-1.72-.83-2.71-.85-.04-.05-.09-.09-.13-.14-.09-.23-.39-.06-.5-.26-.4-.21-.79-.42-1.19-.62-.43-.14-.85-.27-1.28-.41-.09-.12-.2-.23-.36-.24-1.14-.06-1.98-.87-3.01-1.19-.41-.13-.83-.22-1.17-.5-.42-.2-.98-.05-1.32-.49-.22,0-.41-.34-.65-.05h0c-.27-.15-.41-.48-.76-.49-.29,0-.54-.1-.77-.26-.61-.21-1.22-.41-1.83-.62-1.07-.36-2.14-.71-3.22-1.07-.45-.09-.92-.59-1.28.1-.24-.09-.01-.42-.29-.45-.08-.05-.17-.11-.25-.17-.33-.19-.75-.44-1.05-.28-.33.18-.44.02-.62-.13-.23-.37-.63-.12-.92-.24-.41-.22-.92-.07-1.3-.39-.08-.01-.15-.03-.23-.04-.1-.15-.24-.12-.39-.11-.26-.15-.54-.13-.83-.09-.27-.2-.56-.25-.89-.15-.57-.08-1.08-.44-1.68-.39-.48-.32-1.07.04-1.56-.24-.52,0-.96-.27-1.44-.41-.08-.02-.17,0-.25.01-.43.09-.86-.31-1.22-.14-.36.17-.55,0-.81-.1-.07.2-.17.51-.4.34-.4-.28-.72-.06-1.07.02-.76.17-1.16-.41-1.66-.78-.25.13-.55.17-.77.04-.4-.23-.85-.2-1.27-.33-.35-.15-.71-.14-1.08-.11-.25-.03-.51-.07-.76-.1-.31.03-.62-.04-.91.11-.05-.04-.09-.08-.14-.12-.48-.08-.95-.16-1.43-.24-.2-.06-.47-.13-.5.15-.04.5-.34.18-.53.21.06.14.04.22-.02.28.02-.09.03-.19.02-.28h0c-.1-.26-.39-.09-.55-.26-.41-.45-.9-.36-1.39-.14-.51-.15-1.01-.37-1.55-.12-.16.06-.31.36-.46-.02-.05-.13-.18-.16-.32-.14-.18-.05-.35-.1-.53,0-.64-.04-1.28-.24-1.94-.1-.4-.09-.81-.09-1.22-.1-.72-.02-1.45.01-2.16-.05-.77-.06-1.52-.19-2.3-.14-.74-.04-1.48-.09-2.22-.13-.18-.07-.35-.01-.52.02-.47-.15-.94-.21-1.43-.14-.09,0-.17,0-.26,0-.22,0-.43,0-.65,0-.08,0-.16,0-.25-.01-.08-.04-.19-.07-.27-.06-.56-.11-1.12-.08-1.69-.06-.95-.04-1.9-.24-2.86-.12-2.2-.08-4.41-.15-6.61-.23-2.45-.08-4.92-.03-7.35-.29-2.72-.29-5.43-.69-8.18-.79-2.5-.1-4.99-.4-7.49-.33-2.87.08-5.72-.22-8.58-.34-3.16-.14-6.32-.24-9.49-.32-1.61-.04-3.22,0-4.83,0-1.63,0-3.27.01-4.9.06-2.71.09-5.42.32-8.13.46-.43.02-.79.4-1.14.31-.92-.24-1.79.03-2.68.1-1.58.13-3.16.25-4.73.45-1.04.13-2.11.09-3.12.4-.56.16-1.15-.2-1.71.1-2.43.26-4.86.39-7.3.44-2.49.05-4.98.15-7.46.22-.82.02-1.65-.04-2.46.14-1.23-.03-2.44.17-3.65.24-.94.06-1.89.18-2.83.27-.38.17-.81-.23-1.18.09-.82-.08-1.62.15-2.44.15-.56.08-1.11.16-1.68.18-.43.02-.9-.03-1.3.22-.92.04-1.85-.01-2.72.38-.43.06-.87-.3-1.3,0-.05.04-.09.07-.14.11-.32.15-.73-.23-1.02.16-.05.04-.09.08-.14.13-.73-.15-1.46-.07-2.18.07-.06.01-.12.02-.18.04-.24.03-.46.1-.65.25-.4-.19-.79-.15-1.19-.01-.03.01-.06.02-.09.03-.27.04-.52.12-.8.16-.52.07-1.06.08-1.54.35-.57.1-1.14.31-1.7.29-1.09-.03-2.08.36-3.1.62-.04,0-.07,0-.1.03-.39.08-.8-.05-1.18.12-.18.02-.38-.06-.53.11-1,.21-2,.42-2.99.63-.6.33-1.28.45-1.93.66-1.12-.1-2.02.5-2.97.93-.92.24-1.85.42-2.73.77-.14,0-.27.02-.37.13-.35.13-.7.26-1.05.39-.22.08-.44.16-.66.24-.29.18-.61.29-.93.38-.03,0-.06.02-.1.03-.68.28-1.36.56-2.04.85-.25.11-.54.17-.69.44-.96.14-1.66.91-2.59,1.13-.08.02-.16.04-.25.05-.5.41-1.1.63-1.66.93-.61.07-1.12.36-1.57.76-.31.12-.61.24-.92.37-1.19.36-2.05,1.34-3.24,1.7-.47.26-.94.52-1.41.78-.78.23-1.27.97-2.07,1.17-.09.08-.19.15-.28.23-.5.42-1.09.66-1.67.93-.04-.01-.08,0-.11.04-.82.28-1.45.84-2.1,1.38-.3.12-.56.29-.78.52-.41.03-.73.25-1.03.52-.18.06-.27.24-.47.3-.88.3-1.5,1.03-2.23,1.56-.53.39-1.04.84-1.59,1.24-.08.05-.15.11-.23.16-.8.35-1.26,1.06-1.81,1.68-.3.43-.88.48-1.18.9-.27.01-.33.19-.37.42-.06.34-.34.62-.59.7-.53.17-.77.6-1.12.94-.04.04-.09.08-.13.12-.42.32-.69.78-1.03,1.17-.13.04-.12.15-.14.25-.28.08-.06.43-.18.46-.56.12-.6.69-.91,1-.03.03-.05.06-.08.08-.29.45-.58.89-.87,1.34-.02.03-.05.07-.07.1-.18.27-.37.54-.35.9h0c-.4.19-.49.62-.75.93-.44.48-.43,1.17-.8,1.68-.23.11-.16.43-.37.55-.32.36-.17.92-.53,1.27-.1.04-.15.12-.15.22-.39.91-.79,1.82-1.18,2.73-.17.2-.44.37-.25.7-.12.2-.37.34-.34.63-.03.03-.04.06-.04.1,0,.07,0,.14-.02.2-.08.38-.45.69-.35,1.12-.09.21-.18.43-.27.64-.42.77-.38,1.68-.79,2.45h0c-.02.05-.03.11-.05.16-.23.77-.47,1.55-.7,2.32-.06.25-.24.48-.14.77-.05.35-.1.69-.15,1.04-.12.15-.29.27-.27.5-.15.2-.12.44-.12.66-.15.16-.1.33-.04.52.12.34.02.64-.25.89-.19.21-.1.48-.12.72-.04.52-.03,1.04-.21,1.53-.03.14-.05.27-.08.41-.11.58-.2,1.17-.2,1.77-.08.56-.17,1.12-.25,1.69.19.5.02.95-.17,1.4-.05.54-.27,1.1.16,1.59-.03.26-.07.52-.1.78-.08.93.11,1.83.32,2.73.1.36.11.75.42,1.03-.22.27-.13.52.06.76.09.12.24.2.24.37.03,1.03.94,1.73,1.01,2.75.08.21.18.41.38.53,0,.54.35.9.65,1.3.2.37.38.76.6,1.12,1.15,1.87,2.3,3.73,3.78,5.37.27.2.32.54.53.78.39.47.78.94,1.17,1.41.5.46.71,1.17,1.3,1.56h0c.16.21.22.43.26.69.09.56-.04,1.14.08,1.7.01.07.03.13.05.2.15.77.02,1.59.39,2.33.04.3.09.61.13.91h0c.14.42.03.92.37,1.29-.04.09-.04.18.02.27.31.33.44.73.4,1.17.05.12.09.25.14.37.27.24.08.67.38.9h0c.47.2.3.72.52,1.04.1.46.33.84.63,1.2,0,.04,0,.06.04.09.39.23.46.67.65,1.03.18.22.25.51.49.68.33.48.58,1.03,1.05,1.41.04.05.07.1.11.15.19.53.9.59,1.05,1.15,1.08,1.27,2.42,2.24,3.72,3.27.05.15.18.14.29.19.32.13.76.27.81.6.09.5.37.77.74,1.01.41.4.98.47,1.45.75.08.05.15.1.23.16,1.89,1.02,3.86,1.87,5.82,2.74.22.08.43.16.65.24.23.21.5.33.8.37.3.13.6.26.9.39.09.04.19.08.28.12,1.06.46,2.12.94,3.22,1.3,1.01.45,2.05.83,3.1,1.18.1.11.23.14.37.14.15.15.35.2.54.25.34.21.7.16,1.06.12-.05.12-.07.23.1.27.61.32,1.28.5,1.95.65.56.33,1.17.52,1.8.65.04.01.09.03.13.04.52.16,1.04.32,1.55.48.16.13.35.09.53.12.4.24.85.31,1.29.4,3.69,1.1,7.44,1.96,11.26,2.47.1-.03.2-.03.3-.02-.07.02-.15.04-.22.04.88.14,1.77.26,2.65.45.6.13,1.22,0,1.81.21.07.11.19.09.29.09,1.39.11,2.75.39,4.15.47.92.06,1.87.26,2.8.36,2.51.27,5.02.44,7.53.71,3.09.34,6.16.79,9.27.9,1.29.04,2.59-.04,3.87.21,2.43.47,4.86.96,7.29,1.44,3.41.68,6.85,1.11,10.29,1.62.58,0,1.12.33,1.72.24,2.2.33,4.4.68,6.6.97.97.13,1.96.12,2.93.23,2.73.32,5.48.5,8.23.61.53,0,1.05.01,1.58.02.53-.29,1.03.09,1.55.05,1.69-.11,3.38-.07,5.07-.14,1.42-.06,2.81.36,4.2.6.43.09.87.18,1.3.27.21.12.45.09.67.13.55.1,1.13.02,1.66.25.25.19.54.07.8.1.34.05.67.1,1.01.16.92.03,1.79.41,2.71.38,0,0,.01,0,.02,0,.04,0,.08.01.11.02,1.12.24,2.26.26,3.4.34.56.04,1.13.04,1.68.13.87.14,1.73,0,2.61.12,1.57.21,3.17-.25,4.76-.09.13.01.27-.11.41-.16.78.08,1.55.25,2.33,0,.09.13.18.1.28.01.19.07.3-.16.47-.13.96.15,1.91,0,2.87-.03,1.26.09,2.5-.12,3.76-.1.04,0,.09,0,.13,0,1.81.04,3.63.08,5.44.12.7.05,1.38-.29,2.1-.01.23.09.63.2.9-.09.34-.09.68-.14,1.02-.01.31.4.72-.16,1.04.11.19.03.38.11.52-.09h.62c.17.19.41.1.62.13.29.24.63.07.94.1.08,0,.17,0,.25,0,.47.12.98-.12,1.43.15,1.16.16,2.33.21,3.5.13.42.34.86-.1,1.28.04.93.33,1.9.15,2.78-.01,1.29-.24,2.58.04,3.85-.27.7,0,1.37-.21,2.06-.29.69-.18,1.34-.53,2.08-.51.69.08,1.34-.05,1.94-.39.71-.31,1.58-.16,2.2-.75.85.04,1.54-.51,2.33-.67.22-.08.44-.16.67-.24.24-.03.44-.13.63-.26.32-.23.67-.36,1.08-.41.21-.02.47-.03.64-.23.07-.05.15-.11.22-.16.44-.28.9-.52,1.44-.5.41-.25.8-.57,1.33-.56.03,0,.06-.05.09-.08.53-.22,1.06-.44,1.59-.67.17-.07.4-.09.38-.36.37.04.69-.09,1-.28.31-.18.62-.36.97-.46.03,0,.06-.02.09-.03h0c.27-.33.65-.38,1.04-.39.12-.09.24-.19.37-.28.28-.02.56-.02.75-.27.05-.04.1-.07.15-.11.02.01.03.04.05.04.01,0,.05,0,.05-.02.17-.42.58-.46.94-.56,1-.27,1.87-.84,2.86-1.15.33-.43,1.01-.13,1.29-.65.11-.21.39-.07.52-.25.86-.26,1.46-1.07,2.41-1.17.23-.02.35-.29.45-.51.47,0,.92-.09,1.3-.4.79-.34,1.54-.76,2.29-1.19.73-.42,1.42-.91,2.11-1.41.42-.28.94-.39,1.3-.77,1.1-.66,1.87-1.85,3.25-2.08h0c.69-.22,1.37-.44,2.06-.66h0s0,0,0,0h0s0,0,0,0h0s0,0,0,0h0s0,0,0,0c1.02-.07,1.9-.63,2.88-.87,1.02-.25,2-.63,3.04-.86.51-.11,1.12-.1,1.47-.62.47.24.83-.03,1.17-.28.2-.14.39-.32.62-.31.76.04,1.28-.55,1.97-.71.01-.02.02-.03.04-.05.3-.43.8-.53,1.24-.73.11-.13.22-.26.4-.29.17-.15.29-.35.57-.32.15.02.35-.05.38-.19.14-.65.68-.8,1.18-1,.19-.07.36-.15.38-.38.08-.09.15-.19.23-.28.26-.08.51-.18.51-.52,0-.19.11-.31.27-.39.57-.11.72-.64,1.02-1.01.33-.04.5-.29.66-.54.33-.26.32-.75.66-1.01.15-.1.17-.27.22-.42.14-.14.27-.27.41-.41.05-.57.74-.63.89-1.1.27-.89.96-1.5,1.45-2.25.01-.03.03-.06.04-.09.38-.83,1.06-1.52,1.14-2.49.36-.06.44-.4.42-.63-.04-.44.15-.74.37-1.06.11-.09.11-.23.12-.35.04-.14.08-.28.12-.42.31-.3.03-.7.2-1.04.41-.8.48-1.68.45-2.56.19-.2.24-.48.22-.72-.07-.95.36-1.62,1.07-2.16,2.01-1.81,3.7-3.91,5.42-5.98.29-.44.64-.82,1.06-1.15.09-.08.18-.16.26-.24.28-.1.47-.31.65-.53.83-.74,1.66-1.48,2.48-2.22,1.66-1.49,3.19-3.09,4.63-4.8.17-.22.34-.44.51-.66.08-.14.16-.27.25-.41.4-.43.81-.85,1.06-1.4.57-.33.8-.93,1.16-1.43.17-.27.34-.54.5-.81.32-.32.55-.69.68-1.12h0c.17-.29.43-.53.4-.91.17-.08.2-.24.23-.4.25-.15.3-.42.28-.66-.03-.38.14-.64.36-.9.21-.73.42-1.47.63-2.2-.04-.28.3-.39.28-.65.11-.92.59-1.78.48-2.73.05-.12.18-.21.14-.37.03-.42.41-.82.19-1.24ZM255.43,28.76h0s0,0,0,0h0ZM283.59,36.55s0,0,0,0c0,0,0,0,0,0,0,0,0,0,0,0ZM284.83,40.92h0s0,0,0,0c0,0,0,0,0,0ZM284.84,41.12c.06.15.23.17.38.22-.15-.05-.32-.07-.38-.22ZM284.85,39.71s0,0,0,0c0,0,0,0,0,0,0,0,0,0,0,0ZM285.7,44.38s0,0,0,0c0,.01.01.02.02.03,0,0-.01-.02-.02-.03,0,0,0,0,0,0ZM288.78,50.96h0s0-.03,0-.05c0,.02,0,.03,0,.05ZM286.99,57.41c-.06-.06-.12-.09-.16-.09.05,0,.1.02.16.09ZM288.78,50.97s0,0,0,0c0,0,0,0,0,0,0,.03,0,.05,0,.08,0-.03,0-.05,0-.08ZM287.75,57.78s-.02-.02-.02-.04c.02,0,.04.01.06.02-.01,0-.02,0-.03.02ZM286.25,42.52c.08.06.1.12.07.18-.03-.06-.05-.12-.07-.18ZM285.14,39.37h0s0,0,0,0c-.02,0-.04,0-.05,0,.02,0,.04,0,.05-.01ZM283.55,36.32s0,0,0,0c-.03-.1-.07-.2-.11-.3.04.1.08.2.11.29ZM278.85,33.78s0-.01,0-.02c0,0,0,.01,0,.02,0,0,0,0,0,0ZM278.85,33.79s0,0,0,0c0,.01,0,.02,0,.03,0,0,0-.02,0-.03ZM279.03,34.43c-.01.23.17.37.43.48,0,0,0,0,0,0-.25-.11-.44-.25-.43-.48ZM280.78,34.78c-.02-.11-.05-.19-.07-.26.05.05.08.12.07.22,0,.02,0,.03,0,.05ZM278.34,61.27h0s.02,0,.03,0c-.01,0-.02,0-.03,0h0ZM270.11,39.63h0s0,0,0,0c0,0,0,0,0,0,0,0,0,0,0,0,0,0,0,0,0,0,0,0,0,0,0,0h0ZM266.36,33.8h0,0s0,0,0,0ZM266.56,33.84s0,0,.01-.01c0,0-.01,0-.01.01h0ZM266.67,33.76s.08-.07.06-.1c.02.03-.02.06-.06.1ZM263.75,33.02h0s0,0,0,0h0s0,0,0,0h0s0,0,0,0c0,0,0,0,0,0,0,0,0,0,0,0ZM263.76,33.02h0s0,0,0,0h0ZM263.77,33.03s0,0,0,0c0,0,0,0,.01.01,0,0,0,0-.01,0,0,0,0,0,0,0ZM267.9,38.31s0,.02.02.03c-.02,0-.03,0-.05,0,.01-.01.02-.02.03-.03ZM280.61,55.18s0,0,0-.01c0,0,0,.02,0,.02,0,0,0,0-.01,0h0s0,0,0,0h0s0,0,0,0c0,0,0,0,0,0,0,0,0,0,0,0ZM275.43,42.56s.05.04.06.08c-.04.04-.08.06-.12.07.02-.04.04-.09.06-.15ZM274.8,42.63s.03.03.05.04c-.02-.01-.03-.02-.05-.04h0ZM277.29,46s.07.04.1.05c-.02.01-.03.02-.04.03-.01-.03-.03-.06-.06-.09ZM274.77,42.61s0,0,0,0c0,0,0,0,0,0,0,0,0,0,0,0,0,0,0,0,0,0,0,0,0,0,0,0,0,0,0,0,0,0h0s0,0,0,0ZM279.35,54.53s.03.08.04.11c-.02-.04-.05-.08-.06-.14,0,.01.02.02.02.03ZM248.3,22c-.3-.12-.59-.28-.88-.41.29.14.58.29.88.41h0s0,0,0,0ZM237.95,19.92h0s0,0,0,0h0ZM236.34,20.72s.02-.03.02-.05c.02,0,.04.02.06.02-.02.01-.04.03-.06.05-.02.02-.04.03-.06.05.01-.02.02-.05.03-.07ZM271.08,24.81s0,.03,0,.05c0-.01,0-.03,0-.05,0,0,0,0,0,0ZM271.62,26.27c.01-.19-.16-.21-.61-.26,0,0,0,0,0,0,0,0,0,0,0,0h0c.45.06.62.08.61.26ZM271.26,27.04s0,0-.01,0c0,0,.01,0,.02,0,0,0,0,0,0,.01ZM273.48,29.27s0,.05,0,.07h0s0,0,0,0c0-.02,0-.05,0-.07ZM275.4,28.43s-.01,0-.02.01c-.03-.02-.05-.05-.07-.07.03.02.06.04.09.06ZM271.9,26.97c-.06-.27-.28-.17-.47-.15.19-.03.42-.13.47.14,0,0,0,0,0,0ZM269.35,26.17c-.13-.07-.28-.06-.43-.05h0s0,0,0,0h0c.15-.01.3-.02.43.05ZM257.73,19.19s0,0,0,0c0,0,0,0,0,0-.01,0-.02-.01-.03-.02,0,0,.02.01.03.02ZM245.69,15.04s0,0,0,0c.03-.01.06-.02.09-.02-.03,0-.06,0-.09.02,0,0,0,0,0,0ZM248.07,14.75h0s0,0,0,0h0ZM244.57,12.81s0,0,0,0c0,0,0,.01.02.01,0,0-.01,0-.02,0ZM244.56,12.8c-.24.17-.5.29-.77.38-.14,0-.22.07-.26.2h0c.04-.12.12-.19.26-.2.28-.09.54-.21.77-.38,0,0,0,0,0,0ZM248.08,14.75h0s0,0,0,0h0s0,0,0,0c.03.12.04.25.09.36-.04-.12-.06-.24-.09-.36h0s0,0,0,0h0s0,0,0,0h0s0,0,0,0h0s0,0,0,0h0ZM244.57,12.8h0s0,0,0,0h0ZM244.57,12.8s-.01,0-.02,0c0,0,.01,0,.02,0h0ZM234.85,11.36h0c-.1-.11-.22-.15-.34-.16.13.01.25.05.34.16ZM220.72,7.36h0s0,0,0,0c0,0,0,0,0,0,0,0,0,0,0,0,0,0,0,0,0,0ZM220.73,7.35s0,0,0,0h0s0,0,0,0ZM220.74,6.86c.26.11.38.34,0,.49,0,0,0,0,0,0,.39-.15.27-.38,0-.49ZM213.4,6.67s0-.03,0-.05c0,0,.01,0,.02,0,.06-.02.02.04-.01.05ZM196.19,6.48s0,0,0,0c.64-.06,1.19.03,1.74.04.65,0,1.29.07,1.94.1,3.19.17,6.37.34,9.56.51.12.02.23.03.35.05.54.07,1.08.14,1.62.17.15,0,.3.01.45.02.15,0,.3,0,.45,0,0,0,0,0,0,0,0,0,.01,0,.02,0,1.05.09,2.1.18,3.15.27.02,0,.04,0,.06,0,.65.24,1.35.15,2.02.27,1.22.2,2.45.34,3.68.5.08.01.15.03.23.04.32.05.64.11.97.16.08.01.16.03.24.04.64.09,1.27.19,1.91.28.14.03.28.06.42.09.69.14,1.37.29,2.06.43.13.09.27.11.41.12.19.01.38-.01.56,0,.02,0,.04,0,.06,0,.86.2,1.73.4,2.59.61.02,0,.04,0,.07,0,.46-.05.8.37,1.23.41.05,0,.1,0,.16,0,.63.19,1.27.37,1.9.56.07.05.15.08.23.11.19.06.39.08.58.12h0c.6.18,1.21.35,1.81.52,0,0,.02,0,.03.01.81.29,1.61.59,2.42.88,0,0,0-.02,0-.03,0,.01.02.02.02.04.03.01.07.02.1.02.03,0,.06,0,.09-.01-.02.01-.03.03-.05.04.26.17.57.19.87.23h0s0,0,0,0c0,0,0,0,0,0,0,0,0,0,.01,0,0,0,0,0,0,.01.27.31.7.21,1.02.37h0s0,0,0,0c.73.39,1.55.52,2.33.79.05.03.1.06.15.09.19.13.36.3.62.29h0c-.12-.13-.25-.22-.4-.29.15.06.28.16.4.28,0,0,0,0,0,0h0s.03,0,.05.01c.42.07.76.31,1.13.49.03.02.07.03.1.03.6.24,1.19.48,1.79.72.15.06.29.12.44.18,1.34.56,2.68,1.12,4.02,1.68.07,0,.13.01.19.03.76.15,1.32.86,2.16.81.28-.02.31.61.75.44.01,0,.03.02.04.02.33.17.66.34.99.52.22.09.43.17.65.26.42.2.9.27,1.29.54.05.03.09.07.14.11,1.08.52,2.15,1.03,3.23,1.55.05.04.09.07.14.1.57.38,1.26.52,1.8.95.04.02.09.05.13.07.16.08.31.16.47.25.02.01.05.03.07.04.19.24.6.07.76.38,0,0,.01.01.01.02.26.17.53.33.79.5,0,0,.02.01.02.02.31.33.8.38,1.17.64.09.06.17.13.24.23.09.05.17.1.26.15.03.02.06.04.09.06.14.1.29.2.44.3.06.04.12.08.18.12-.02-.02-.03-.05-.05-.07.04.04.07.08.11.12.28.11.48.4.81.41.03,0,.06.01.09.02.13.03.23.11.3.25.27.51.78.74,1.24,1.02.11.12.2.29.41.24.34.12.37.61.77.66.09.04.17.09.26.13.07.06.16.06.24.06.32.16.39.64.77.78.25.09.54.3.66.61.12.1.23.2.35.3l.06.05c.13.16.3.23.49.28.01.02.03.04.04.07.13.23.32.4.55.52.03.02.05.03.08.05.31.3.62.59.93.89.04.03.07.07.11.1.22.21.45.42.67.63.03.03.06.05.09.08.19.31.57.36.82.6,0,.11.03.21.06.3.18.59.72.95,1.15,1.18.49.27.7.55.84,1,.23.29.68.36.76.8.09.5.42.88.72,1.27.65.83,1.16,1.74,1.75,2.6.35.51.56,1.27.81,1.92,0,.02,0,.04,0,.06.24.88.84,1.64,1.04,2.53.02.08.03.16.04.24,0,.06.02.12.02.18.22.86.43,1.73.65,2.59.02.03.03.05.05.08.19.33.31.64.25,1.08-.07.55-.06,1.14.1,1.7,0,.25.02.5.02.75-.06.51.18,1.03-.03,1.54-.15,1.04-.39,2.07-.37,3.13-.3.61-.16,1.31-.38,1.93-.01.04-.02.08-.04.11-.15.1-.09.26-.11.39-.03.08-.05.17-.08.25-.25.76-.49,1.54-.76,2.36,0,.01,0,.03-.01.04,0-.01-.01-.02-.02-.03-.25-.39,0-.69.02-.99,0-.06,0-.12-.03-.17.16-1.89.39-3.77,0-5.67-.1-.5-.34-.96-.4-1.46,0,0,0-.02,0-.03-.01-.2-.05-.4-.13-.59-.03-.06-.07-.12-.11-.18-.25-.8-.5-1.59-.94-2.31,0-.01,0-.02-.01-.03-.26-.71-.74-1.28-1.13-1.91-.09-.14-.17-.28-.24-.42-.64-.95-1.22-1.94-2.11-2.69-.03-.04-.06-.08-.09-.13-.22-.31-.44-.62-.66-.93-.03-.13-.13-.21-.25-.26-.35-.23-.53-.6-.77-.92-.08-.22-.24-.35-.42-.49-.17-.13-.35-.25-.52-.38-.18-.14-.03-.52-.38-.54-.57-.51-.94-1.2-1.55-1.67-.87-.9-1.74-1.81-2.61-2.71-.33-.31-.66-.63-1-.94-1.52-1.41-3.08-2.78-4.78-3.97-.39-.27-.62-.78-1.17-.82-.41-.54-1.15-.63-1.56-1.17-.44-.26-.99-.42-1.28-.79-.6-.76-1.59-.87-2.25-1.51-.99-.91-2.3-1.29-3.36-2.09-.34-.18-.69-.35-1.03-.53-.05-.13-.15-.15-.27-.13-.36-.13-.61-.47-1-.54,0-.04-.02-.07-.05-.09-.35-.24-.82-.23-1.14-.54-.13-.05-.25-.1-.38-.15-.12-.3-.36-.4-.66-.37-.3.01-.31-.45-.64-.38-.73-.35-1.47-.69-2.2-1.04-.18-.18-.42-.21-.66-.24-.29-.14-.59-.28-.88-.42-.27-.35-.71-.09-1.03-.28-.08-.28-.37-.22-.54-.35-.47-.2-.91-.47-1.44-.52-.16-.11-.29-.26-.5-.28-.3-.11-.58-.31-.93-.23-.43-.41-1.01-.48-1.53-.68-.35-.13-.7-.25-1.06-.38-.3-.09-.59-.18-.89-.27-.45-.19-.89-.38-1.34-.57-.04-.02-.08-.03-.12-.05-.03-.02-.07-.03-.11-.02-.13-.04-.25-.09-.38-.13-.68-.23-1.36-.47-2.04-.71-.06-.02-.12-.04-.18-.06h0c-.05-.02-.11-.04-.16-.07-.45-.17-.89-.33-1.34-.5-.06-.02-.13-.05-.19-.07-.89-.35-1.77-.73-2.71-.92-.05-.03-.1-.05-.15-.08-.16-.09-.33-.16-.52-.18-.04,0-.07-.01-.11-.01-1.47-.47-2.94-.94-4.4-1.41-.05-.03-.11-.05-.17-.07-.45-.16-.95-.16-1.39-.36-.05-.02-.1-.05-.15-.07h0c-.11-.04-.22-.07-.32-.11-.47-.14-.93-.28-1.4-.41-.03,0-.05-.02-.08-.02-8.66-2.45-17.46-4.34-26.41-6.14.11-.02.21-.03.31-.04ZM217.48,15.29s0,0,0,0c0,0,0,0,0,0h0s0,0-.01,0ZM192.75,2.71s-.06.1-.09.19c-.04-.02-.07-.05-.09-.12.06-.05.11-.07.17-.07ZM189.07,2.91s-.01.02-.02.03c0,0,.01-.02.02-.03,0,0,0,0,0,0ZM113.35,9.62s.03.02.05.04c-.02,0-.04,0-.07,0,0,0,0-.02.01-.03ZM105.63,11.71s0,0,0,0c-.05.02-.09.03-.13.03.04-.01.08-.03.12-.04ZM103.92,11.06s0,0,0,0c0,0,0,0,0,0,0-.03.02-.05.02-.08,0,.03-.01.05-.02.08ZM102.77,10.92c-.06.31.03.66.26.98h0c-.23-.32-.32-.68-.26-.98ZM99.97,7.62c3.87-.77,7.75-1.32,11.81-1.22-1.87.37-3.64.7-5.41,1.06-4.7.96-9.38,2.05-14,3.35-.37.1-.75.21-1.12.31-.06.02-.11.03-.17.05-.59.16-1.18.32-1.77.48-.43.13-.87.25-1.31.38-.15,0-.31-.02-.45.03-2.06.8-4.23,1.26-6.29,2.03-1.07.4-2.19.68-3.22,1.2-.22-.03-.41.04-.54.23-.38.1-.76.2-1.15.3-.38.44-.95.45-1.45.62-.36.02-.62.3-.93.44-.07.03-.15.06-.23.07-.08,0-.16.02-.24.02-.46.32-1.07.37-1.45.87-.07.1-.44-.02-.63-.04.42-.76,1.34-.65,1.93-1.13.03,0,.05,0,.08.01.02,0,.03,0,.05,0,.04-.02.08-.04.13-.06.59-.3,1.18-.61,1.77-.91.03-.01.05-.03.08-.04.28-.03.44-.24.63-.4.03-.01.06-.03.09-.04.28-.12.59-.17.87-.29.11-.05.22-.11.33-.19.91-.34,1.77-.81,2.67-1.17,1.11-.45,2.24-.86,3.34-1.33,2.25-.96,4.61-1.58,6.92-2.35.25-.08.49-.16.68-.34.04,0,.07,0,.11.01.17.02.34-.01.49-.1.02-.01.04-.02.06-.03.04.02.08.01.12-.01.07-.04.14-.07.21-.08.13-.02.27-.02.4-.03.11-.01.23-.04.33-.11,2.41-.59,4.84-1.09,7.27-1.57ZM78.94,8.78h0,0s0,0,0,0ZM75.7,14.75h0s0,0,0,0h0s0,0,0,0h0s0,0,0,0h0s0,0,0,0h0s0,0,0,0h0s0,0,0,0h0s0,0,0,0ZM94.5,13.07s0,0,0,0c0,0,0-.01,0-.01h0s0,0,0,0c0,0,0,0,0,0h0s0,0,0,0h0s0,0,0,0c0,0,0,0,0,0h0s0,0,0,0h0s0,0,0,0ZM96.09,13.46c-.07.02-.15.05-.13.12-.02-.07.05-.1.13-.12,0,0,0,0,0,0ZM92.55,15s-.01,0-.02,0c.02,0,.03,0,.05,0,0,0-.02,0-.03.01ZM88.7,12s0-.01-.01-.02c0,0,.01,0,.02,0,0,0,0,.01,0,.02ZM76.83,17.96s.06-.03.09-.05c-.02.03-.04.05-.06.07,0,0-.02-.01-.03-.02ZM70.91,21.22h0s0,0,0,0c0,0,0,0,0,0h0s0,0,0,0h0s0,0,0,0h0s0,0,0,0h0s0,0,0,0h0s0,0,0,0h0s0,0,0,0ZM54.19,30.04h0s0,0,0,0h0s0,0,0,0h0ZM55.62,29.91s-.01-.01-.02-.02c0-.01,0-.03-.01-.04.01.02.02.04.03.06h0ZM53.23,29.42c-.11-.07-.19-.14-.27-.21.07-.01.15-.03.23-.05,0,.07.01.15.05.26ZM55.61,29.91h0s0,0,0,0h0s0,0,0,0h0s0,0,0,0c0,0,0,0,0,0ZM54.19,30.04s0,0,0,0h0s0,0,0,0h0s0,0,0,0h0s0,0,0,0h0ZM90,4.42h0s0,0,0,0c.03,0,.06-.02.09-.04-.03.02-.06.03-.09.04ZM85.26,4.56h0s.01.04.02.07c0-.02-.01-.04-.02-.07ZM85.29,4.63s0,0,0,0h0s0,0,0,0h0s0,0,0,0c0,0,0,0,0,0h0s0,0,0,0c0,0,0,0,0,0ZM85.29,4.64s0,0,0,0c0,0,0,0,0,0h0ZM80.73,7.95s.01,0,.03,0c-.01,0-.02,0-.03,0-.01,0,0,0,0,0ZM80.77,7.96s0,0,0,0c0,0,0,0,0,0,0,0,0,0,0,0ZM69.09,6.98s0,0,0,0h0s0,0,0,0h0s0,0,0,0h0s0,0,0,0h0s0,0,0,0c0,0,0,0,.01,0,0,0-.02,0-.02,0,0,0,0,0,0,0,0,0,0,0,0,0h0s0,0,0,0ZM71.59,7.92s0,0,0,0c0,0,0,0-.01,0,0,0,0,0,0,0ZM68.86,9.46c1.62-.25,3.27-.39,4.88-.69,1.55-.29,3.14-.25,4.68-.62.37.03.73,0,1.08-.06.21-.04.41-.08.61-.15.19-.06.45-.2.57.04,0,0,0,0,0,0,.02.04.04.09.05.16-.26.08-.52.16-.78.24-.05.02-.11.04-.16.06-.26.1-.52.2-.78.31-.03.01-.06.02-.09.03h0s-.1.05-.15.07c-.43.19-.91.25-1.31.5-.04.02-.07.04-.11.07-.99.58-2.16.74-3.1,1.42-.05.02-.09.04-.14.06-.21.09-.41.18-.62.26-.05.02-.1.04-.16.07h0s-.08.04-.12.05c-.21.09-.45.13-.65.26-.04.03-.08.06-.12.09-.33.14-.65.27-.92.52-.04,0-.08,0-.11.01-.13.02-.25.08-.36.17-.02.02-.05.04-.07.06-1.31.74-2.73,1.27-4,2.1-.02,0-.05.02-.07.02-.48.15-.88.44-1.31.68-.03.01-.05.03-.08.04-.75.4-1.58.66-2.2,1.3-.14.15-.42.17-.63.25-.04,0-.07,0-.1.02-.23.07-.29.35-.52.47-1.46.72-2.91,1.45-4.29,2.32-.1.06-.2.12-.29.19-.34.09-.63.27-.89.51-.04.02-.08.04-.11.06-.26.13-.52.26-.78.39-.05.03-.1.05-.15.08-.6.34-1.2.69-1.8,1.04-.02.01-.05.02-.07.04-.13.07-.26.13-.39.2-.02,0-.04.02-.06.03,0,0,0,0,0,0-.04.02-.08.03-.12.05-.49.22-.9.6-1.43.73-.11,0-.19.05-.25.14-.35.03-.54.33-.82.47-.03.01-.06.03-.09.04-1.13.6-2.27,1.2-3.4,1.79-.04,0-.07,0-.09.04-.36.26-.76.45-1.16.64-.09.04-.18.08-.27.12-1.03.85-2.35,1.22-3.38,2.07-.14.08-.27.17-.4.26-.58.41-1.08.93-1.67,1.32-.13.08-.26.16-.39.24h0s-.02.01-.03.02c-.69.36-1.18.92-1.59,1.56-.02.04-.05.07-.07.11-1.29.81-2.06,2.09-2.97,3.24-.07.1-.13.21-.2.31-.37.55-.77,1.09-.96,1.74-.01.04-.03.09-.04.13-.62.79-.99,1.73-1.36,2.64-.4.96-.98,1.75-1.7,2.45-.06.06-.13.11-.19.17-.18.16-.36.33-.53.49-.03.03-.06.05-.09.08-.13.13-.25.26-.38.39-.06.03-.14.04-.2.08-.01,0-.02.01-.03.02-.6.77-1.36,1.4-2.04,2.1-.05.06-.11.11-.16.17-.03.08.01.12.07.14-.01.03-.03.06-.04.09-.31.64-1.17.75-1.47,1.4,0,.01-.01.03-.02.04h.01c0,.15-.03.28-.07.39-.02-.12-.01-.24.07-.37-.05.01-.09.03-.12.06-.15.1-.15.28-.13.45.02.15-.03.3-.14.33-.63.18-.9.71-1.22,1.19-.04.05-.07.11-.11.16-.16.1-.13.25-.1.4.06.36.3.83-.47.6-.32-.1-.4.35-.58.56-.03.07-.06.14-.09.21-.1.24-.21.49-.32.73-.09.21-.49.11-.49.41,0,.03,0,.05,0,.09h0c-.05.02-.1.05-.13.08-.14.12-.19.31-.23.47-.13.55-.38,1.01-.83,1.35-.2.4-.41.8-.61,1.21,0,.09,0,.17.01.26-.02.17-.03.37-.2.45-.56.29-.69.83-.84,1.37.04.01.08.02.12.03h0s0,0,0,0c-.04-.01-.08-.02-.12-.03-.3.24-.27.57-.27.9-.14.12-.27.24-.4.36-.4.71-.72,1.46-1.02,2.22-.31.52-.52,1.08-.67,1.67-.26.52-.51,1.03-.77,1.55-.12.06-.1.18-.11.29-.1.54-.52.98-.53,1.55-.46,1.06-.88,2.13-1.16,3.25-.32.88-.65,1.76-.79,2.7-.01.04-.02.08-.04.12-.15.49-.3.98-.45,1.46-.16,1.46-.83,2.82-.91,4.31-.13.2-.19.42-.16.65,0,.03,0,.06,0,.09-.08.28-.16.56-.25.91-.81-1.03-1.5-2.07-2.12-3.16-.61-1.07-1.25-2.12-1.88-3.19-.03-.07-.05-.14-.08-.21-.12-.31-.23-.63-.35-.94-.03-.09-.06-.17-.1-.26-.22-.6-.44-1.21-.66-1.81-.04-.05-.07-.1-.08-.15-.06-.19-.01-.4-.02-.59,0-.11-.03-.22-.12-.32-.27-1.19-.31-2.4-.42-3.6.01-.21.04-.41.03-.62,0-.08,0-.15-.02-.22-.02-.12-.05-.23-.11-.34,0-.03.01-.05.02-.08.08-.38.17-.77.25-1.15.04-.19,0-.33-.15-.45-.07-.6.27-1.12.37-1.69.07-.08.05-.17.01-.25.17-.57.29-1.15.38-1.74.07-.45.12-.91.16-1.37.19-.55.16-1.14.24-1.71.07-.16.12-.33.17-.5.11-.43.17-.87.27-1.29.02-.09.04-.17.07-.26.18-.22-.02-.36-.11-.52,0-.04.02-.07.03-.11.19-.76.67-1.42.76-2.21.15-.26.26-.52.35-.8.05-.13.08-.26.12-.39.03-.16.05-.33.05-.5.3-.43.18-1,.51-1.42,0-.05.02-.11.03-.16.12-.55.45-1.03.59-1.57,0-.03.02-.06.03-.09-.1-.68.6-1.05.65-1.67h0c.17-.43.34-.86.51-1.28,0,0,0-.01,0-.02h0c.03-.09.06-.18.08-.26.08-.31.15-.64.42-.85.03-.03.06-.05.1-.07.13-.4.26-.8.38-1.21.16-.56.66-.9.94-1.38.04-.04.06-.08.08-.12.11-.25-.07-.57.18-.82.15-.16.48-.12.52-.38,0-.03.01-.05,0-.08h0c.02-.06.05-.11.09-.17.16-.26.42-.47.52-.78.01-.03.02-.07.03-.11,0-.08,0-.17,0-.25.01-.02.02-.03.04-.05.14-.21.28-.41.43-.62.02-.04.05-.07.07-.11.61-.35.78-1.06,1.21-1.56.37-.43.76-.85,1.11-1.3.05-.06.09-.11.14-.17.31-.38.63-.75.97-1.09.14-.14.29-.28.44-.42.29-.27.67-.45.9-.8.04-.05.07-.1.11-.15,0,0,0,0,0,0,.3-.4.64-.73,1.19-.8.02,0,.03-.02.05-.04.03-.04.05-.11.08-.15.39-.3.78-.61,1.17-.91.06-.04.12-.08.19-.13.5-.34,1.01-.69,1.51-1.03.43-.5.85-1.01,1.48-1.2.11-.03.22-.06.35-.08.04,0,.07,0,.1-.04.02,0,.03,0,.04-.01.14-.04.24-.11.32-.24.36-.22.71-.44,1.07-.66.29-.44.73-.6,1.19-.74.13-.04.27-.08.4-.13.56-.53,1.31-.75,1.92-1.21.05,0,.1-.02.15-.03.42-.12.68-.53,1.06-.73.11-.06.23-.1.36-.11h0s0,0,0,0h0s0,0,0,0h0s0,0,0,0h0s0,0,0,0h0s.04-.04.06-.06c.36-.35.78-.66,1.24-.82.27-.09.58-.08.82-.22.08-.05.15-.11.21-.2.32-.02.55-.19.76-.41.03-.02.07-.04.1-.06.71-.42,1.42-.84,2.13-1.25.04-.03.09-.05.13-.08.04,0,.07,0,.1-.02.02,0,.04,0,.05,0,.3.06.5-.08.67-.3.02-.03.04-.06.06-.09.04,0,.08,0,.12-.01.2-.03.39-.12.57-.21.11-.06.23-.11.35-.16.25-.05.47-.07.66-.32.23-.31.6-.47,1.01-.47.03-.04.06-.07.09-.1.3-.29.72-.29,1.09-.4h0s0,0,0,0c.08-.04.17-.08.25-.13,0,0,0,0,0-.01,0,0,0,0,0,0,.19-.23.52-.1.74-.27,0,0,0,0,0-.01,0,0,.01,0,.02,0h0c.08-.1.16-.19.25-.26.34-.28.76-.37,1.23-.35.07,0,.14-.08.21-.13,0,0,0,0,0,0h0c.2-.09.41-.17.57-.32.03-.03.06-.05.09-.08.04,0,.07,0,.1-.03.03-.02.06-.04.09-.06.32-.21.68-.32,1.05-.39.1-.02.19-.03.29-.05.35-.11.64-.38,1.02-.41.03,0,.06,0,.09,0,.17-.01.33-.02.47-.12.04-.03.08-.06.11-.1.26-.15.53-.25.75-.47.4-.41.94-.27,1.43-.33.02,0,.05,0,.07-.01.25-.04.5-.08.71-.24.26-.09.52-.17.77-.26.57-.35,1.17-.58,1.85-.53.07,0,.15-.08.22-.12.43-.12.87-.25,1.3-.37.52-.13,1.04-.27,1.56-.4.33.03.54-.33.88-.29.29-.12.58-.23.88-.26.14-.01.28,0,.43.02.09,0,.17,0,.26,0,.02,0,.05,0,.07,0,1.06,0,2.02-.58,3.07-.66.17-.01.35-.01.53,0,.11.01.23-.08.35-.12,1.48-.25,2.95-.53,4.43-.76ZM40.17,96.75h0s0,0,0,0h0ZM40.19,96.78h0s0,0,0,0c0,0,0,0,0,0h0s0,0,0,0c0,0,0,0,0,0h0s0,0,0,0ZM40.38,97.08s.07.07.11.08c-.04-.02-.08-.05-.11-.08,0,0,0,0,0,0ZM40.32,96.03h0s-.02-.01-.03-.01c.01,0,.02-.01.03-.02,0,0,0,0,0,0,.02,0,.03,0,.05,0-.02,0-.03.02-.05.03ZM40.2,96.79s0,0,0,0c-.02.17,0,.3.08.39-.08-.09-.11-.22-.08-.39,0,0,0,0,0,0ZM40.7,100.56c.41.28.7.7,1.17.9,0,.03,0,.06,0,.09,0,.01,0,.02,0,.03,0,0,0,0,.01,0,.02,0,.04,0,.05.01.22.05.43.15.41.39-.02.21-.19.12-.34.1-.04,0-.09-.01-.12,0-.06-.07-.12-.14-.18-.22-1.97-.83-3.94-1.67-5.91-2.5-.05-.03-.09-.05-.14-.08-.23-.13-.47-.25-.7-.38-.03-.02-.06-.03-.09-.05-.09-.05-.17-.09-.25-.14-.1-.04-.2-.08-.3-.13-.38-.16-.76-.32-1.13-.5,0,.02.02.03.02.04.04.07.07.13.11.18-.04-.02-.08-.03-.12-.05-.01-.04-.02-.08-.02-.13,0-.02,0-.03,0-.05-.37-.18-.72-.39-1.04-.66-1.01-.52-2.04-1.01-2.99-1.66-.03-.02-.07-.05-.1-.07-1.1-.76-2.21-1.52-3.37-2.19-.01,0-.03-.01-.04-.02-.4-.16-.76-.38-1.02-.73-.69-.49-1.38-.97-2.07-1.46-.04-.03-.09-.06-.13-.09-.64-.43-1.24-.91-1.81-1.43-.01-.02-.02-.03-.04-.05-.04-.05-.1-.08-.16-.09-.02,0-.04,0-.06,0-1.35-1.25-2.72-2.48-3.95-3.85-.18-.2-.14-.41-.12-.66.1-.96.36-1.9.31-2.87.02-.05.04-.11.06-.16.22-.63.23-1.31.34-1.97.17-.92.13-1.88.37-2.79.05-.19.33-.29.23-.55-.22-.57.1-1.04.29-1.53-.07-.04-.12-.06-.17-.05,0,0,0,0,0,0,.05,0,.1.01.17.06,0-.08.01-.16.02-.24.13-.04.26-.11.25-.25-.04-.73.42-1.37.39-2.1.48-.25.15-.86.51-1.17.18-.89.71-1.68.75-2.62.17-.37.29-.75.28-1.17.48-.61.86-1.27.79-2.07-.02-.24.06-.39.2-.5.43-.34.56-.82.72-1.29.73-1.56,1.46-3.11,2.19-4.67.09-.5.53-.82.67-1.29.2-.18.14-.5.37-.66.18-.34.36-.68.54-1.02.02-.04.05-.09.07-.13.02-.05.05-.09.07-.14.18-.27.37-.55.65-.98-.12.95-.22,1.72-.32,2.48-.09.25-.12.51-.14.76-.02.28-.03.56-.07.83-.1.68-.23,1.36-.28,2.05-.03.43-.22.88,0,1.32-.18.35-.15.71-.04,1.06.11.35.08.67-.12.98-.21.17.01.28.06.41,0,.61,0,1.22,0,1.82-.25.72-.16,1.45-.12,2.19.27.41-.04.87.09,1.29h0c-.3.42-.08.86-.03,1.29-.26.32.06.62.03.93-.12.77.14,1.5.24,2.24.1.77.15,1.53.32,2.3.24,1.12.6,2.17,1.01,3.23-.03.26.13.45.26.64.6,1.17,1.2,2.35,1.79,3.52.26.46.51.92.79,1.37.32.51.5,1.11,1.03,1.48.18.27,0,.66.26.91.12.11.06.33.25.39.39.77.79,1.54,1.18,2.31.29.27.47.6.65.95.39.74.87,1.42,1.41,2.06.25.31.5.62.75.93.63.62,1.13,1.37,1.81,1.94.28.44.61.83.98,1.19.07.07.15.14.22.21.77.83,1.55,1.66,2.32,2.49ZM22.35,92.53c.22-.46.22-.59-.16-.65.38.06.39.19.17.65,0,0,0,0,0,0ZM24.54,92.88s0,0,0,0c-.02.03-.04.05-.06.08.02-.03.04-.06.06-.09,0,0,0,0,0,0ZM13.52,72.67s0,0,0,0c.01-.04.02-.07.03-.11,0,.04-.02.07-.03.11h0ZM15.54,66.36s0,0,0-.01c0,0,0,0,0,0,0,.01,0,.02-.01.03,0,0,0-.02,0-.03ZM31.01,63.67h0s0,0,0,0c.02-.13.04-.26.04-.39,0,.13-.02.26-.04.39ZM14.09,72.12s.03.02.05.03c0,0,0,0,.01,0,0,0-.01,0-.02,0,0,0,0,0,0,0-.02-.01-.03-.02-.05-.03ZM15.51,72.81s-.03.03-.05.04c0,0,0,0,0-.01.02-.01.04-.02.06-.03ZM15.18,79.29h0s0,0,0,0h0s0,0,0,0ZM15.18,79.29s.05-.05.07-.08h0s-.05.05-.07.08c0,0,0,0,0,0,0,0,0,0,0,0,0,0,0,0,0,0ZM16.19,78.45s0,0,0,0c-.05,0-.1,0-.15.02.05,0,.1-.02.15-.02ZM14.62,75.84s-.06.06-.08.1c0-.05.02-.08.08-.1ZM15.75,79.62h0s0,0,0,0h0ZM14.78,72.56s0,0,0,0c0,0,.01,0,.02,0,0,0-.01,0-.02,0,0,0,0,0,0,0ZM20.33,64.91s.03,0,.04,0c0,.04-.02.08-.03.12-.01-.04-.02-.08-.04-.12,0,0,.01,0,.02,0ZM19.92,58.61c0-.12-.02-.23-.03-.31.05.05.08.11.07.2,0,.05-.02.09-.04.11ZM12.54,77.68s0-.04.01-.07c0,.01.02.02.03.03-.01.01-.03.03-.04.04ZM28.27,47.67s0,0,0,0h0s0,0,0,0h0s0,0,0,0ZM28.26,47.66h0s0,0,0,0c0,0,0,0,0,0h0s0,0,0,0h0c-.34-.18-.59-.1-.8.09.21-.19.46-.27.8-.09ZM26.99,48.52s.03.02.06.03c-.02.02-.04.04-.07.06,0-.03,0-.06.01-.09ZM27.67,66.74s-.02.06-.05.09c.03-.03.04-.06.05-.09,0,0,0,0,0,0,0,0,0,0,0,0ZM28.22,68.8s.03-.17,0-.23c.04.06,0,.23,0,.23-.53.01-.69.52-1.01.79.32-.27.48-.77,1.01-.79ZM29.88,75.17s0-.04.01-.07c0,.02.02.04.03.06-.01,0-.02,0-.04.01ZM26.45,73.33h0s0,0,0,0c0,0,0,0,0,0h0s0,0,0,0ZM29.5,68.64c0,.07,0,.14,0,.21-.08-.08-.06-.15,0-.21ZM25.48,50.62s-.02.02-.04.02c0,0,0,0,0,0,.01,0,.03-.01.04-.02ZM25.42,50.65h0s0,0,0,0h0s0,0,0,0c0,0,0,0,0,0,0,0,0,0,0,0h0ZM25.99,68.55c-.02.08-.03.15-.05.23h0s0,0,0,0c0,0,0,0,0,0h0s0,0,0,0c0,0,0,0,0,0h0s0,0,0,0h0s0,0,0,0c0,0,0,0,0,0h0s0,0-.01,0c.02-.08.04-.16.07-.24ZM34.71,87.69s0,0,0,0c0,0,0,0,0-.01,0,0,0,0,.01,0ZM30.87,46.26h0s0,0,0,0h0ZM38.1,96.83s0,0,0,0c0,.02.02.05.03.07-.01-.02-.02-.05-.04-.07ZM14.66,96.93s0,0,0,0c-.05.04-.09.07-.15.09.05-.03.1-.06.14-.09ZM31.12,63.74s-.09-.01-.12-.01c.04,0,.08,0,.12.01h0s0,0,0,0ZM37.21,16.3s0,0,0,0c0,0,0,0,0,0,0,0,0,0,0,0,0,0,0,0,0,0ZM37.21,16.3s0,0,0,0c0,0,0,0,0,0,0,0,0,0,0,0,0,0,0,0,0,0ZM30.29,22.05s0,0,0,0h0s0,0,0,0ZM9.6,40.54s0,0,0,0c0,0,0,0,0,0,0,0,0,0,0,0,0,0,0,.01,0,.02,0,0,0-.01,0-.02ZM24.6,24.23s.04.05.06.07c-.02.01-.05.02-.07.04,0-.04,0-.07,0-.1ZM18.08,30.26s0-.01,0-.02c0,0,0,.01,0,.02,0,0,0,0-.01,0ZM6.04,60.97s0,0,0,0c0,0,0,0,0,0,.02-.11.03-.21.06-.31-.03.1-.05.2-.06.31ZM7.02,46.24s-.02.06-.03.08c0-.01-.02-.03-.03-.05.02-.01.04-.02.06-.04ZM6.8,51.42s0,0,0,0c0,0,0,0,0,0,0,0,0,0,0,0ZM2.63,65.56s0,.02,0,.03c0,0,0-.02-.01-.03,0,0,0,0,0,0ZM8.17,46.5s0,0,0,0h0s0,0,0,0c0,0,0,0,0,0h0s0,0,0,0h0s0,0,0,0ZM9.6,40.54h0s0,0,0,0c0,0,0,0,0,0,0,0,0,0,0,0ZM.98,63.57s-.02,0-.03-.01c.01,0,.02,0,.04-.01,0,0,0,.02,0,.03ZM2.6,65.55s0,0,0-.01h0c-.12-.28-.26-.55-.45-.79.19.24.33.51.45.78,0,0,0,0,0,0,0,0,0,0,0,0,0,0,0,0,0,.01,0,0,0,0,0,0,0,0,0,0,0,0h0s0,0,0,0h0s0,0,0,0c-.54-.01-.96-.3-1.37-.59.41.29.83.58,1.37.59ZM5.73,64.37h0s0,0,0,0ZM54.24,12.29s0,0,0,0c0,0,0,0,0,0,.09-.01.17-.03.25-.04-.08.01-.17.03-.25.04ZM51.86,12.94h0s0,0,0,0h0s0,0,0,0h0s0,0,0,0c0,0,0,0,0,0ZM51.86,12.94h0s0,0,0,0c-.14-.15-.07-.32-.06-.49-.02.17-.08.34.06.49h0ZM51.87,12.92s0,0,0,0c0,0,0,0,0,0,0,0,0,0,0,0ZM62.16,10.31s.05.03.08.03c-.03.03-.06.06-.09.09,0-.05,0-.09,0-.13ZM58.16,8.36s0,.02-.01.02c0,0,0,0,0-.01,0,0,.02,0,.02-.01ZM60.68,6.69s0,.01,0,.02c0,0-.01-.02-.02-.03,0,0,.02,0,.03,0ZM53.32,8.05s0,0,0,0c0,0,0,0,0,0,0,0,0,0,0,0ZM20.89,24.47s0,0,0,0h0s0,0,0,0ZM17.26,27.26c-.03.11-.09.13-.16.11.06-.03.11-.07.16-.11ZM8.68,35.98h0s0,0,0,0h0s0,0,0,0h0s0,0,0,0h0ZM2.87,52.13s0,0,0,0c0,0,0,0,0,0-.04-.1-.26.03-.31-.08.05.11.27-.01.31.08ZM19.84,101.97s0,0,0,0c0,0,0,0,0,0h0s0-.03,0-.04c.01.01.02.03.03.04,0,0-.02,0-.02,0ZM27.57,109.34s.01-.01.02-.02c0,0,0,.02.01.02,0,0-.02,0-.03,0ZM46.12,116.41c-.13.25-.33.18-.53.12-.03-.01-.06-.02-.09-.03-.14-.38.22-.38.39-.53.05.03.09.05.14.09.11.08.19.19.09.36ZM47.84,116.87c.17-.06.33-.23.52-.17-.19-.06-.35.11-.52.17,0,0,0,0,0,0,0,0,0,0,0,0ZM47.83,116.87s0,0,0,0h0s0,0,0,0c0,0,0,0,0,0,0,0,0,0,0,0h0s0,0,0,0h0s0,0,0,0c0,0,0,0,0,0h0s0,0,0,0h0s0,0,0,0h0s0,0,0,0c0,0,0,0,0,0h0s0,0,0,0c0,0,0,0,0,0h0s0,0,0,0h0ZM46.92,117.15h0s0,0,0,0h0ZM47.44,117.08c.03-.15.17-.21.36-.23h0c-.18.02-.32.08-.36.23ZM50.38,113.55c-.62-.14-1.21-.45-1.87-.44-.11-.04-.22-.08-.33-.12-.4-.14-.8-.24-1.22-.25-.01,0-.02,0-.03,0-.89-.29-1.77-.61-2.69-.8-.07-.04-.14-.07-.21-.09-.15-.06-.31-.11-.46-.15-.45-.12-.91-.18-1.34-.35-.03-.01-.06-.02-.09-.03-1.65-.55-3.3-1.11-4.95-1.64-2.04-.66-3.99-1.55-6.06-2.13-.07-.06-.15-.1-.23-.15-.42-.26-.87-.45-1.35-.59-.03-.01-.07-.03-.1-.03-.5-.36-1.1-.5-1.65-.74-.02,0-.03-.01-.05-.02-1.11-.75-2.23-1.49-3.34-2.24-.04-.01-.07-.03-.11-.05-.2-.12-.3-.35-.47-.5-.03-.03-.06-.05-.1-.07-.13-.09-.25-.18-.38-.27-.05-.08-.1-.14-.17-.2-.23-.22-.55-.35-.75-.61-.05-.06-.1-.13-.13-.22-.12.35-.16.63-.04.8h0s0,0,0,0c0,0,0,0,0,0-.12-.17-.08-.45.04-.8-.17-.18-.34-.35-.5-.53-.01-.01-.02-.03-.04-.04-.23-.27-.47-.54-.7-.8-.06-.06-.11-.13-.17-.2-.82-1.02-1.5-2.14-2.18-3.25,0-.02-.02-.04-.03-.06-.08-.17-.16-.33-.23-.5-.05-.11-.1-.22-.15-.33-.39-.95-.79-1.89-1.18-2.84,0-.03-.01-.05-.02-.08-.05-.2-.03-.42-.08-.62-.02-.09-.06-.17-.11-.24,0-.04,0-.07-.03-.1,0-.02,0-.04,0-.06,0-.23-.12-.45-.07-.68,0-.05.03-.1.05-.15.95.71,1.87,1.46,2.87,2.09.45.28.97.37,1.24.93.14.29.61.22.95.19.01.05.03.11.05.15.3.79,1.23.85,1.77,1.36.09.09.36.09.48.28.02.04.04.08.05.13l.63.4c.05.06.11.11.17.16.25.18.57.26.81.46.02.01.03.02.05.04.91.52,1.81,1.03,2.72,1.55.02.05.04.08.07.12.11.12.29.12.41.13.53,0,.68.69,1.22.64.37-.02.44.39.71.51.02,0,.04.02.07.03.18.18.45-.02.63.14.02.09.05.16.1.22.07.1.16.16.28.16.46,0,.74.27,1.04.56.17.16.38.28.62.33.02,0,.03,0,.05.01h0s.07.04.1.06c.32.16.61.37.93.51.08.03.17.07.26.09,1.03.64,2.24.89,3.31,1.45.87.45,1.77.78,2.66,1.15.05.05.1.09.16.13.13.08.28.13.43.17,0,0,.01,0,.02,0,.74.25,1.45.58,2.22.74.05.03.1.06.15.09.58.33,1.23.46,1.86.66.15.05.31.1.46.16,1.66.29,2.86,1.42,4.2,2.31,2.41,1.6,4.96,2.93,7.57,4.16,1.83.87,3.73,1.56,5.64,2.23.08.03.16.06.23.1h0c.12.06.23.13.34.22-.31-.04-.63-.07-.94-.13-4.37-.77-8.75-1.51-13.08-2.5ZM78.78,116.68c-2.38-.55-4.75-1.16-7.09-1.88-.39-.12-.77-.26-1.16-.4.08-.04.17-.08.25-.12,2.73.65,5.48,1.26,8.19,1.99,1.5.4,2.98.88,4.48,1.27-.08.04-.16.08-.25.12-1.48-.33-2.96-.64-4.43-.98ZM125.21,117.38c-.17-.02-.34-.03-.51-.02-.04,0-.09,0-.14.01-.18.02-.36.06-.53.13-2.97.09-5.93.29-8.89.5-2.9.2-5.81.45-8.71.44-2.41,0-4.79-.57-7.17-.98-3.1-.54-6.18-1.19-9.24-1.94-1.18-.29-2.36-.57-3.55-.86-.17-.07-.34-.13-.51-.2-.47-.18-.94-.34-1.44-.41-.13-.02-.26-.04-.39-.04-.49-.44-1.15-.44-1.72-.59-1.25-.34-2.47-.82-3.74-1.06-.08-.05-.16-.09-.24-.11-.26-.07-.54-.03-.79-.12-.04-.01-.08-.03-.12-.05-.26-.09-.51-.17-.77-.26-.09-.06-.19-.09-.29-.1-.27-.05-.57.02-.84-.07-.06-.02-.12-.05-.17-.08-1.82-.58-3.66-1.06-5.55-1.3-.15-.09-.3-.15-.46-.21-.48-.17-1-.23-1.5-.37-.6-.17-1.22-.28-1.83-.41-.04,0-.09-.02-.14-.03-.72-.18-1.45-.36-2.17-.53-.05-.02-.09-.04-.14-.06-.43-.18-.87-.31-1.32-.43-.59-.16-1.22-.22-1.78-.5-.01,0-.03-.01-.04-.02h0s-.08-.05-.12-.07c-.36-.18-.75-.25-1.15-.3-.05,0-.1-.01-.15-.02-2.61-.93-5.28-1.66-7.93-2.45-.49-.15-.88-.41-1.25-.77-1.68-1.61-3.29-3.28-4.98-4.88-.55-.52-1.03-1.15-1.54-1.73-.37-.42-.77-.8-1.18-1.18,0-.01-.02-.02-.02-.03-.09-.13-.17-.26-.26-.39-.03-.04-.05-.08-.08-.11-.22-.26-.44-.51-.66-.77,0-.02-.01-.03-.02-.04-.19-.43-.66-.57-.97-.89-.2-.21-.14-.57-.39-.72-.04-.03-.09-.05-.15-.06-.42-.27-.44-.83-.81-1.14,0-.02,0-.04-.01-.06-.05-.26-.24-.43-.38-.62-.03-.04-.06-.08-.09-.13-.14-.32-.3-.62-.54-.89,0-.01-.01-.03-.02-.04-.37-1.06-1.09-1.93-1.53-2.96-.05-.08-.11-.16-.16-.23-.28-.25-.36-.61-.47-.94-.05-.08-.1-.16-.15-.24-.1-.49-.41-.87-.66-1.28-.09-.08-.21-.15-.27-.25-.51-.93-.96-1.9-1.43-2.85-.45-.89-.85-1.83-1.27-2.75-.14-.52-.41-1.01-.23-1.58.05-.17-.07-.32-.26-.38h0c-.08-.06-.1-.15-.09-.23.02.08.04.16.09.24.03-.38.18-.75.02-1.14-.25-.6-.21-1.24-.19-1.87,0-.3.05-.6-.07-.89.04-.12-.02-.2-.13-.25.06-.94-.15-1.88-.04-2.83-.03-.01-.06-.02-.1-.03h0s0,0,0,0c0,0,0,0,0,0-.02,0-.04,0-.05.02.02-.01.04-.02.05-.02h0c0-.19-.01-.39-.02-.58,0-.18-.01-.37-.02-.55-.02,0-.04-.02-.06-.04.03-.02.06-.04.09-.06.01-.04.02-.08.03-.12.06-.26.06-.52.04-.78-.05-.53-.19-1.05-.08-1.58,0-.05.01-.09.01-.14,0-.1.01-.2.1-.28.14-.25.19-.5.16-.8-.04-.42-.01-.84-.02-1.26h0c.06-.61.23-1.21,0-1.82.25-.26-.06-.59.09-.86,0-.02.01-.03.03-.05.05-.13-.03-.3.14-.39.06-.01.1-.05.12-.08.03-.05.03-.11.02-.16-.12-.52-.08-1,.14-1.46.04-.08.08-.15.12-.22.31-.27-.37-.52-.01-.79.04-.05.1-.11.07-.17,0,0,0,0,0-.01.01-.05.02-.09.03-.14.05-.36-.04-.75.09-1.1.03-.07.06-.14.11-.2,0,0,0-.01.01-.02.03-.05.06-.09.08-.14.25-.48.23-1.02.27-1.54,0-.01,0-.03,0-.04.13-.56.27-1.11.4-1.67.03-.09.07-.18.11-.27.14-.32.29-.64.22-1.01-.01-.06-.03-.12-.05-.18,0,0,0,0,0,0,.01-.02.02-.05.03-.07.2-.41.4-.83.6-1.24.04-.08.07-.16.11-.23.4-.95.63-1.98,1.23-2.85.16-.22.23-.51.34-.76.02-.09.06-.18.09-.26.14-.36.36-.68.62-.98.03-.04.06-.09.08-.14.04-.1.07-.22.11-.32.04-.09.09-.17.13-.26.03-.09.08-.17.14-.25.09-.12.18-.25.23-.39.02-.04.03-.09.04-.14.68-1.5,2.11-2.2,3.33-3.12,1.54-1.16,3.12-2.26,4.68-3.38.05-.01.09-.03.14-.04.25-.08.47-.21.65-.4.05-.05.1-.11.14-.17h0s.02,0,.02,0c.22-.05.42-.13.58-.27.05-.04.09-.08.13-.14.33-.25.76-.34,1.06-.65.03-.01.05-.02.07-.04.46-.22.8-.64,1.26-.87.11-.05.22-.1.34-.13.31-.21.62-.43.93-.64.04-.01.07-.02.11-.04.24-.08.48-.16.67-.31.05-.04.11-.09.15-.14.07-.06.15-.12.22-.18.03-.01.05-.03.08-.04.47-.26.85-.66,1.35-.86.09-.04.19-.07.29-.09.63-.46,1.39-.72,1.92-1.31.04-.02.08-.04.12-.06,1.08-.53,2.08-1.21,3.18-1.7.15-.07.3-.13.45-.19h0s.05-.01.08-.02c.27-.07.46-.29.7-.42.05-.03.1-.05.15-.07.34-.18.68-.36,1.01-.54.02,0,.03,0,.05,0,.14-.02.28-.06.39-.14.03-.02.07-.05.1-.08.16-.1.33-.2.49-.29.03,0,.05-.01.07-.02.37-.1.69-.31,1-.52.04-.03.08-.05.12-.08,1.29-.65,2.59-1.3,3.88-1.95.03-.02.06-.03.09-.05.46-.24.98-.35,1.41-.64.05-.03.11-.07.16-.11.05-.04.1-.08.16-.12.03,0,.06.01.09.01.11,0,.21-.06.3-.12.29,0,.25-.42.53-.41.62.02,1.1-.35,1.64-.57.05-.02.11-.04.16-.06.13-.05.25-.11.38-.16.02,0,.05,0,.07,0,.26-.03.51-.09.72-.24.05-.03.09-.06.14-.1.54-.14,1.04-.35,1.43-.76.01,0,.02,0,.03,0,.38-.13.8-.07,1.17-.23.08-.04.16-.08.23-.14.08-.05.16-.1.23-.15.02,0,.04-.02.06-.03.26-.1.49-.26.71-.42.04-.03.09-.06.13-.09.17,0,.34,0,.51-.01.03,0,.07-.02.1-.03.56-.13,1.08-.34,1.6-.58.22-.09.44-.17.67-.26.33-.13.67-.27,1-.4.63-.15,1.24-.35,1.81-.67.28-.04.57-.04.8-.23.38,0,.6-.41.94-.42.68,0,1.27-.28,1.87-.54.2-.06.4-.11.61-.17.04.02.11,0,.19-.05.56-.37,1.2-.56,1.83-.75.34.19.67.03.97-.09.61-.23,1.3-.32,1.84-.64.51-.3,1.07.05,1.5-.31.24-.1.49-.21.73-.31.18.02.37.04.49-.14.18-.07.31-.26.52-.2.58.16,1.07-.11,1.58-.29.15.05.27.02.39-.04.04-.02.09-.05.13-.08.17.08.25-.1.38-.14.05,0,.1-.01.15-.02.38-.04.75-.1,1.11-.21.15-.04.29-.09.43-.14.69-.18,1.38-.35,2.06-.53.02,0,.05-.02.07-.02.47-.18,1-.11,1.47-.29.02,0,.03-.02.05-.02.03-.01.07-.03.1-.05.2-.12.42-.12.64-.14.03,0,.06,0,.08,0,.34,0,.66-.12.98-.23.17-.05.34-.09.51-.14.39-.08.85-.05,1.16-.25.53-.35,1.12-.31,1.68-.42.45,0,.88-.09,1.29-.25,1.06-.19,2.12-.39,3.18-.58.07-.01.14-.03.22-.04.04,0,.07,0,.1-.03.06-.01.13-.02.19-.03.63-.09,1.28-.08,1.88-.36.72.12,1.33-.36,2.02-.38.06,0,.13,0,.19,0,1.79-.09,3.54-.49,5.31-.72.52-.07,1.08,0,1.55-.31.06,0,.11,0,.17.01.26.02.52.07.77-.01.08-.03.16-.06.23-.12,1.78-.07,3.53-.39,5.3-.56,2.22-.21,4.43-.52,6.66-.67,2.81-.19,5.62-.48,8.43-.7,1.59-.12,3.18-.14,4.77-.3,2.05-.2,4.09-.12,6.13.02,2.34.17,4.68.37,7.01.58,3.36.31,6.67.96,10.01,1.38,1.6.2,3.21.42,4.8.65,2.9.41,5.78.97,8.64,1.59,4.61.99,9.22,2.02,13.79,3.15,2.37.59,4.78,1.15,7.01,2.21,1.1.52,2.13,1.19,3.21,1.76,1.25.66,2.38,1.54,3.69,2.1.58.24,1.05.72,1.66.95.03.03.05.05.08.08.39.4.83.73,1.29,1.04.1.06.2.13.3.19.36.42.96.52,1.3.87.63.64,1.45,1.07,1.92,1.86.08.03.14.07.2.13.1.11.17.25.29.34.02.01.03.02.05.03.43.36.85.71,1.28,1.07.02.01.05.03.07.04.44.27.72.83,1.36.72h0s0,0,0,0h0s0,0,0,0h0c0,.33.06.68.43.78.59.15,1.07.44,1.4.96.01.02.03.03.05.05.06.05.16.07.23.11.5.36,1,.72,1.51,1.09.03.04.06.08.09.12.11.14.21.28.43.28.45.23.69.81,1.3.78l.03.02s.09.05.13.08c.22.18.19.55.51.66.02.02.04.04.06.06.19.18.44.2.7.21,0,0,0,0,.01,0h0s.07.07.11.11c.16.18.24.41.3.65.25.11.35.7.78.25.29.08.1.47.37.55.1.12.2.24.31.36.55.41,1.17.76,1.61,1.26.29.33.83.35.93.85.04.04.09.08.13.11.35.26.7.52,1.05.78h0c.34.31.68.61,1.02.93.02-.03.03-.05.05-.07h0s-.04.05-.06.07c.49.13.96.29.97.92,0,.02.07.05.1.07.31.34.62.68.93,1.02.14.13.28.26.41.39.02.02.04.04.06.05,0,.04,0,.07.02.1.02.02.04.05.06.07.2.23.4.47.59.7h0s.06.05.1.04c.39.67.94,1.2,1.43,1.79.06.08.13.15.2.22.36.35.84.62,1.03,1.12.03.07.05.15.06.23.29.39.5.85.89,1.16.05.07.11.13.17.19.27.27.59.51.78.84.06.11.11.22.14.36.62.22.47,1.02.99,1.33.01.03.03.06.05.09.2.35.62.6.68.9.19.97,1.21,1.42,1.47,2.32.03.09.05.19.05.29.04.05.08.1.11.14.01.04.03.08.04.13.1.29.21.58.41.82.02.03.04.06.07.09h0s.06.06.09.08c.31.27.37.65.46,1.02.03.11.06.22.1.32.17.34.25.73.53,1.02.03.03.05.07.07.1.24.37.24.82.38,1.22.05.13.1.25.19.36.29.7.58,1.39.87,2.09,0,.03.01.06.02.1.11.62.5,1.13.64,1.73.06.12.12.23.18.35.19.53.39,1.06.58,1.6.05.15.11.3.16.45.11.31.22.62.34.92.02.05.03.09.05.14.08.95.55,1.79.81,2.7.47,1.67.87,3.35,1,5.08,0,.11.02.21.14.26,0,.03.01.07.02.1.26.97.04,1.98.26,2.97.26,1.21.33,2.46.44,3.7.05.54.41,1,.34,1.56h0c.03-.07.04-.15.06-.22-.02.08-.03.15-.06.22h0s0,.01,0,.02c-.02.16-.03.32-.02.47.01.23.05.46.11.68.05.2.11.4.17.6.21.65.08,1.3-.05,1.95-.05.25-.07.51-.1.76,0,.06-.01.11-.02.17-.11.6-.57.9-1.07,1.17-.85.46-1.7.93-2.55,1.39,0,0-.01,0-.02,0-.11,0-.21.04-.3.12-.01.01-.03.02-.04.04-.05.03-.1.06-.15.09-.05.03-.11.05-.16.08-.29.14-.58.29-.87.43-.03.02-.07.03-.1.05-.26.12-.53.25-.79.37-.02,0-.04.02-.06.03-.65.29-1.16.88-1.89,1-.04,0-.07.02-.11.02-.61.3-1.22.6-1.83.9h0c.16.23.49.34.51.79-.02-.45-.35-.56-.51-.79,0,0,0,0,0,0-.38.08-.72.25-1.02.49h0c-.55.07-.87.65-1.44.67,0,0,0,0,0,0,0,0,0,0,0,0,0,0,0,0,0,0-.19.02-.36.08-.5.22h0c-.33.08-.61.26-.89.44-.02,0-.05,0-.07,0-.25.03-.46.15-.68.26-.06.03-.12.06-.18.09-.42.18-.85.36-1.27.55-.02,0-.04.02-.07.03-.27.11-.54.21-.77.4-.03.02-.06.04-.08.07h0s0,0,0,0h0s0,0,0,0c-.18.19-.46.06-.66.16-.04.02-.08.05-.12.09-1.59.66-3.18,1.31-4.77,1.97-.02,0-.03.01-.05.02-.3.15-.64.19-.95.31-.11.04-.22.09-.32.16-.22.08-.43.17-.65.25-.03,0-.06,0-.09.01-.18.03-.34.12-.49.22l-.06.04c-2.63.95-5.27,1.91-7.9,2.86-.05.02-.1.03-.15.05-1,.34-2,.69-3,1.03-.07.02-.15.05-.22.07-.77.44-1.69.28-2.49.62,0,0,0,0,0,.01,0,0-.02,0-.03,0l-.05-.02-.02.02-.02.02c-1.06.22-2.12.44-3.18.66-.16.03-.33.07-.49.1-1.34.21-2.68.43-3.99.77-.06.02-.12.03-.18.03-.14,0-.28,0-.42.01-.11.01-.21.04-.3.11-1.13.15-2.24.36-3.36.61-.76.17-1.55.16-2.31.32-1.07.24-2.18.15-3.23.6-.41.17-.98.02-1.48.1-1.72.3-3.44.57-5.16.85-.04,0-.07.01-.11.02-.37.07-.75.04-1.11.11-.12.02-.24.05-.35.11-.58-.02-1.13.08-1.63.42-.23.16-.41-.15-.7-.1-2.65.49-5.32.85-7.96,1.4-2.3.48-4.64.61-6.93,1.15-.09.02-.18.04-.28.05-.46.09-.91.18-1.37.27-.01,0-.03,0-.05,0-.01,0-.03,0-.04.01-.1.02-.2.04-.3.06-.5.1-1,.19-1.5.29-.33.07-.69,0-.98.2-.05.04-.1.08-.15.13-.73.18-1.5-.04-2.21.26-.02,0-.03,0-.05,0-.13,0-.25,0-.36.05-.04.02-.08.04-.12.06-.7.05-1.39.18-2.07.39-.12,0-.23.02-.35.03-.27.03-.55.08-.81.15-.09.02-.19.05-.28.08-1.47.3-2.94.62-4.41.85-1.58.25-3.17.49-4.74.8-1.51.3-3.06.41-4.56.76-.59.14-1.2.29-1.82.31-.08.01-.16.02-.24.03-.38.04-.76.04-1.13.14-.11.03-.22.06-.32.1-.34.05-.68.1-1.02.15-.2,0-.39.01-.58.03-.39.03-.77.08-1.16.15-.12.02-.23.04-.35.07-1.7.29-3.41.49-5.12.67-.89.1-1.78.23-2.67.34-.04,0-.07,0-.11,0-.27.02-.53.03-.8.04-.07,0-.15,0-.22.01h0c-.08-.01-.15,0-.22.02-.04,0-.08.01-.12.02-.23.03-.45.08-.67.17-.02,0-.03,0-.05.02-.74-.17-1.47.02-2.2.06-2.08.11-4.16.27-6.24.41-.08,0-.17.03-.25.04ZM232.42,26s0,0,0,0c0,0,0,0,0,0,0,0,0,0,0,0,0,0,0,0,0,0,.07.06.18.07.3.08-.11-.01-.22-.03-.3-.08ZM239.64,30.96h0s0,0,0,0c-.34-.24-.49-.52-.4-.85-.1.32.05.6.4.85,0,0,0,0,0,0,0,0,0,0,0,0ZM228.24,23.44c.04.05.09.1.14.13.16.11.36.14.54.22.03.01.06.03.09.04h.02c.09.03.17.09.25.13,1.05.6,2.05,1.29,2.99,2.05.16.32.71.07.76.53,1,.82,2.02,1.62,2.98,2.48.91.82,1.74,1.71,2.61,2.56,0,.02,0,.05.02.06.88,1.13,2.2,1.86,2.87,3.18.04.08.11.12.19.14.08.02.18.02.27.02-.1.68.53.96.86,1.35,1.03,1.23,1.86,2.62,2.96,3.79.14.15.22.36.32.55-.02.04-.03.07-.05.11.03.03.05.07.08.1,0,0,0,0,0,0,0,0,0,0,0,0-.02-.03-.05-.07-.08-.1h0s-.04.08-.05.12c-1.05-1.19-2.11-2.37-3.31-3.4-.17-.15-.32-.36-.58-.36,0,0-.01,0-.02-.01-.56-.49-1.12-1-1.69-1.48-.97-.8-2.02-1.52-2.91-2.4-.86-.85-1.84-1.54-2.76-2.32-.18-.13-.35-.26-.53-.39-.68-.52-1.36-1.04-2.05-1.56-.16-.1-.31-.21-.47-.31-.03-.02-.06-.04-.09-.06-1-.73-1.99-1.47-2.99-2.2-.09-.07-.18-.15-.27-.22-.49-.39-.98-.79-1.47-1.18-.02-.01-.03-.03-.05-.04-1.55-1.31-2.95-2.79-4.61-3.98,2.05.71,4.06,1.52,6.02,2.44ZM250.31,105.48c.07-.11.08-.26.06-.54,0,0,0,0,0,0,.01.28,0,.43-.07.54ZM250.2,105.57c-.08.06-.2.12-.38.19.19-.08.3-.13.38-.19ZM252.19,89.76s0,0,0,0c0,0,0,0,0,0,0,0,.02.01.03.02-.01,0-.02-.01-.03-.02ZM258.93,76.75s0,0,0,0c0,0,0,0,0,0,0,0,0,0,0,0ZM258.55,78.75h0s-.05-.04-.07-.06c.02.01.05.03.07.06ZM258.22,78.32s.06.02.08.04c-.03-.02-.05-.03-.08-.04ZM258.2,78.31s-.06,0-.1,0c.03,0,.07-.01.1,0ZM258.41,79.96c0,.12-.06.16-.15.16.03-.06.08-.11.15-.16ZM260.49,99.53s0,0,0,0c0,0,.01-.02.02-.03,0,.01-.01.02-.02.03,0,0,0,0,0,0ZM241.34,100.16s0,0,.01,0c0,0,0,0-.01.01h0ZM246.63,34.96s0,0,0,.01h0s-.07,0-.11,0c.04,0,.08,0,.11,0ZM253.55,62.29s.03,0,.05,0c0,0,0,.01,0,.02-.02,0-.04,0-.05,0ZM254.05,46.77s0,0,0,0c.01.01.02.03.04.04-.01-.01-.02-.03-.04-.04ZM234.38,32.91c.08.33-.11.56-.27.81,0,0,0,0,0,0,.17-.25.36-.48.28-.81ZM234.39,31.78s0,.05,0,.07c-.03-.02-.05-.05-.09-.07.03,0,.05,0,.08,0ZM234.34,32.89s0,0,0,.01c0,0,0,0,0,0,0,0,0,0,.01-.01ZM238.73,38.07s0,0,0,0h0s-.02,0-.03.02c0,0,.01-.01.02-.02,0,0,0,0,0,0ZM223.87,101.42s-.02.01-.03.02c0,0,0,0,0,0,0,0,0,0,0,0h0s0,0,0,0c0,0,0,0,0,0,0,0,0,0,0,0h0s0,0,0,0h0s0,0,0,0h0s0-.02,0-.03c0,0,.02,0,.02,0ZM225.14,102.5s0,0,0,0c.02,0,.04,0,.06-.02-.02,0-.04.01-.05.02ZM224.74,102.49h0s0,0,0,0h0ZM224.75,102.49s0,0,0-.01c0,0,0,0,.01,0,0,0,0,0-.01,0ZM218.66,106.25s0,0,0,0c0,0,0,0,0,0,0,0,0,0,0,0,0,0,0,0,0,0ZM174.9,112.17s0-.05,0-.07c.01.01.03.02.04.04-.02.01-.03.02-.04.03ZM173.59,110.56s-.05,0-.07,0c.02,0,.03-.01.05-.02,0,0,.02,0,.02.01ZM168.51,116.73s-.04-.03-.06-.03c-.42-.21-.4-.23.03-.58.39.28.4.44.03.61ZM147.49,115.46c.02-.05.02-.1.03-.14.01.01.02.03.02.04.02.06-.01.08-.05.1ZM143.31,129.41s0,0,0-.01c0,0,0,0,0,.01,0,0,0,0-.01,0ZM169.92,122.19h0,0s0,0,0,0h0ZM169.91,122.18h0c-.12-.1-.25-.19-.37-.28.12.1.25.18.37.28ZM161.9,126.09h0s0,0,0,0c.3-.05.59-.1.88-.18-.29.09-.58.13-.88.18ZM163.47,124.79c.06.16.16.27.28.36.3.23.73.3,1.01.55h0c-.28-.25-.71-.33-1.01-.55-.12-.09-.22-.21-.28-.36ZM162.7,121.49s-.04,0-.06,0c0,0,0,0,0,0,.02-.03.03-.05.05-.08,0,.02,0,.05.01.07,0,0,0,0,0,.01ZM163.91,130.2s0,0,0,0c0,0,0,0,0,0,.03-.07.06-.15.05-.23,0,.08-.02.15-.05.23ZM181.98,128.93h0s.04.07.06.1c-.02-.03-.04-.07-.06-.1ZM175.29,126.33s0,0,0-.01c0,0,0,0,.01.01,0,0-.01,0-.02,0ZM181.98,128.93h0s0,0,0,0h0ZM182.28,126.32s0,0,0,0c.03.01.06.03.1.04-.03-.01-.07-.03-.1-.04ZM178.36,130.61s0,0,0,0c0,0,0,0,0,0,0,0,0,0-.01,0,0,0,0,0,.01,0ZM183.76,128.22c-.02.06-.04.12-.06.18-.03-.06-.02-.13.06-.18ZM198.37,127.25s0,0,0,0c.01.04.03.08.06.11-.03-.04-.05-.08-.06-.11ZM198.43,127.16s0,0,0,0c0-.06,0-.12,0-.18,0,.06,0,.12,0,.18ZM205.56,124.9h0s0,0,0,0c0,0,0,0,0,0ZM202.28,129.36s0,0,0,0c0,0,0,0,0,0,0,0,0,0,0,0ZM210.67,125.27s0-.02,0-.03c0,0,.02-.02.03-.03,0,.02.01.03.02.05-.01,0-.03,0-.04,0ZM211.74,125.94s.01-.01.02-.02c0,0,0,.02,0,.03,0,0,0,0,0,0ZM211.07,123.68s.07.03.11.09c-.04-.03-.07-.05-.11-.09ZM212.95,126.46h0s0,0,0,0c0,0,0,0,0,0,0,0,0,0,0,0ZM195.82,126.69s-.09.01-.13.02c0,0,0,0,0,0,0-.04,0-.08-.02-.13.04.02.07.05.11.08.02.01.03.03.04.04ZM198.12,130.88s0-.03,0-.05c.01.01.02.02.04.03-.01,0-.02.01-.03.02ZM205,128.4s0,0,0,0c.03.34.2.64.27.96-.07-.32-.24-.62-.27-.96ZM212.88,126.47c-.21,0-.43-.03-.63.02.2-.06.41-.03.63-.03,0,0,0,0,0,0,0,0,0,0,0,0ZM212.67,121.61c-.22.09-.42.2-.63.31-.04.02-.09.03-.13.04-.36.12-.75.19-1.03.49-.35.25-.81.18-1.16.4-.8.35-1.59.71-2.43.93-.11.03-.22.05-.33.08h-.05l-.04.04c-.11.04-.22.07-.33.11-.26.09-.51.19-.75.32-.04.02-.07.04-.11.06h0s-.06.02-.09.03c-.14.03-.31-.02-.42.12-.24.04-.5.05-.69.23h0c-.07.01-.15.02-.22.03-.14,0-.27.04-.39.1-.1.04-.2.09-.3.14-.36.17-.8,0-1.13.3-.01,0-.02,0-.03.01-.17.07-.36.08-.55.09-.17,0-.34.03-.5.1-.03.01-.06.02-.08.04h0s-.04.02-.05.03c-.33.21-.71.23-1.08.31-.06.01-.11.03-.17.04-.08.01-.17.02-.25.03-.08.02-.16.03-.25.05-.27.18-.53.31-.92.14,0,0,0,0,0,0,0,0,0,0,0,0,.39.17.65.03.92-.14-.06.01-.13.02-.19.03-.8.06-1.6.14-2.39.3-.15.03-.29.06-.44.09h0s-.03,0-.04,0c-.89.06-1.79.08-2.67.21-.43.06-.87-.16-1.28.06,0,0-.02,0-.03.01-1.68.1-3.35-.05-5.03-.03-.07-.02-.14-.03-.22-.05-.62-.13-1.25-.16-1.88-.2-.07,0-.15,0-.22-.01-.22-.02-.44-.03-.66-.06-.55-.07-1.11-.13-1.66-.06-.01,0-.03,0-.04,0h0c-.07-.05-.15-.07-.22-.07-.04,0-.07-.01-.11-.02-.67-.09-1.35.22-2.01-.03-1.33-.25-2.66.19-4.01.01-1-.13-2.02-.03-3.04-.02-.03,0-.05,0-.08,0-1.85-.05-3.7-.09-5.55,0-2.21.11-4.42.25-6.63.37-.49-.11-.98.1-1.49-.02-.02,0-.04,0-.06-.01.01,0,.02,0,.04-.01.45-.2.97-.06,1.39-.31,0,0,.02,0,.02,0,.23,0,.46,0,.68-.06.02,0,.04-.02.06-.02.05,0,.09-.02.14-.05.23.03.46.01.68-.03.59-.11,1.16-.38,1.77-.39.01,0,.02,0,.03,0,0,0,.02,0,.03.01.12.02.23.03.35.02h0,.09c.18,0,.36,0,.54-.03.1-.02.2-.05.29-.1,1.29-.16,2.59-.32,3.88-.49,2.11-.27,4.21-.54,6.32-.8.15-.02.31.02.41-.13.03,0,.07,0,.1,0,.43,0,.86,0,1.29-.1.62-.13,1.27-.14,1.9-.23.96-.15,1.94-.13,2.88-.39.07-.02.14-.04.2-.06,1.18.03,2.32-.2,3.47-.4.02,0,.04,0,.06,0,.15,0,.3,0,.45,0,.23.05.45.02.66-.11.66,0,1.31-.07,1.94-.28.26.04.52.05.78-.01.6-.17,1.24-.03,1.84-.21.04-.01.08-.02.11-.03h0c.16,0,.32,0,.48,0,.07,0,.15-.01.22-.03,1.33-.28,2.7-.27,4.03-.48.02,0,.04,0,.05,0,.32.08.59-.18.9-.15.11,0,.23.01.34.02.25.02.49.03.73-.02.18-.03.35-.1.52-.22.86-.22,1.74.05,2.6-.14.2-.05.43.01.6-.15.5,0,1-.05,1.5-.12.39-.05.78-.12,1.17-.18.14.02.31-.03.46-.07,1.43,0,2.82-.4,4.24-.51,0,0,.02,0,.02,0,.88-.08,1.75-.27,2.6-.51.08,0,.16,0,.24,0,.48,0,.94-.16,1.42-.23.1-.01.21-.03.31-.03,1.37-.26,2.74-.53,4.11-.79.14-.03.33-.11.44.07,0,.02-.11.11-.17.17-.04.02-.07.03-.11.05-2,.87-4,1.74-6,2.61ZM187.34,121.34s-.02.01-.03.02c0,0,0-.01,0-.02.01,0,.02,0,.04,0ZM175.66,119.97c.06-.16.12-.15.19-.08-.06.02-.12.05-.19.08ZM182.22,122.79s0,0-.01-.01c0,0,.01,0,.02,0,0,0,0,0,0,0ZM175.11,119.9s0,.01-.02.02c0,0,0-.01,0-.02,0,0,.01,0,.02,0ZM218.39,114.55h0s0,0,0,0c0,0,0,0,0,0,0,0,0,0,0,0,0,0,0,0,0,0h0s0,0,0,0h0s0,0,0,0h0s-.08.04-.11.05c.04-.01.08-.03.11-.05ZM217.09,122.11s-.04-.01-.07-.03c.02-.02.04-.03.06-.05,0,.03,0,.05,0,.08ZM218.4,114.54h0s0,0,0,0c0,0,0,0,0,0,0,0,0,0,0,0h0s0,0,0,0h0s0,0,0,0h0s0,0,0,0ZM212.59,116.08s.07-.07.11-.1c-.04.04-.07.07-.11.11,0,0,0,0,0,0ZM204.98,116.62s0,0,0,0c0,0,0,0,0,0h0ZM202.88,118.19c0-.07.01-.11.1-.12-.03.04-.07.08-.1.12ZM203.2,116.97c0-.12-.06-.25-.09-.37h0c.03.12.1.25.09.37ZM233.8,109.98h0s0,0,0,0h0s0,0,0,0c-.03.03-.06.06-.1.08.03-.02.07-.05.1-.08h0ZM235.24,109.61s-.05,0-.07,0c-.44.02-.85.13-1.25.31-.04.02-.08.03-.12.05-.03,0-.06.02-.09.02-.18.05-.37.1-.55.15-.1.03-.2.05-.29.08-.47-.03-.83.26-1.25.4,0,.01.01.03.02.04-.01,0-.02-.02-.03-.03,0,.03,0,.06,0,.09-.02-.03-.04-.06-.06-.09-.71.1-1.37.38-2,.68-.34.16-.67,0-.99.11-.23.07-.46.16-.69.23,0,0,0,0,0,0,0,0-.01,0-.02,0,0,0,0,0,0,0,0,0,0,0,0,0-.51.13-1.07.08-1.5.48-.06.02-.13.03-.19.05-.35.1-.7.24-1.05.24-.89.02-1.72.31-2.56.52-.15.04-.29.07-.44.11-.07,0-.15.02-.22.03-.01,0-.02,0-.03.01-.44.18-.95.16-1.37.39-.06.03-.11.06-.16.1h0s-.08.02-.12.03c-.42.05-.85,0-1.26.11-.11.03-.22.07-.33.12-.18.02-.36.02-.49.16-.03,0-.06,0-.09,0-.52.02-.97.28-1.48.36-.45-.05-.83.3-1.29.25-.77.14-1.54.27-2.31.41-.01,0-.02,0-.03,0-.89.22-1.85.14-2.7.56-.49.24-1.06-.02-1.58.17-.7.27-1.46.16-2.19.3-.07.02-.13.05-.2.08-.29.14-.57.3-.92.04-.1-.07-.34-.05-.46.1-.29-.11-.54-.05-.76.16-.33-.03-.67-.05-.98.09-.02,0-.03.01-.05.02h0s0,0,0,0h0c-.13-.03-.25-.04-.37-.05-.21-.01-.42,0-.63.03-.23.03-.46.09-.69.15-.43.09-.87-.03-1.29.13-.1,0-.19.02-.29.02-.62.04-1.23.05-1.84.19-.04,0-.07.01-.11.02-.16.05-.31.09-.47.14-.13-.03-.25-.05-.37-.05-.54-.02-1.07.21-1.62.17-.36.18-.77.02-1.14.16-.43-.08-.85-.06-1.24.12-.6.28-1.25.13-1.87.25h0c-.22,0-.48.01-.66.06-.39.09-.79.01-1.18.04-.14,0-.27.03-.4.08-.07.02-.14.05-.2.09-.12.52-.48-.07-.66.14-.02,0-.04,0-.06,0-.82-.14-1.62.03-2.41.25-.38-.03-.77-.01-1.15.04-.09.01-.17.03-.26.04-.06.01-.12.02-.18.03-.22,0-.45-.08-.65.1-.01,0-.03,0-.04,0-.52.14-1.07-.05-1.58.16-.01,0-.03,0-.04.01-1.16.12-2.32.17-3.45.47-.34.09-.72.05-1.08.06-.08-.02-.16-.02-.24-.02-.14,0-.28.04-.41.13-.56.14-1.13.07-1.7.13-.11.01-.22.03-.33.06-.07.02-.13.03-.2.05-.64.41-1.38.06-2.05.27-.38.01-.75.05-1.13.09-.39.04-.77.1-1.15.18-.19.04-.38.08-.57.12h0s-.09-.01-.13-.01c-.33,0-.63.22-.98.2-1.05-.07-2.06.15-3.08.34-.11.02-.21.04-.32.06-.1.02-.21.04-.31.05-.12,0-.24,0-.37.01-.18.03-.36.05-.54.08-.89.13-1.78.26-2.67.39-.07,0-.13.02-.2.03-.25.03-.47.21-.73.17-.03,0-.05,0-.08,0-.55.02-1.1.03-1.62.25h0s0,0,0,0h0s0,0,0,0c-.17,0-.34,0-.5.01-.04,0-.08,0-.11,0-.14,0-.27,0-.41,0-.09,0-.19.02-.28.04-.04.01-.09.03-.13.04-.47.25-1,.13-1.5.21-1.62.24-3.25.43-4.88.65-.29.04-.57.15-.85.22-.02,0-.03,0-.05,0-.4-.1-.8-.04-1.19.03-.16.03-.31.06-.47.08-3.19.31-6.38.61-9.58.79-1.64.09-3.22-.25-4.81-.52-1.95-.33-3.9-.71-5.85-1.06-.14-.03-.28-.08-.42-.21,1.98-.14,3.96-.26,5.93-.42,3.35-.27,6.69-.56,10.04-.85.96-.09,1.93-.08,2.88-.31h0c.7-.04,1.41-.05,2.11-.13.16-.02.32-.04.48-.07.1-.02.2-.03.29-.05.33-.22.7-.12,1.05-.13.94-.02,1.87-.07,2.79-.26,0,0,0-.01,0-.02,0,0,0,0,0,.01.26,0,.52.02.78,0,.26-.02.52-.06.77-.14.21-.07.76.16.31-.55.48.84,1.13.42,1.63.36.92-.12,1.89,0,2.76-.48.46-.25.95.11,1.45.03,1.46-.22,2.94-.35,4.4-.55,4.03-.54,8.06-1.08,12.06-1.78,1.9-.33,3.81-.61,5.68-1.06,1.25-.3,2.55-.4,3.77-.78.79-.25,1.63-.12,2.38-.49,0-.02.01-.04.02-.06,0,.01,0,.03,0,.05.31.07.55-.09.8-.23.04-.02.08-.05.12-.07.31.07.6-.02.89-.1.04,0,.08-.02.13-.03.22-.05.43-.1.65-.15.09-.02.19-.04.28-.06.21-.05.42-.1.63-.16.04,0,.08-.02.12-.03.99-.25,2.02-.36,3-.68.05-.02.09-.03.14-.05.22,0,.45.02.64-.14.02,0,.04,0,.07,0,.1,0,.19,0,.27-.06.02-.02.05-.03.07-.06.56-.21,1.23-.08,1.7-.58.17-.18.41.08.61.03.82-.21,1.65-.43,2.47-.64.03,0,.07,0,.1-.01.51-.06,1-.23,1.49-.38.12-.04.24-.08.36-.11.64-.18,1.29-.35,1.93-.53.02,0,.04,0,.06,0,.39-.03.75-.16,1.11-.3.08-.03.17-.06.25-.09h0s.07,0,.1-.01c.27-.06.48-.3.78-.24.01,0,.02,0,.03,0,.87-.26,1.73-.51,2.59-.77.01,0,.03,0,.05,0,.21-.04.42-.06.61-.15.05-.02.1-.05.15-.09,1.55-.34,3.1-.69,4.64-1.03.13-.03.26-.05.39-.08.6-.12,1.2-.24,1.8-.36.11-.01.22-.03.32-.05.5-.08.99-.22,1.47-.41,0,0,.01-.01.02-.02,0,0,0,.01,0,.02.56.1,1.06-.13,1.57-.29.04,0,.07,0,.1,0,.24-.01.49-.05.72-.1.16-.04.32-.09.48-.15.33-.3.82.05,1.15-.27.07-.01.13-.03.2-.04.41-.07.83-.11,1.24-.21.13-.03.27-.07.4-.13.04-.04.08-.08.12-.12.01,0,.03,0,.04,0,.49.04.94-.11,1.4-.23.04-.01.08-.02.12-.03.51-.12,1.02-.25,1.53-.37,0,0,0-.02,0-.02.01,0,.03,0,.04.01l.05.02.03-.04h0s0,0,0,0c2.3-.62,4.63-1.09,6.91-1.79,1.41-.43,2.85-.86,4.3-1.2.25-.06.48-.17.73-.25h0c-.12-.02-.27,0-.34-.09.07.09.22.06.34.08h0c.04-.07.1-.11.18-.11-.07,0-.13.03-.18.11.1.02.18.02.24-.07,0,0,.01-.02.02-.03.19.01.36-.05.5-.17.02,0,.03,0,.05,0,.27-.02.52-.11.76-.23.35-.09.72-.14,1.02-.37,0,0,0,0,0,0,0,0-.02-.01-.02-.02,0,0,.02,0,.03.01,0,0,0,0,0,0,1.33-.32,2.56-.95,3.88-1.31-1.2,1.15-2.26,2.41-3.53,3.47,0,0-.01,0-.02,0-.06,0-.1.03-.11.1h0c-.66.42-1.22.95-1.8,1.46-.01,0-.02.02-.03.02-.86.61-1.68,1.28-2.45,2,0,0,0,0,0,.01,0,0,0,0,0,0-.21.18-.42.37-.63.55-.03.02-.05.04-.07.06-.72.51-1.35,1.12-2,1.71,0,0,0,.01,0,.02,0,0,0,0-.01,0-.45.34-1.07.22-1.52.56ZM241.09,112.87s0,0,0,0h0s0,0,0,0c0,0,0,0,0,0h0s0,0,0,0h0ZM256.37,104.95s0,0,0,0c0,0,0,0,0,0,0-.01-.01-.02-.02-.03,0,.01.02.02.03.03h0ZM251.53,106.87s.02.01.03.02c0,0,0,.02-.01.03,0-.02-.01-.04-.02-.05ZM253.79,107.78c.18.22.54.3.54.67,0,0,0,0,0,0,0,0,0,0,0,0,0-.37-.35-.45-.53-.67ZM256.42,100.31c-.44.66-1.12,1.08-1.58,1.72,0,.02,0,.04,0,.06-.02,0-.03,0-.05,0-.51.42-1.03.83-1.55,1.25,0,0,0,0,0,0,0,0,0,0,0,0,0,0,0,0,0,0,.02.21.11.34.31.44-.21-.1-.29-.23-.32-.44-.88.67-1.92,1.05-2.86,1.59h0c-.08.03-.15.06-.23.1-.04.02-.09.04-.13.05-.19-.29.12-.35.23-.48.66-.7,1.4-1.31,1.99-2.07,0,0,0-.01-.01-.02.01,0,.02,0,.04,0,.13-.07.27-.12.32-.26,0,0,.01-.02.01-.03.91-.82,1.73-1.73,2.51-2.67,0,0,0,0,0,0,0,0,.01,0,.02,0,.5-.6,1.01-1.2,1.51-1.8,0,0,0-.02,0-.02.01,0,.03-.01.04-.02.41-.44.82-.89,1.15-1.4h0c.18-.43.42-.82.85-1.05,0,0,0,0,0,0-.44.23-.67.62-.85,1.05h0s0,0,0,0h0c.33-.31.62-.65.86-1.04,0,0,0-.01.01-.02.17-.14.3-.31.37-.51,0,0,.02-.02.02-.03.58-.57.92-1.33,1.55-1.86,0,0,0,0,0,0-.8.38-1.17,1.12-1.56,1.85.39-.73.76-1.47,1.56-1.85,0,0,0,0,0,0,0,0,0,0,.01-.01.04.01.08.03.12.04.04.01.07.02.11.04-.51,1.31-1.26,2.5-1.94,3.73-.03.04-.06.09-.09.13-.82,1.19-1.64,2.37-2.44,3.56ZM268.94,78.61c-.36.37-.76.91-1.22.87-.31-.03-.27-.79-.32-1.21-.17-1.32-.64-2.57-.8-3.89,0-.01,0-.02,0-.03-.03-.31-.43-.48-.36-.81.1-.52-.17-.95-.3-1.41-.02-.06-.03-.11-.04-.17-.01-.06-.02-.13-.03-.2,0-.04,0-.07-.04-.09-.01-.02-.02-.04-.04-.05-.14-.2-.3-.39-.33-.65-.03-.23.11-.48-.05-.69-.02-.02-.04-.05-.06-.07-.53-1.4-1-2.82-1.62-4.18-.48-1.05-.74-2.21-1.41-3.17-.2-.28-.08-.63-.23-.92-.03-.08-.07-.16-.1-.24-.05-.13-.11-.26-.16-.39-.04-.1-.08-.19-.12-.29-.52-1.29-.98-2.62-1.58-3.87-.37-.77-.51-1.64-1-2.36-.02-.04-.04-.08-.06-.12-.15-.31-.29-.62-.44-.94-.01-.03-.03-.06-.04-.09-.17-.77-.54-1.47-.88-2.18-.38-.8-.79-1.59-1.14-2.41-.12-.28-.39-.44-.45-.73,0-.02-.01-.05-.02-.07-.07-.27-.18-.52-.35-.74-.2-.46-.38-.93-.77-1.28,0-.25-.14-.45-.24-.66-.45-1.01-1.18-1.84-1.68-2.82,0-.01-.02-.03-.02-.04-.12-.14-.33-.16-.4-.38-.29-.89-.89-1.59-1.42-2.34-.55-.78-1.28-1.42-1.71-2.29-.07-.07-.13-.14-.19-.22-.26-.33-.46-.72-.83-.96,0,0,0,0-.01,0,0,0,0,0,0,0-.06,0-.14-.02-.18.01.04-.03.11-.01.18-.01,0,0,0,0,.01,0-.17-.22-.34-.44-.51-.66-.39-.47-.77-.95-1.16-1.42-.3-.28-.59-.56-.82-.9-.03-.05-.07-.1-.1-.15-.17.3-.03.63-.04.99h0s0,0,0,0c0,0,0,0,0,0,.01-.35-.12-.69.05-.99-1.04-.87-1.67-2.12-2.76-2.94-.03-.03-.06-.06-.09-.09-.47-.51-1.04-.91-1.58-1.35-.31-.55-.93-.79-1.27-1.32-.3-.37-.67-.64-1.07-.89-1.42-1.32-3.1-2.26-4.68-3.36-.5-.43-1.03-.8-1.65-1.05,0,0,0,0-.01,0,0,0,0,0,0,0h0s0,0,0,0h0,0s-.06-.07-.09-.09c-.02,0-.04,0-.06,0-.05-.03-.1-.06-.15-.09-.59-.36-1.18-.71-1.77-1.07-.09-.05-.18-.11-.27-.16-.14-.15-.32-.21-.5-.27-.08-.04-.15-.09-.22-.14-.24-.17-.47-.35-.8-.26,0,0-.01,0-.02,0,0,0,0,0,0-.01-.1-.17-.23-.3-.42-.36-.03,0-.06-.02-.09-.03-.96-.54-2-.88-3-1.34-2-.91-4.04-1.69-6.08-2.51-.61-.24-1.3-.23-1.84-.65.04-.02.08-.05.13-.07.05-.03.1-.06.16-.09,1.3.34,2.6.66,3.89,1.01,1.37.37,2.73.77,4.11,1.13,1.7.44,3.38.97,5.04,1.56.26.09.54.14.81.21.16.06.33.12.49.18.94.34,1.87.68,2.81,1.01.01,0,.02,0,.04,0,0,0,.02,0,.03,0,.1.09.22.15.36.13.09.03.17.06.26.1,2.38.88,4.76,1.75,7.14,2.63.24.18.54.15.81.22.21.08.38.29.64.26.39.14.77.28,1.16.42.07.17.18.29.38.26.68-.08,1.18.3,1.69.66.59.27,1.29.31,1.75.85.05.06.2.03.31.05.22.1.43.19.65.29.05.03.1.06.15.09.39.18.77.36,1.16.55.05.12.16.1.26.11.13.04.26.09.39.13.23.4.77.18,1.03.51.3.19.69.2.93.5.08.14.21.22.36.28.3.19.75.09.93.5.04-.03.07-.07.09-.11,0,0,0,0,0,0-.03.04-.05.08-.09.11.33.2.62.48,1.03.54,1.25.87,2.5,1.73,3.74,2.6.29.3.93.18.97.8,0,.04.14.07.21.1.48.28.88.7,1.33.98.47.28.88.59,1.27.95-.05.18.07.28.19.37.85.7,1.7,1.39,2.54,2.09.02.01.04.03.05.04.31.23.71.39.68.89,0,.06.1.18.16.18.86.04.77,1.18,1.53,1.33.21.64.85.92,1.2,1.45.51.57,1.27.91,1.57,1.68.04.07.07.16.13.22.78.78,1.68,1.46,2.13,2.52.04.1.13.31.33.14.25.09.27.28.24.5-.04.21.09.32.24.41.51.17.85.48.84,1.06,0,.09.03.18.08.24.03.04.08.08.13.11-.05-.08-.05-.16-.03-.24.01.08.02.16.03.24.05.08.1.16.15.24.02.02.03.05.05.07.07.1.14.2.21.3.04.05.08.11.11.16.29.44.59.88.88,1.32.03.03.04.07.06.1.11.26-.03.58.14.83.02.03.05.06.08.09,0,0,0,.02,0,.03.08.23.13.48.3.66.03.03.06.05.09.08,0,.01.01.03.02.04.29.51.11,1.13.36,1.65.04.09.09.17.13.26,0,.22-.04.45.01.67.02.09.05.17.1.25.36,1.06.09,2.14.13,3.2h0s0,0,0,0c-.04.14-.06.28-.08.43-.05.45-.02.9-.12,1.34-.01.06-.03.13-.05.19-.03.08-.04.16-.04.24,0,.03-.01.06-.02.1-.06.32-.12.64-.18.97-.02.36.09.72,0,1.08,0,.02-.01.05-.02.07-.4.52-.59,1.11-.53,1.77,0,.1,0,.23-.06.3-.71.93-.99,2.07-1.47,3.11-.03.05-.05.1-.08.15-.18.36-.37.71-.55,1.07-.01.02-.02.04-.03.07-.26.47-.51.94-.77,1.42-.08.13-.15.26-.23.39-.07.13-.15.25-.22.38-.03.05-.06.1-.09.15-.79,1.24-1.5,2.54-2.38,3.71-.94,1.24-1.81,2.55-2.91,3.66Z"/>
      <polygon points="33.19 98.1 33.2 98.1 33.19 98.1 33.19 98.1"/>
      <polygon points="19.84 101.97 19.84 101.97 19.84 101.97 19.84 101.97"/>
      <polygon points="40.32 96 40.32 96 40.32 96 40.32 96.01 40.32 96.01 40.32 96"/>
      <polygon points="19.84 101.97 19.84 101.97 19.84 101.97 19.84 101.97"/>
      <polygon points="40.19 96.79 40.19 96.79 40.19 96.79 40.19 96.79 40.19 96.79"/>
      <polygon points="70.91 21.22 70.91 21.22 70.91 21.22 70.91 21.23 70.91 21.22"/>
      <polygon points="280.61 55.18 280.61 55.18 280.61 55.18 280.61 55.18 280.61 55.18 280.61 55.18"/>
      <polygon points="247.03 91.73 247.03 91.73 247.03 91.73 247.03 91.73"/>
      <polygon points="231.6 110.65 231.61 110.65 231.61 110.64 231.6 110.65"/>
      <polygon points="227.85 111.69 227.86 111.69 227.86 111.69 227.85 111.69"/>
      <polygon points="8.18 46.5 8.17 46.5 8.18 46.5 8.18 46.5"/>
      <polygon points="8.18 46.5 8.18 46.49 8.18 46.49 8.18 46.5"/>
      <polygon points="8.18 46.5 8.17 46.5 8.18 46.5 8.18 46.5"/>
      <polygon points="244.3 14.63 244.3 14.63 244.3 14.63 244.3 14.63"/>
      <path d="M94.5,13.06s0,0,0,.01c0,0,0,0,0,0h0Z"/>
      <polygon points="51.86 12.93 51.85 12.93 51.85 12.93 51.86 12.93"/>
      <path d="M238.74,38.07s0,0,0,0c0,0,0,0,.01,0,0,0,0,0,0,0Z"/>
      <polygon points="270.11 39.63 270.11 39.63 270.1 39.63 270.11 39.63 270.11 39.63"/>
    </g>
  </g>
</svg>