<?xml version="1.0" encoding="UTF-8"?>
<svg id="Camada_2" data-name="Camada 2" xmlns="http://www.w3.org/2000/svg" viewBox="0 0 357.78 113.16">
  <g id="Graphic_Elements" data-name="Graphic Elements">
    <path d="M357.35,100.93c-.61-.32-1.27-1.14-1.92-.61-1.11.9-2.34.79-3.52.65-4.2-.5-8.34,0-12.5.38-6.41.58-12.83,1.27-19.27,1.29-10.71.04-21.43-.1-32.14-.16-1.96-.01-3.93,0-5.89,0,.22-.33.44-.43.68-.49,3.65-.9,7.28-1.85,10.87-2.96,10.36-3.21,20.73-6.4,30.25-11.75,7.35-4.13,14.13-8.98,18.79-16.24,3.42-5.32,4.63-11.15,3.18-17.26-1.39-5.87-5.38-10.21-10.08-13.65-6.78-4.95-14.38-8.53-22.15-11.68-11.29-4.57-22.99-7.9-34.77-10.95-11.53-2.99-23.15-5.56-34.81-7.95-14.38-2.95-28.89-5.1-43.47-6.78-11.5-1.32-23.04-1.96-34.59-2.37-16.6-.59-33.21-.5-49.81.03-17.83.56-35.67.8-53.43,2.63-13.66,1.41-27.15,3.8-40.12,8.46-7.36,2.64-14.24,6.1-19.52,12.23-3.41,3.96-3.88,8.19-2.12,12.84,1.77,4.65,4.88,8.4,8.38,11.82,4.88,4.77,10.54,8.54,16.33,12.1,15.54,9.53,32.05,16.91,49.48,22.24,10.65,3.26,21.43,6.03,32.26,8.6,9.8,2.32,19.63,4.54,29.55,6.22,14.05,2.38,28.12,4.63,42.28,6.27.72.08,1.44.23,2.16.35-.41.28-.77.28-1.14.28-21.35.04-42.67-.67-63.98-2.04-14.52-.94-29.03-2.03-43.55-3.01-11.16-.75-22.32-1.5-33.51-.99-3.47.16-6.95.33-10.71.51.59.59,1.04.59,1.45.66,4.74.89,9.48,1.8,14.23,2.62,8.75,1.5,17.55,2.69,26.39,3.61,10.52,1.09,21.03,2.31,31.59,3.06,9.62.69,19.22,1.54,28.84,2.16,9.66.62,19.33,1.09,29.01,1.54,12.92.6,25.84.77,38.77.2,12.74-.56,25.47-1.36,38.16-2.64,3.56-.36,7.09-1.11,10.69-1.03,7.25.15,14.5.36,21.75.42,5.93.05,11.85-.03,17.78-.12,6.27-.09,12.56-.12,18.78-.95,11.98-1.6,24.03-2.37,36.05-3.51,2.8-.26,5.64-.35,8.36-1.14,1.97-.58,3.89-1.28,5.96-1.44.56-.04,1.13-.14,1.38-.75.14-.35-.13-.58-.39-.72ZM263.71,97.07c-8.35,1.58-16.73,2.91-25.17,3.84-3.36.37-6.74-.09-10.1-.21-13.77-.68-27.48-2.04-41.17-3.63-14.53-1.7-29.02-3.72-43.48-5.99-11.89-1.87-23.69-4.2-35.45-6.75-10.43-2.26-20.81-4.69-31.04-7.73-14.42-4.28-28.52-9.38-41.82-16.49-5.81-3.11-11.37-6.68-16.22-11.13-4.06-3.73-7.32-8.12-8.5-13.71-.84-3.98.4-7.2,3.63-9.69,4.05-3.12,8.71-5.03,13.47-6.7,11.13-3.9,22.65-6.04,34.33-7.36,14.51-1.64,29.09-2.06,43.67-2.39,11-.25,22-.59,33-.8,8.78-.17,17.57.02,26.35.23,8.91.22,17.82.6,26.71,1.31,9.69.77,19.36,1.82,28.98,3.28,8.9,1.35,17.81,2.6,26.67,4.23,9.4,1.73,18.74,3.72,28.05,5.91,6.85,1.61,13.66,3.37,20.41,5.35,10.4,3.06,20.73,6.38,30.22,11.75,5.54,3.14,9.42,7.87,10.59,14.25,1.26,6.85-1.21,12.61-6.27,17.24-5.96,5.47-12.99,9.19-20.44,12.2-14.99,6.06-30.56,9.99-46.4,12.99Z"/>
  </g>
</svg>