<?xml version="1.0" encoding="UTF-8"?>
<svg id="Camada_2" xmlns="http://www.w3.org/2000/svg" version="1.1" viewBox="0 0 359.5 131.4">
  <!-- Generator: Adobe Illustrator 30.2.1, SVG Export Plug-In . SVG Version: 2.1.1 Build 1)  -->
  <g id="Graphic_Elements">
    <g>
      <polygon points="314 111.9 314 111.9 314 111.9 314 111.9"/>
      <polygon points="289.2 114.3 289.2 114.3 289.2 114.3 289.2 114.3"/>
      <path d="M361.5,55.1c.4-4.2-.4-8.5-2.1-12.3h0c-.2-.5-.4-1.2-1.1-1.3,1-.8-2.5-5.1-3.4-6.1-.9-1.2-2-2.5-3.2-3.4-6.4-6.4-14.2-10.7-22.1-14.7h0c-5.9-2.5-12-5.5-18-7.3-2-.8-6-2.9-7.9-2.3-.2-.5-1-1.1-1.6-.9-.6.2-.9-.5-1.5-.4-3.4-1-7.1-1.5-10.6-2.1-.2.7-1,0-1.5.4-1.1.1-1.4-.9-2.4-.7-1.8-.7-3.7-.3-5.6-.8-.7-.3-.4.7-1,.4v.3-.3c-17.7-2.8-48-1.3-67-2.1-32.9-1.2-73.1-2-105.9,1.1-27.2,1.2-54.8,1.7-78.7,16.1-8,4.8-17,9.7-21.3,18.1-2.8,4-4.3,8.6-5.8,13.2-1.6,6.6-4,13.8-1.9,20.5,1.3,5.8,5.8,11.2,9.7,16,.6,1.8.3,3.9.9,5.8h0c.3,1.4.8,2.7,1.3,4,5,11,17.4,16.3,28.5,19.6,5.5,2.7,12.6,4.2,18.9,5.1h-.2c23.7,2.2,47.2,6.9,71,8.5,26.5-1,82.1,1.2,107.3,1.2,9.1-.5,18.2,0,27.2.3,8.8.4,17.7-2.5,25.3-6.4.8,0,1.3-.6,2.1-.8,7.2-3,14.4-6.7,21.1-11.2.7-.2,1.4-.4,2.1-.7h0c2.4-.8,5.2-1.2,7.4-2.4,2.2,0,4.1-1.8,6-2.7.6-.2.7-1.1,1.6-1.2.4-.4.9-.7,1.1-1.2,2.6-2.7,5.3-6,6.8-9.7.4,0,.4-.4.4-.6.1-1,.9-1.8.8-2.9,2.1-11.1,15.5-16.1,20.4-26.2h0c1.5-3,2.6-6.7,3-10.1h0v.2ZM326.3,28.5h0ZM354.4,36.3h0ZM355.7,40.6h0ZM355.7,40.8c0,.2.2.2.4.2-.1,0-.3,0-.4-.2ZM355.7,39.4h0ZM356.5,44.1h0ZM359.6,50.7h0ZM357.8,57.1h-.2.2ZM359.6,50.7h0ZM358.6,57.5h0ZM357.1,42.2s.1.1,0,.2v-.2ZM356,39.1h0ZM354.4,36h0s0-.2-.1-.3c0,.1,0,.2.1.3ZM349.7,33.5h0ZM349.7,33.5h0ZM349.9,34.1c-.1.2.4.5.4.4-.2-.1-.4-.2-.4-.4ZM351.6,34.5v-.3.3h0ZM349.2,61h0ZM340.9,39.3h0ZM337.2,33.5h0ZM337.4,33.6h0ZM337.5,33.5h0ZM334.6,32.7h0ZM334.6,32.7h0ZM334.6,32.7h0ZM338.7,38h0ZM351.4,54.9h0ZM346.3,42.3v.2-.2ZM345.6,42.3h0ZM348.1,45.7h.1-.1ZM345.6,42.3h0ZM350.2,54.2h0q0,.1,0,0h0ZM319.1,21.7c-.3-.1-.6-.3-.9-.4.3.1.6.3.9.4h0ZM308.8,19.6h0ZM307.2,20.4h-.1.1ZM341.9,24.5h0ZM342.5,26c0-.2-.2-.2-.6-.3h0c.5,0,.6,0,.6.3ZM342.1,26.8h0ZM344.3,29h0ZM346.2,28.1h0ZM342.7,26.7c0-.3-.3-.2-.5-.1.2,0,.4-.1.5.1h0ZM340.2,25.9h-.4.4ZM328.6,18.9h0ZM316.5,14.8h0ZM318.9,14.5h0ZM315.4,12.5h0ZM315.4,12.5c-.3.3-.8.2-1,.6h0c.2-.3.8-.3,1-.6ZM318.9,14.5h0v.4-.4h0ZM315.4,12.5h0ZM315.4,12.5h0ZM305.7,11.1c-.1-.1-.2-.1-.3-.2.1,0,.2,0,.3.2ZM291.6,7.1h0ZM291.6,7.1h0ZM291.6,6.6c.3.1.4.3,0,.5h0c.4-.2.3-.4,0-.5ZM284.2,6.4h0ZM267,6.2h0c5.4.1,10.7.5,16.1.9,7.6.7,15.3,1.8,22.5,4,1.5.4,2.9.9,4.3,1.4h.2c.3.2.6.2.9.2h0c.3.3.7.2,1,.4h0c.6.2,3.7,1.4,2.7.9.1,0,.3.2.4.3h0c8.1,3.4,16.2,6.4,23.5,11.2h0c11.9,7.5,22.4,20.9,16.3,35.9,2.5-15.9-17.7-30.1-30-37-5.8-3.3-12.2-5.4-18.7-7.8-3.7-1.5-7.5-2.6-11.3-3.7-9.2-2.8-18.6-4.7-28.2-6.7h.3ZM288.3,15h0ZM263.6,2.4v.2c-.2,0,0-.2,0-.2ZM259.9,2.6h0ZM111.2,10.3h0ZM103.5,12.4h0,0ZM101.8,11.8h0ZM100.6,11.6c0,.3,0,.7.3,1-.2-.3-.3-.7-.3-1ZM97.8,8.3c3.9-.8,7.8-1.3,11.8-1.2-13.8,2.5-27.7,6.3-40.4,11.4,8.7-5,18.6-8.3,28.6-10.2h0ZM76.8,9.5h0ZM73.5,15.5h0ZM92.3,13.8h0ZM93.9,14.2s-.2,0,0,.1c0,0,0-.1,0-.1ZM90.4,15.7h0ZM86.5,12.7h0ZM74.7,18.7h0ZM68.7,21.9h0ZM52,30.8h0ZM53.5,30.6h0ZM51.1,30.1c-.1,0-.2-.1-.3-.2h.2v.3h0ZM53.4,30.6h0ZM52,30.8h0ZM87.8,5.1h0ZM83.1,5.3h0ZM83.1,5.3h0ZM83.1,5.4h0ZM78.6,8.7h0ZM78.6,8.7h0ZM66.9,7.7h0ZM69.4,8.6h0ZM66.7,10.2c3.9-.5,8.1-1.2,11.8-1.5v.2c-.6.2-1.2.4-1.8.6-1.9.7-3.7,1.6-5.6,2.4-6.9,3.2-13.4,7.2-20.1,10.9-4.6,2.4-9.4,4.7-13.5,7.9-5.5,4.2-7.3,11.6-12.5,15.8-.3.7-1.2.8-1.5,1.5h0v.4-.4c-.4,0,0,.7-.4.8-.7.3-1.3,1.1-1.4,1.7,0,.4.3.8-.5.6-.6,0-.7,1.1-1,1.5-.1.2-.6.1-.5.5-1,1.7-2,3.4-2.8,5.2h0c-3.8,6.3-6.1,14.5-7.7,22-9.1-10.2-5.5-24.1-1.1-35.3h0c.2-.4.4-.9.5-1.3h0c.7-1.8,1.6-3.8,2.7-5.2h0c1.5-2.8,3.7-5.4,6.1-7.6,3.9-3.2,8.2-5.9,12.6-8.2h0c3.3-2,6.7-3.8,10.2-5.2h0s.2,0,.2-.1h0c.2-.2.5,0,.7-.3h0c.4-.6,1.1-.5,1.7-.7h0c7.3-3.6,15.4-5,23.5-6.4l.3.2ZM38,97.5h0ZM38,97.5h0ZM38.2,97.8h.1-.1ZM38.2,96.7h0ZM38,97.5h0v.4s-.1-.2,0-.4h0ZM38.5,101.3c.4.4.9.7,1.2,1,1.7,1.5-7.6-3-8.7-3.5,0,0,0,.2.1.2-5.6-3.9-13.3-7.2-17-13.2.6-3.3.7-6.8,1.6-9.9h-.2.2c1.9-6.9,4.5-14,8.5-20.3-.8,5.2-1.2,10-.9,15.2-.3,11.6,7.6,22.2,15.3,30.4h0ZM20.2,93.2c.2-.5.2-.6-.2-.7.4,0,.4.2.2.7h0ZM22.4,93.6h0ZM11.4,73.4h0q0-.1,0,0h0ZM13.4,67.1h0ZM28.8,64.4h0v-.4.4ZM11.9,72.8h0ZM13.3,73.5h0ZM13,80h0ZM13,80h0ZM14,79.2h0,0ZM12.5,76.6h0ZM13.6,80.3h0ZM12.6,73.3h0ZM18.2,65.6h0q0,.1,0,0h0ZM17.8,59.3v-.3s.1.2,0,.3ZM10.4,78.4h0ZM26.1,48.4h0ZM26.1,48.4h0c-.3-.2-.6,0-.8,0,.2-.2.5-.3.8,0ZM24.8,49.2h0ZM25.5,67.5h0ZM26.1,69.5v-.2.2c-.5,0-.7.5-1,.8.3-.3.5-.8,1-.8ZM27.7,75.9h0ZM24.3,74h0ZM27.3,69.4v.2-.2ZM23.3,51.3h0ZM23.3,51.4h0ZM23.8,69.3v.2h0v-.2h0ZM32.5,88.4h0ZM28.7,47h0ZM35.9,97.5h0ZM12.5,97.6h0,0ZM29,64.5h-.1.1ZM35,17h0ZM35,17h0ZM28.1,22.8h0ZM7.4,41.3h0ZM22.4,24.9h0c0-.1,0,0,0,0ZM15.9,31h0ZM3.9,61.7h0v-.3.3ZM4.9,47h0ZM4.6,52.1h0ZM.5,66.3H.5ZM6,47.2h0ZM7.4,41.3h0ZM-1.2,64.3h0ZM.4,66.3H.4c0-.3-.3-.6-.5-.8.2.2.3.5.5.8H.4c-.5,0-1-.3-1.4-.6.4.3.8.6,1.4.6H.4ZM3.6,65.1h0ZM52.1,13h.2-.2ZM49.6,13.7h0ZM49.6,13.7h0c-.1-.1,0-.3,0-.5v.5ZM49.7,13.6h0ZM60,11h0c0-.1,0,0,0,0ZM56,9.1h0ZM58.5,7.4h0ZM51.2,8.8h0ZM18.7,25.2h0ZM15.1,28q0,.1-.2.1s0,0,.2-.1ZM6.5,36.7h0ZM.7,52.8h-.3c0,.1.3,0,.3,0ZM17.7,102.7h0ZM25.4,110.1h0ZM44,117.1c-.5.5-1-.3-.2-.4.2,0,.4.2.2.4h0ZM45.7,117.6c.2,0,.3-.2.5-.2-.2,0-.3,0-.5.2h0ZM45.7,117.6h0ZM44.8,117.9h0ZM45.3,117.8c0,0,.4-.3.3-.2-.2,0-.3,0-.3.2ZM48.2,114.3c-9.5-2.9-20.7-4.7-28.1-11.7-.1.3-.2.6,0,.8h0c-1.4-3.5-5.5-7-5.4-11.3,1.7,1,3.2,2.9,5.1,3.2,3.3,3.3,8.1,5,11.9,7.4,10.4,4,19.8,9.8,30.2,14,.1,0,.2,0,.3.2-4.7-.7-9.4-1.6-14-2.6h0ZM76.6,117.4c-2.8-.7-5.6-1.3-8.2-2.3,4.3.5,8.7,2.1,12.9,3.1-1.5,0-3.1-.6-4.7-.9h0ZM123,118.1c-22.3,3.7-43.5-4.2-64.7-9.7-15.2-2.6-24.3-17.5-29.1-30.7,0,0-.1-.2,0-.2v.2c0-2.4-.6-4.6-.4-7h-.1v-1.1h0c.2-1.6.2-3.3.3-5h0c.3-1.1-.3-2.4.4-3.2,0-.6-.1-1.3.3-1.8.2-.4-.3-.5,0-1,.2-2.1,1.1-4.2,1.3-6.3h0c2.1-6.8,6.6-11.5,12.7-15,4.3-2.4,8.4-5.5,12.9-7.7,21.9-12,46.2-18,71.2-20.7,27.5,1.2,64-5,90.8,0,24.2.8,58-.6,76.1,18.1h0c.7,1.4,2.9,2.2,4.1,3.4.5.4.8.7,1.5.9.3.5.6,1,1.3.9.4.3.5,1.6,1.2,1,1.1,1.5,3,2.6,4.4,3.9.3.3.7.6,1,.9h0c1.3.6,2,2.3,3.1,3.3h.1c3.1,3.9,6.4,7.5,8.6,12,4.4,8.6,6.7,18.2,7.7,27.9h0v-.2.2h0c2.2,7-5.3,7.5-9.8,10.3h0c.2.2.5.3.5.8,0-.4-.4-.6-.5-.8-.4,0-.7.2-1,.5-.6,0-.9.7-1.4.7h0c-.2,0-.4,0-.5.2-1.3.6-2.8,1.1-4,1.8h0c-7.2,2.7-14.4,6-21.9,7.9h0c-29.4,4.8-58.5,10.8-88.2,14.8-4.7.6-75-.3-77.7.7h-.2ZM303.3,25.7h.3-.3ZM310.5,30.7h0c-.3-.2-.5-.5-.4-.9-.1.3,0,.6.4.9h0ZM299.1,23.2c5.4,2.6,9.6,7.5,13.7,11.5.8,2.1,3.3,3.7,4.1,5.8h0c-7.1-7.5-16.1-12.9-23.8-19.8,2.1.7,4.1,1.5,6,2.5h0ZM321.1,105.2v-.5h0v.5h0ZM321,105.3l-.4.2c.2,0,.3-.1.4-.2ZM323,89.5h0ZM329.8,76.5h0ZM329.4,78.5h0ZM329.1,78h0ZM329,78h-.1.1ZM329.2,79.7c0,.1,0,.2-.1.2,0,0,0-.1.1-.2ZM331.3,99.2h0ZM312.2,99.9h0ZM317.5,34.7h-.1.1ZM324.4,62h0ZM324.9,46.5h0ZM305.2,32.6c0,.3-.1.6-.3.8h0c.2-.2.4-.5.3-.8h0ZM305.2,31.5h0ZM305.2,32.6h0ZM309.6,37.8h0ZM294.7,101.1h0ZM296,102.2h0ZM295.6,102.2h0ZM295.6,102.2h0ZM289.5,106h0ZM245.7,111.9h0ZM244.4,110.3h0ZM239.3,116.4c-.4-.2-.5-.2,0-.6.4.3.4.4,0,.6ZM213.3,116.2h0c0,0,0,0,0,0ZM209.1,130.1h0ZM240.8,121.9h0ZM240.7,121.9c-.1,0-.2-.2-.4-.3.1,0,.2.2.4.3ZM232.7,125.8h0c.3,0,.6,0,.9-.2-.3,0-.6,0-.9.2ZM234.3,124.5c.2.6.9.6,1.3.9-.4-.4-1.1-.4-1.3-.9ZM233.5,121.2h0ZM234.7,129.9h0v-.2.2ZM252.8,128.6h0q0,0,0,0ZM246.1,126h0ZM252.8,128.6h0ZM253.1,126h.1-.1ZM249.2,130.3h0ZM254.6,127.9v.2-.2ZM269.2,127h0q0,0,0,0ZM269.3,126.9h0v-.2.2ZM276.4,124.6h0ZM273.1,129.1h0ZM281.5,125h0ZM282.6,125.7h0ZM281.9,123.4h.1-.1ZM283.8,126.2h0ZM266.7,126.4h-.1c0,0,.1,0,.1,0h0ZM269,130.6h0ZM275.8,128.1h0c0,.3.2.6.3,1,0-.3-.2-.6-.3-1ZM283.7,126.2h-.6.6ZM283.5,121.3c-2.2,1.1-4.7,1.8-7,2.8-.4,0-.9,0-1.2.4-1.1.3-2.1.6-3.2.8-.9.3-1.8.7-2.7.6h0c.4.2.6,0,.9,0-1,0-2,.2-3,.4-4.6.5-9.1,0-13.7,0-7.6-.4-15.5,0-23.2.2,1.7-.3,3.4-.7,5.2-.8,9.1-1.2,18.2-2.3,27.2-3.4,7.5-.8,15-1.5,22.4-2.8,1.4-.3,2.7-.5,4.1-.8.9.5-4.8,2.2-5.8,2.9h0ZM258.2,121.1h0ZM246.5,119.7c0-.2.1-.2.2,0h-.2ZM253.1,122.5h0ZM245.9,119.6h0ZM289.2,114.3h-.1.1ZM287.9,121.8h0ZM289.2,114.3h0ZM283.4,115.8h.1-.1c0,0,0,0,0,0ZM275.8,116.3h0ZM273.7,117.9s0,0,.1,0h-.1ZM274,116.7v-.4h0c0,0,.1.2,0,.4ZM304.6,109.7h-.1.1ZM306.1,109.3c-1.2.2-2.5.6-3.6,1h0c-1.2,0-2.5.9-3.7,1h0c-2.4.8-5.1,1-7.5,1.9-5.1.9-10.4,2.3-15.4,2.7-.6,0-1.2.2-1.8.3h0c-4,.2-8,.9-11.9,1.3-7.1.7-14.5,1.6-21.8,2.6-3.7.4-7.4.9-11,1.6h0c-21.8,4.6-81.1,1.7-104,1.3,11.6-.4,76.6.5,86.8-1.6,3.5-.2,8.2-1.5,11.7-1.6h0c.5,0,2.4.3,1.9-.7,10.8.3,23.2-2.6,34.1-4.8h0c6-1.3,11.9-2.7,17.9-4.4,4.2-1.4,8.7-2.1,13-3.2h0c3.1-.4,6-1.3,9.1-1.9h0c3.4-1.1,9.5-2.2,11.6-3.4h.3s.1-.1.2-.1c0,0-.1,0-.2.1.8-.3,1.9-.4,2.6-.9h0c1.3-.3,2.6-.9,3.9-1.3-1.2,1.2-2.4,2.5-3.7,3.6-1.5,1.1-2.9,2.3-4.3,3.5h0c-.9.8-1.9,1.5-2.7,2.3-.5.3-1.1.2-1.5.6h0ZM311.9,112.6h0ZM327.2,104.7h0ZM322.4,106.6h0ZM324.6,107.5c.2.2.5.3.5.7h0c0-.4-.4-.5-.5-.7ZM327.3,100c-.4.7-1.2,1.1-1.6,1.8-.6.3-1.1.8-1.6,1.2h0c0,.2.1.3.3.4-.2,0-.3-.2-.3-.4-.9.7-1.9,1.1-2.9,1.6-.1,0-.2.1-.4.2.2-1,1.7-1.6,2.2-2.6,1.1-.8,2-1.9,2.9-3,.5-.6,1-1.2,1.5-1.8.4-.4.8-.9,1.2-1.4.2-.4.4-.8.9-1.1-.4.2-.7.6-.9,1.1h0c1.6-1.4,3.7-5.4,1.2-1.6.4-.7.8-1.5,1.6-1.8h.2c-1.1,2.7-2.9,5-4.5,7.4h.2ZM339.8,78.3c-.8,1-1.6,1.3-1.5-.3-.4-2.2-1-4.3-1.5-6.5-4.7-12.1-8.9-25.2-17.4-35.2h-.2.2c-.8-1.1-1.8-2.1-2.6-3.1-.2.3,0,.6,0,1h0c0-.3-.1-.7,0-1-3.8-4.3-8.1-8.1-13.1-11h0c-1.3-.6-2.5-1.9-3.9-2.1-3.4-2.1-7.7-3.3-11.4-4.9,13,2.7,26.4,7.5,37.9,13.5,0,0,.1-.2,0,0h0c8.2,4.9,15.5,11.8,20.6,19.2v-.2c1.9,3,3.2,6.5,2.8,10.2h0c-.5,7.7-4.8,14.7-9.8,20.6h0v-.2Z"/>
      <polygon points="31 98.8 31 98.8 31 98.8 31 98.8"/>
      <polygon points="17.7 102.7 17.7 102.7 17.7 102.7 17.7 102.7"/>
      <polygon points="38.2 96.7 38.2 96.7 38.2 96.7 38.2 96.7 38.2 96.7 38.2 96.7"/>
      <polygon points="17.7 102.7 17.7 102.7 17.7 102.7 17.7 102.7"/>
      <polygon points="38 97.5 38 97.5 38 97.5 38 97.5 38 97.5"/>
      <polygon points="68.7 21.9 68.7 21.9 68.7 21.9 68.7 21.9 68.7 21.9"/>
      <polygon points="351.4 54.9 351.4 54.9 351.4 54.9 351.4 54.9 351.4 54.9 351.4 54.9"/>
      <polygon points="317.9 91.4 317.9 91.4 317.9 91.4 317.9 91.4"/>
      <polygon points="302.4 110.4 302.4 110.4 302.4 110.4 302.4 110.4"/>
      <polygon points="298.7 111.4 298.7 111.4 298.7 111.4 298.7 111.4"/>
      <polygon points="6 47.2 6 47.2 6 47.2 6 47.2"/>
      <polygon points="6 47.2 6 47.2 6 47.2 6 47.2"/>
      <polygon points="6 47.2 6 47.2 6 47.2 6 47.2"/>
      <polygon points="315.1 14.3 315.1 14.3 315.1 14.3 315.1 14.3"/>
      <path d="M92.3,13.8h0Z"/>
      <polygon points="49.6 13.6 49.6 13.6 49.6 13.6 49.6 13.6"/>
      <path d="M309.6,37.8h0Z"/>
      <polygon points="340.9 39.3 340.9 39.3 340.9 39.3 340.9 39.3 340.9 39.3"/>
    </g>
  </g>
</svg>