<?xml version="1.0" encoding="UTF-8"?>
<svg id="Camada_2" xmlns="http://www.w3.org/2000/svg" version="1.1" viewBox="0 0 438.7 93.9">
  <!-- Generator: Adobe Illustrator 30.2.1, SVG Export Plug-In . SVG Version: 2.1.1 Build 1)  -->
  <g id="Graphic_Elements">
    <path d="M436.8,55.8c-1.7-1.9-3.7-3.5-5.9-4.7-12.2-6.5-25.1-11.2-38.3-15-14.8-4.2-29.9-7.2-45-10.2-5.5-1.1-11-2.1-16.5-3.2-1.1-.1-2.2-.3-3.3-.5h0c-.3-.1-.6-.2-1-.4-.2,0-.5-.2-.7-.3,1.1-.1,2.2,0,3.3.1.6,0,1.2.1,1.8,0,.1,0,.2.2.3.2h.1s.1,0,.1,0c1-.1,2,0,3,.2.2,0,.3,0,.5.1,5.7.5,11.4,1.2,17.1,1.9,9.6,1.2,19.2,2.7,28.8,4.5,7.6,1.4,15.1,3,22.5,5.3,3.2,1,6.3,2.1,9.4,3.2,1.5.5,3,1.2,3.9-.9,0-.1.2-.2.4-.2,1.8-1.2,1.8-3-.2-3.9-3.5-1.7-7-3.3-10.6-4.8-7.4-2.9-15.3-4.1-23.1-5.6-12.8-2.6-25.7-4.7-38.7-6.6-4.8-.7-9.5-1.4-14.3-1.7-.3-.2-.6-.2-1-.2-3.5-.3-7-.7-10.4-1-13.6-1.2-27.3-2.3-41-2.5-5,0-9.9-.3-14.9,0-10.1.6-75.1-1.2-85.1-2.3-12.9-1.5-25.8-2.8-38.7-3.8-18.6-1.4-37.1-2.7-55.8-3.2-13.7-.3-27.4-.7-41.1.1-5.5.4-11,.9-16.3,2.2-.4,0-.9,0-1.1.6.4,0,.8.2,1.1.3,8.2,1.7,16.6,2.9,25,3.6,11,.9,22.1,1.6,33.2,2.3,10,.6,20,1.1,30,2.1,4.5,0,9,.7,13.5,1,.8,0,1.5.1,2.5.2-.2.2-.3.3-.5.3-.7.3-1.5,0-2.1.4-3.5.4-7.1.8-10.6,1.1-.6,0-1.2.3-1.8,0-1.3.2-2.6.4-3.9.6-18.5,2.5-36.8,5.4-54.8,10.4-11.4,3.1-22.5,7.2-32.9,12.9-5.7,3.2-10.8,7-14.4,12.5-4.6,7.2-3.8,11.1,2.2,15.9,5.4,4.2,11.5,7.3,17.8,9.9,8.7,3.6,17.8,6,26.9,8,4.1.9,8.2,1.8,12.3,2.2.8.4,1.8.5,2.7.6,16.9,2.4,55.9,3.7,72.9,4.8,29.9,1.9,114.9,1.5,144.8.6,18.8-.5,15.5-1.7,34.2-3.3,19.3-1.7,38.6-3.2,57.8-5.9,13.6-1.9,27.2-3.9,40.4-8.1,2.8-.9,5.7-1.7,8.2-3.3-.2.1-.5.1-.8.1.2,0,.5,0,.8-.1,3.5-1.7,6.2-4.3,8.2-7.6,1.9-3.2,1.6-6.7-.6-9.2h0ZM350.5,35.4c-.2,0-.4,0-.5-.1.2,0,.3,0,.5.1ZM265.6,21.2c-.2,0-.3,0-.4,0,.1,0,.3,0,.4,0ZM57.3,76.3c-9.6-1.6-19.1-3.8-28.2-7.2-3.1-1.2-5.8-2.9-7.8-5.7-1.4-2-1.4-3.9-.6-6.1,1.3-3.4,3.9-5.5,6.9-7.2,5.6-3.4,11.6-6.2,17.7-8.7.5-.2,1-.5,1.4-.7.2,0,.5,0,.7-.1,8.7-3.4,17.6-6,26.6-8.1,16.9-3.9,34.1-6.3,51.3-8.5,22.5-2.8,45.1-3.6,67.8-4.2,6.7-.2,68.2,1.2,74.8,2.1,13.9,1.9,27.8,4.1,41.6,6.5,14.8,2.5,29.5,5.1,44.2,7.9,3.1.6,6.3,1.2,9.4,1.7,6.5,1.4,13,2.8,19.5,4.3,11.4,2.6,22.6,5.7,33.5,9.9,1.8.7,3.6,1.6,5.4,2.4,1.3.7,2.4,1.6,3.3,2.8,1.6,2.1,1,4.4-1.3,5.5-4.4,2.1-9.1,3.3-13.9,4.4-19.7,4.2-39.6,6.7-59.6,8.5-14,1.3-28,2.2-42,3.4-24.5,2-82.1,2.6-106.7,3.2-21.8.5-43.6.1-65.3-.9-19-.9-59.9-2.2-78.7-5.4h0Z"/>
  </g>
</svg>