<?xml version="1.0" encoding="UTF-8"?>
<svg id="Camada_2" xmlns="http://www.w3.org/2000/svg" version="1.1" viewBox="0 0 781.1 118.2">
  <!-- Generator: Adobe Illustrator 30.2.1, SVG Export Plug-In . SVG Version: 2.1.1 Build 1)  -->
  <g id="Graphic_Elements">
    <path d="M780.3,105.9c-.6-.3-1.3-1.1-1.9-.6-5,1.7-10.7-.2-16,1.1-19,2.2-38.2,1-57.3,1.1,13.9-4.6,28.9-7.8,41.8-15.3,18.7-8.7,33.3-32.6,11.9-47.2-55.4-35.2-145.7-35.2-209.2-42.4C521.6-.3,229.3-.4,201.2.4c-17.8.6-120.7,5.8-138.4,7.6-13.7,1.4-27.2,3.8-40.1,8.5-7.4,2.6-14.2,6.1-19.5,12.2-3.4,4-3.9,8.2-2.1,12.8,1.8,4.7,4.9,8.4,8.4,11.8,4.9,4.8,10.5,8.5,16.3,12.1,15.5,9.5,32,16.9,49.5,22.2,10.7,3.3,21.4,6,32.3,8.6,9.8,2.3,19.6,4.5,29.6,6.2,14.1,2.4,28.1,4.6,42.3,6.3.7,0,1.4.2,2.2.3-.4.3-.8.3-1.1.3-21.4,0-42.7-.7-64-2-14.5-.9-29-2-43.6-3-11.2-.8-22.3-1.5-33.5-1-3.5.2-7,.3-10.7.5.6.6,1,.6,1.5.7,4.7.9,9.5,1.8,14.2,2.6,8.8,1.5,17.5,2.7,26.4,3.6,10.5,1.1,21,2.3,31.6,3.1,9.6.7,19.2,1.5,28.8,2.2,9.7.6,19.3,1.1,29,1.5,12.9.6,25.8.8,38.8.2,12.7-.6,448.5-1.4,461.2-2.6,22.8-2.5,46.1,1.1,69-1.6,16.8-2.6,33.9-2,50.4-6,.7.2,2.1-1,1-1.5h-.4ZM686.7,102.1c-8.4,1.6-16.7,2.9-25.2,3.8-3.4.4-429.7,0-433.1-.2-13.8-.7-27.5-2-41.2-3.6-14.5-1.7-29-3.7-43.5-6-11.9-1.9-23.7-4.2-35.4-6.8-10.4-2.3-20.8-4.7-31-7.7-14.4-4.3-28.5-9.4-41.8-16.5-5.8-3.1-11.4-6.7-16.2-11.1-4.1-3.7-7.3-8.1-8.5-13.7-.8-4,.4-7.2,3.6-9.7,4.1-3.1,8.7-5,13.5-6.7,11.1-3.9,22.6-6,34.3-7.4,14.5-1.6,114.1-7.1,128.7-7.4,38.4-1.2,341-1.8,379,4,53.5,5.7,131,6.5,179.3,32.3,40.2,33.4-38.6,52.6-62.5,56.6h0Z"/>
  </g>
</svg>