<?xml version="1.0" encoding="UTF-8"?>
<svg id="Camada_2" data-name="Camada 2" xmlns="http://www.w3.org/2000/svg" viewBox="0 0 122.06 122.07">
  <defs>
    <style>
      .cls-1 {
        fill: #202020;
      }
    </style>
  </defs>
  <g id="Camada_1-2" data-name="Camada 1">
    <g>
      <path class="cls-1" d="M52.55,51.19l5.27,16.54c-3.8.74-7.01.66-10.89.02,1.65-5.53,2.89-10.63,5.62-16.56Z"/>
      <path class="cls-1" d="M107.24,0H14.82C6.63,0,0,6.64,0,14.83v92.41c0,8.19,6.63,14.83,14.82,14.83h92.42c8.19,0,14.82-6.64,14.82-14.83V14.83c0-8.19-6.63-14.83-14.82-14.83ZM65.16,88.87c-1.48-2.15-1.53-4.49-2.9-7.71l-19.41-.16c-1.89,2.4-1.77,5.17-3.25,7.82-4.84.26-9.36.29-14.72-.07l19.46-52.86,17.16.07,18.85,52.66c-5.13.7-9.93.3-15.19.25ZM97.05,88.97h-14.15v-41.6h14.15v41.6ZM97.06,40.73c-.55,3.26-3.4,4.9-7.01,4.94-3.32.04-6.19-1.28-7-3.96-.85-2.81-.35-6.12,2.6-7.67,2.16-1.13,4.94-1.35,7.67-.4,3.52,1.21,4.18,4.55,3.74,7.09Z"/>
    </g>
  </g>
</svg>