<?xml version="1.0" encoding="UTF-8"?>
<svg id="Camada_2" data-name="Camada 2" xmlns="http://www.w3.org/2000/svg" viewBox="0 0 122.07 122.07">
  <defs>
    <style>
      .cls-1 {
        fill: #202020;
      }
    </style>
  </defs>
  <g id="Camada_1-2" data-name="Camada 1">
    <g>
      <path class="cls-1" d="M49.95,52.31c.25,2.07-.16,5.04-2.86,6.3-3.44,1.6-7.12,1.16-10.81.87-.72-4.2-.3-7.7-.25-12.29,4.85-1.18,13.14-1.15,13.92,5.12Z"/>
      <path class="cls-1" d="M107.24,0H14.83C6.64,0,0,6.64,0,14.83v92.41c0,8.19,6.64,14.83,14.83,14.83h92.41c8.19,0,14.83-6.64,14.83-14.83V14.83c0-8.19-6.64-14.83-14.83-14.83ZM58.66,67.75c-6.24,4.7-13.56,5.02-22.04,4.55-1.66,5.13-.02,9.81-.88,14.73-4.71.46-9.38.43-14.52.02l-.04-52.7c12.39.34,31.03-2.91,39.51,5.97,7.34,7.68,6.45,21.05-2.03,27.43ZM100.53,77.04c-2.58,12.98-21.53,12.76-31.67,7.99-.91-4.12-.67-8.04-.01-12.33,3.11,2.04,16.84,6.62,17.57,2.26.88-5.24-21.36-2.19-17.94-19.73,2.23-11.46,20.7-11.8,29.1-7.91.12,4.15.3,7.37-.24,11.46-3.39-1.48-14.74-4.82-14.98-.75-.23,4.04,21.51,2.2,18.17,19.01Z"/>
    </g>
  </g>
</svg>