<?xml version="1.0" encoding="UTF-8"?>
<svg id="Camada_2" data-name="Camada 2" xmlns="http://www.w3.org/2000/svg" viewBox="0 0 122.07 122.07">
  <defs>
    <style>
      .cls-1 {
        fill: #202020;
      }
    </style>
  </defs>
  <g id="Camada_1-2" data-name="Camada 1">
    <g>
      <path class="cls-1" d="M40.9,49.49l5.32,16.55c-3.76.73-6.89.54-10.83.13,1.48-5.51,2.93-10.61,5.51-16.68Z"/>
      <path class="cls-1" d="M107.24,0H14.82C6.64,0,0,6.64,0,14.83v92.41c0,8.19,6.64,14.83,14.82,14.83h92.42c8.19,0,14.83-6.64,14.83-14.83V14.83c0-8.19-6.64-14.83-14.83-14.83ZM53.54,87.15c-1.52-2.19-1.59-4.58-2.86-7.79l-19.41-.04c-1.86,2.42-1.7,5.25-3.22,7.77-4.9.27-9.45.33-14.72-.08l19.45-52.8c6-.27,11.23-.29,17.09.03l18.88,52.67c-5.13.67-9.95.31-15.21.24ZM108.21,70.65l-25.17.53c1.76,7.22,15.35,6.08,21.93,3.27.96,3.47.88,7.11.21,11.1-7.04,2.97-14.84,3.17-22.17,1.32-9.51-2.4-14.55-10.73-14.68-20.19-.18-13.22,9.65-22.67,22.75-21.61,8.47.69,15.51,5.93,17.08,14.75.61,3.43.86,7,.05,10.83ZM88.05,55.65c-2.65.25-5.33,2.1-5.77,5.95,4.83.07,8.62.46,13.34-.13-.79-5.04-4.1-6.15-7.57-5.82Z"/>
    </g>
  </g>
</svg>