<?xml version="1.0" encoding="UTF-8"?>
<svg id="Camada_2" data-name="Camada 2" xmlns="http://www.w3.org/2000/svg" viewBox="0 0 122.07 122.07">
  <defs>
    <style>
      .cls-1 {
        fill: #202020;
      }
    </style>
  </defs>
  <g id="Camada_1-2" data-name="Camada 1">
    <g>
      <path class="cls-1" d="M41.14,50.04c2.42,4.92,3.12,9.05,5.42,15.44-3.47,1.78-7.16.87-10.79.44,1.66-5.39,2.84-10.41,5.37-15.88Z"/>
      <path class="cls-1" d="M107.24,0H14.83C6.64,0,0,6.64,0,14.83v92.41c0,8.19,6.64,14.83,14.83,14.83h92.41c8.19,0,14.83-6.64,14.83-14.83V14.83c0-8.19-6.64-14.83-14.83-14.83ZM53.77,86.99c-1.16-2.35-1.47-4.04-2.55-7.53-6.85-.63-13.19-.34-19.85-.14l-2.82,7.64c-4.8.35-9.38.42-14.77-.09l19.45-52.85,16.94.04,19,52.78c-5.09.58-10.16.43-15.4.15ZM108.28,83.6c-8.65,4.63-18.8,5.72-28.28,2.97-6.24-1.82-9.42-7.84-9.43-14.13l-.03-26.54c4.67-.47,8.86-.4,13.81-.06l.17,23.72c.01,2.63.58,5.15,2.15,6.15,2,1.27,5.39,1.49,7.52.11l.3-29.81c4.62-.7,8.94-.52,13.79-.08v37.67Z"/>
    </g>
  </g>
</svg>