<?xml version="1.0" encoding="UTF-8"?>
<svg id="Camada_2" data-name="Camada 2" xmlns="http://www.w3.org/2000/svg" viewBox="0 0 122.07 122.07">
  <defs>
    <style>
      .cls-1 {
        fill: #202020;
      }
    </style>
  </defs>
  <g id="Camada_1-2" data-name="Camada 1">
    <g>
      <path class="cls-1" d="M75.45,47.94c-10.58,0-19.16,8.58-19.16,19.16s8.58,19.15,19.16,19.15,19.16-8.57,19.16-19.15-8.58-19.16-19.16-19.16ZM88.31,68.73c-1.25,6.01-6.85,9.04-11.83,9.29-5.39.27-10.63-2.46-12.69-7.77-1.43-3.64-.69-7.37,1.55-10.39,2.03-2.74,5.4-4.65,9.43-4.95,7.67-.57,15.29,5.33,13.54,13.82Z"/>
      <path class="cls-1" d="M107.24,0H14.82C6.64,0,0,6.64,0,14.83v92.42c0,8.18,6.64,14.82,14.82,14.82h92.42c8.19,0,14.83-6.64,14.83-14.82V14.83c0-8.19-6.64-14.83-14.83-14.83ZM100.12,89.35c-13.02,13.31-34.68,13.68-48.45,1.13-6.11-5.57-9.11-12.84-9.25-21.03l-19.72,15.73c-2.38,1.91-6.11,1.3-7.86-.71-1.34-1.52-2.32-5.78.49-7.96l35.36-27.59c-4.3-1.44-21.11,1.75-23.08-2.59-.72-1.59-.28-3.52,1.15-4.83,1.54-1.43,3.65-2.13,5.87-2.14l36.08-.2c-1.74-3.65-19.11-12.27-10.48-15.77,1.25-.51,4.32-1.59,5.89-.38l31.67,24.43c13.52,10.42,14.27,29.71,2.33,41.91Z"/>
    </g>
  </g>
</svg>