<?xml version="1.0" encoding="UTF-8"?>
<svg id="Camada_2" data-name="Camada 2" xmlns="http://www.w3.org/2000/svg" viewBox="0 0 122.07 122.07">
  <defs>
    <style>
      .cls-1 {
        fill: #202020;
      }
    </style>
  </defs>
  <g id="Camada_1-2" data-name="Camada 1">
    <path class="cls-1" d="M107.24,0H14.83C6.64,0,0,6.64,0,14.83v92.41c0,8.19,6.64,14.83,14.83,14.83h92.41c8.19,0,14.83-6.64,14.83-14.83V14.83c0-8.19-6.64-14.83-14.83-14.83ZM52.58,87.21l-2.02-29.7-7.36,25.03c-2.67,1.17-6.13.8-9.42.31l-6.92-26.55-1.86,30.78c-4.46.26-8.57.4-13.19-.09l3.43-52.7c5.61-.45,10.91-.28,16.76-.09l6.92,24.46,7.85-24.5,16.5-.02,3.29,52.98-13.98.09ZM109.55,70.81l-25.09.34c2.4,7.72,16.36,5.76,22.23,3.24.65,3.66.74,7.06.21,11.02-7.04,3.09-15.1,3.4-22.63,1.39-9.1-2.44-14.22-10.36-14.38-19.52-.12-6.31,1.74-12.33,6.08-16.58,4.48-4.39,10.86-6.2,17.55-5.49,13.53,1.43,18.8,14,16.03,25.6ZM90.02,55.61c-2.95.14-5.9,2.17-6.12,5.94,4.39.24,8.68.37,13.25-.08-.65-4.37-3.56-6.03-7.13-5.86Z"/>
  </g>
</svg>