<?xml version="1.0" encoding="UTF-8"?>
<svg id="Camada_2" data-name="Camada 2" xmlns="http://www.w3.org/2000/svg" viewBox="0 0 122.07 122.07">
  <defs>
    <style>
      .cls-1 {
        fill: #202020;
      }
    </style>
  </defs>
  <g id="Camada_1-2" data-name="Camada 1">
    <g>
      <path class="cls-1" d="M53.77,52.64c.25,2.07-.16,5.04-2.86,6.3-3.44,1.6-7.12,1.16-10.81.87-.72-4.2-.3-7.7-.25-12.29,4.85-1.18,13.14-1.15,13.92,5.12Z"/>
      <path class="cls-1" d="M107.24,0H14.82C6.63,0,0,6.64,0,14.83v92.41c0,8.19,6.63,14.83,14.82,14.83h92.42c8.19,0,14.83-6.64,14.83-14.83V14.83c0-8.19-6.64-14.83-14.83-14.83ZM62.48,68.08c-6.24,4.7-13.56,5.02-22.04,4.55-1.66,5.13-.02,9.81-.88,14.73-4.71.46-9.38.43-14.52.02l-.04-52.7c12.39.34,31.03-2.91,39.51,5.97,7.34,7.68,6.45,21.05-2.03,27.43ZM96.84,56.73c-3.22.18-5.68-.3-9.95.5l-.38,30.18c-4.82.27-9.21.55-13.85-.16l.1-38.35c7.65-3.55,15.72-4.18,23.9-2.87.64,3.78.38,7.09.18,10.7Z"/>
    </g>
  </g>
</svg>