<?xml version="1.0" encoding="UTF-8"?>
<svg id="Camada_2" data-name="Camada 2" xmlns="http://www.w3.org/2000/svg" viewBox="0 0 701.43 180.96">
  <defs>
    <style>
      .cls-1 {
        fill: #047dff;
        opacity: .68;
      }
    </style>
  </defs>
  <g id="_1" data-name="1">
    <path class="cls-1" d="M513.21.45c-.3.3-1.06.38-2.27.23s-1.96-.08-2.27.23c-.3.3-.98.38-2.04.23-1.06-.15-2.49.07-4.31.68s-3.4.91-4.76.91-2.57.23-3.63.68c-1.06.45-2.19.6-3.4.45-1.21-.15-1.89,0-2.04.45-.15.45-.83.6-2.04.45-1.21-.15-2.27,0-3.17.45-.91.45-1.21,1.06-.91,1.81.3.76,0,1.44-.91,2.04-.91.6-1.36,1.29-1.36,2.04s-.3,1.21-.91,1.36c-.6.15-1.21.83-1.81,2.04-.3.6-.6,1.21-.91,1.81v-2.72c-.53.15-1.06.3-1.59.45-1.06.3-1.59,1.06-1.59,2.27v1.81c.83-.3,1.66-.6,2.49-.91.83-.3,1.66-.6,2.49-.91-.23.38-.45.76-.68,1.13-.45.76-.6,1.44-.45,2.04.15.6.53,1.06,1.13,1.36.6.3.76.83.45,1.59-.3.76.15,1.59,1.36,2.49,1.21.91,1.81,1.89,1.81,2.95v1.59c.53-.08,1.06-.15,1.59-.23.53-.08,1.06-.15,1.59-.23-.08.38-.15.76-.23,1.13-.08.38-.15.76-.23,1.13l.45-.45c.3-.3.76-.45,1.36-.45h.91v.68c0,.45.23.76.68.91.45.15,1.59.07,3.4-.23,1.81-.3,2.8-.08,2.95.68.15.76,1.21.98,3.17.68,1.97-.3,3.1-.23,3.4.23.3.45,5.44.45,15.42,0,9.98-.45,16.18-.53,18.59-.23,2.42.3,4.91.38,7.48.23,2.57-.15,4.08-.08,4.54.23.45.3,2.34.38,5.67.23,3.33-.15,5.06-.08,5.22.23.15.3,3.7.6,10.66.91,6.95.3,10.51.6,10.66.91.08.15.15.3.23.45.3-.15.61-.3.91-.45.6-.3,1.36-.23,2.27.23.91.45,1.36.83,1.36,1.13s-.3.53-.91.68c-.3.08-.6.15-.91.23.08.15.15.3.23.45.08.15.15.3.23.45-.6-.23-1.21-.45-1.81-.68-1.21-.45-2.65-.53-4.31-.23-1.66.3-2.49.83-2.49,1.59v1.13c-.38-.38-.76-.76-1.13-1.13-.76-.76-1.59-.91-2.49-.45-.91.45-1.74.6-2.49.45-.76-.15-1.66,0-2.72.45-1.06.45-2.12.6-3.18.45-1.06-.15-1.74-.08-2.04.23s-1.36.53-3.17.68c-1.81.15-2.8.38-2.95.68-.15.3-.91.38-2.27.23-1.36-.15-2.12,0-2.27.45-.15.45-.83.6-2.04.45-1.21-.15-1.89-.08-2.04.23-.15.3-1.29.61-3.4.91-2.12.3-4.01.38-5.67.23-1.66-.15-3.55-.08-5.67.23-2.12.3-3.4.68-3.86,1.13-.45.45-2.65.76-6.58.91s-6.05.45-6.35.91c-.3.45-.83.6-1.59.45-.76-.15-1.89,0-3.4.45-1.51.45-2.49.53-2.95.23-.45-.3-.98-.23-1.59.23-.6.45-1.28.68-2.04.68h-1.13v1.36c-.68-.15-1.36-.3-2.04-.45-1.36-.3-2.87-.15-4.54.45-1.66.6-3.18.83-4.54.68-1.36-.15-2.12-.08-2.27.23-.15.3-.91.45-2.27.45s-2.12.15-2.27.45c-.15.3-.83.45-2.04.45s-2.27.23-3.18.68c-.91.45-3.48.98-7.71,1.59-4.23.6-6.58,1.13-7.03,1.59-.45.45-.98.53-1.59.23-.6-.3-1.06-.3-1.36,0-.3.3-2.12.6-5.44.91-3.33.3-5.9.68-7.71,1.13-1.81.45-2.8.83-2.95,1.13-.15.3-.98.45-2.49.45s-2.34.23-2.49.68c-.08.23-.15.45-.23.68-.08-.15-.15-.3-.23-.45-.15-.3-.68-.45-1.59-.45s-3.1.3-6.58.91c-3.48.6-5.44,1.13-5.9,1.59-.45.45-1.51.76-3.17.91-1.66.15-2.57.53-2.72,1.13-.08.3-.15.6-.23.91l-.68-.68c-.45-.45-1.51-.6-3.17-.45-1.66.15-3.33.6-4.99,1.36-1.66.76-2.95,1.13-3.85,1.13s-1.59.3-2.04.91c-.45.6-1.51.91-3.18.91s-3.93.38-6.8,1.13c-2.87.76-4.38,1.29-4.54,1.59-.15.3-.68.38-1.59.23-.91-.15-3.63.23-8.16,1.13-4.54.91-6.95,1.59-7.26,2.04-.3.45-1.13.68-2.49.68s-2.27.23-2.72.68-.98.6-1.59.45c-.6-.15-1.81.15-3.63.91-1.81.76-3.1,1.06-3.86.91-.76-.15-1.36,0-1.81.45-.45.45-1.36.83-2.72,1.13-1.36.3-2.04.6-2.04.91v.45h-3.17v1.36c-.45-.23-.91-.45-1.36-.68-.91-.45-2.72-.15-5.44.91-2.72,1.06-6.43,1.97-11.11,2.72-4.69.76-7.86,1.51-9.52,2.27-1.66.76-2.87,1.06-3.63.91-.76-.15-2.95.23-6.58,1.13-3.63.91-11.57,3.1-23.81,6.58-12.25,3.48-19.05,5.22-20.41,5.22s-2.87.38-4.54,1.13-2.8,1.06-3.4.91c-.6-.15-.98-.08-1.13.23-.15.3-.68.45-1.59.45s-3.63.76-8.16,2.27c-4.54,1.51-7.41,2.27-8.62,2.27h-1.81c.08-.3.15-.6.23-.91.15-.6,1.06-1.74,2.72-3.4,1.66-1.66,2.72-2.49,3.17-2.49s.76-.38.91-1.13c.15-.76.53-1.21,1.13-1.36.6-.15,1.97-1.28,4.08-3.4,2.12-2.12,3.78-3.48,4.99-4.08,1.21-.6,2.34-1.59,3.4-2.95,1.06-1.36,2.87-2.8,5.44-4.31,2.57-1.51,3.93-2.57,4.08-3.18.15-.6,1.21-1.44,3.18-2.49,1.96-1.06,4.38-2.87,7.26-5.44,2.87-2.57,4.69-3.93,5.44-4.08s2.42-1.36,4.99-3.63c2.57-2.27,4.31-3.55,5.22-3.86.91-.3,2.95-1.66,6.12-4.08,3.17-2.42,5.52-3.85,7.03-4.31,1.51-.45,3.33-1.36,5.44-2.72,2.12-1.36,3.7-2.12,4.76-2.27,1.06-.15,1.66-.45,1.81-.91.15-.45,1.06-.91,2.72-1.36,1.66-.45,2.72-.91,3.17-1.36.45-.45,2.95-1.36,7.48-2.72,4.54-1.36,7.03-2.27,7.48-2.72.45-.45,1.81-.98,4.08-1.59,2.27-.6,4.01-1.36,5.22-2.27,1.21-.91,3.02-1.66,5.44-2.27,2.42-.6,3.85-1.13,4.31-1.59.45-.45,1.13-.68,2.04-.68s1.66-.3,2.27-.91c.6-.6,2.34-1.51,5.22-2.72,2.87-1.21,4.54-2.12,4.99-2.72.45-.6.45-2.12,0-4.54-.45-2.42-.45-4.46,0-6.12.45-1.66.6-3.1.45-4.31-.15-1.21-1.51-2.42-4.08-3.63-2.57-1.21-4.31-1.81-5.22-1.81s-2.19-.53-3.86-1.59c-1.66-1.06-5.82-1.66-12.47-1.81-6.65-.15-10.2-.08-10.66.23-.45.3-1.66.3-3.63,0-1.96-.3-3.17-.3-3.63,0-.45.3-1.74.38-3.85.23-2.12-.15-3.25-.08-3.4.23-.15.3-1.96.38-5.44.23-3.48-.15-6.27.08-8.39.68-2.12.6-5.14.91-9.07.91s-6.27.23-7.03.68c-.76.45-2.95.76-6.58.91-3.63.15-5.59.6-5.9,1.36-.15.38-.3.76-.45,1.13l-.68-.68c-.45-.45-1.06-.68-1.81-.68s-1.36.15-1.81.45c-.45.3-.61.98-.45,2.04.15,1.06.08,1.66-.23,1.81-.3.15-.6.23-.91.23h-.45c.15-.15.3-.3.45-.45.3-.3.45-.83.45-1.59s-.15-1.21-.45-1.36c-.3-.15-.6-.23-.91-.23h-.45c.15.15.3.3.45.45.3.3.3.76,0,1.36-.3.6-.6.91-.91.91h-.45c.08-.45.15-.91.23-1.36.08-.45.15-.91.23-1.36-2.27.23-4.54.45-6.8.68-4.54.45-6.88.83-7.03,1.13-.15.3-1.51.53-4.08.68-2.57.15-4.08.68-4.54,1.59-.45.91-.83,1.36-1.13,1.36h-.45v-1.36c-.68.15-1.36.3-2.04.45-1.36.3-2.42.45-3.18.45s-1.21-.15-1.36-.45c-.08-.15-.15-.3-.23-.45-.38.23-.76.45-1.13.68-.76.45-1.59.6-2.49.45-.91-.15-1.44-.08-1.59.23-.15.3-1.28.53-3.4.68-2.12.15-3.4.45-3.85.91-.45.45-.98.6-1.59.45-.6-.15-1.66-.08-3.17.23-1.51.3-2.34.6-2.49.91-.15.3-.83.38-2.04.23-1.21-.15-1.89-.08-2.04.23-.15.3-1.13.53-2.95.68-1.81.15-3.25.53-4.31,1.13-1.06.6-2.42.98-4.08,1.13-1.66.15-2.65.3-2.95.45-.3.15-.38.45-.23.91.08.23.15.45.23.68-.83-.23-1.66-.45-2.49-.68-1.66-.45-2.65-.53-2.95-.23-.3.3-1.13.45-2.49.45h-2.04v1.81c-.23-.15-.45-.3-.68-.45-.45-.3-1.74-.3-3.85,0-2.12.3-4.69,1.06-7.71,2.27s-4.91,1.74-5.67,1.59c-.76-.15-3.33.45-7.71,1.81-4.38,1.36-6.95,1.97-7.71,1.81-.76-.15-1.44-.08-2.04.23-.6.3-.91.83-.91,1.59v1.13c-.15-.08-.3-.15-.45-.23-.3-.15-.38-.45-.23-.91.08-.23.15-.45.23-.68-.68.08-1.36.15-2.04.23-1.36.15-2.34.45-2.95.91-.6.45-.83.83-.68,1.13.08.15.15.3.23.45-.38.08-.76.15-1.13.23-.76.15-1.36.08-1.81-.23-.45-.3-1.89-.15-4.31.45-2.42.6-4.84,1.44-7.26,2.49-2.42,1.06-4.31,1.66-5.67,1.81-1.36.15-2.12.38-2.27.68-.15.3-2.95,1.06-8.39,2.27-5.44,1.21-8.62,2.12-9.52,2.72-.91.61-1.97.91-3.18.91s-3.02.6-5.44,1.81c-2.42,1.21-7.56,2.87-15.42,4.99-7.86,2.12-12.55,3.55-14.06,4.31-1.51.76-3.25,1.29-5.22,1.59-1.96.3-3.17.68-3.63,1.13s-1.44.68-2.95.68-2.95.38-4.31,1.13c-1.36.76-2.34,1.06-2.95.91-.6-.15-.98,0-1.13.45-.15.45-.6.68-1.36.68h-1.13v.91c-.53-.08-1.06-.15-1.59-.23-1.06-.15-1.96,0-2.72.45-.76.45-1.36.6-1.81.45-.45-.15-1.51.15-3.18.91-1.66.76-5.29,1.81-10.88,3.18-5.59,1.36-9.45,2.57-11.56,3.63-2.12,1.06-4.08,1.81-5.9,2.27-1.81.45-3.1,1.36-3.85,2.72-.76,1.36-1.06,2.34-.91,2.95.15.6-.07,1.06-.68,1.36-.6.3-.98.83-1.13,1.59-.15.76-.53,1.13-1.13,1.13s-1.51.45-2.72,1.36c-1.21.91-1.74,1.97-1.59,3.17.15,1.21.3,1.97.45,2.27.15.3.61.38,1.36.23.38-.07.76-.15,1.13-.23-.07-.23-.15-.45-.23-.68-.08-.23-.15-.45-.23-.68h.45c.3,0,.91.6,1.81,1.81.91,1.21,1.28,2.19,1.13,2.95-.15.76-.45,1.29-.91,1.59-.23.15-.45.3-.68.45,1.21.23,2.42.45,3.63.68,2.42.45,3.7,1.06,3.85,1.81.15.76.98,1.13,2.49,1.13h2.27c-.07.3-.15.6-.23.91-.08.3-.15.6-.23.91.23-.23.45-.45.68-.68.45-.45.98-.6,1.59-.45.6.15,1.21,0,1.81-.45.6-.45,1.51-.76,2.72-.91,1.21-.15,2.42-.08,3.63.23,1.21.3,1.89.83,2.04,1.59.15.76.6,1.21,1.36,1.36.76.15,2.57-.38,5.44-1.59s4.69-1.81,5.44-1.81,1.36-.23,1.81-.68c.45-.45,2.04-.91,4.76-1.36,2.72-.45,4.61-.98,5.67-1.59,1.06-.6,4.16-1.51,9.3-2.72,5.14-1.21,8.99-2.34,11.56-3.4,2.57-1.06,4.99-1.74,7.26-2.04,2.27-.3,3.48-.6,3.63-.91.15-.3,1.51-.83,4.08-1.59,2.57-.76,4.08-1.06,4.54-.91.45.15,1.21-.08,2.27-.68,1.06-.6,3.4-1.29,7.03-2.04,3.63-.76,5.52-1.29,5.67-1.59.15-.3,5.82-2.19,17.01-5.67,11.19-3.48,16.93-5.44,17.23-5.9.3-.45.98-.6,2.04-.45,1.06.15,2.72-.08,4.99-.68,2.27-.6,3.63-1.13,4.08-1.59.45-.45,1.29-.68,2.49-.68s3.63-.68,7.26-2.04c3.63-1.36,6.95-2.27,9.98-2.72,3.02-.45,5.37-1.06,7.03-1.81,1.66-.76,3.86-1.36,6.58-1.81,2.72-.45,5.07-1.06,7.03-1.81,1.97-.76,3.55-1.13,4.76-1.13s2.42-.3,3.63-.91c1.21-.6,2.42-.91,3.63-.91s2.95-.38,5.22-1.13c2.27-.76,4.08-1.13,5.44-1.13s2.49-.23,3.4-.68c.91-.45,3.63-1.06,8.16-1.81,4.54-.76,7.18-1.36,7.94-1.81s2.65-.76,5.67-.91c3.02-.15,5.44-.53,7.26-1.13,1.81-.6,3.02-.83,3.63-.68.3.08.6.15.91.23-.23.53-.45,1.06-.68,1.59-.45,1.06-2.04,1.97-4.76,2.72-2.72.76-5.07,2.19-7.03,4.31-1.97,2.12-3.48,3.33-4.54,3.63-1.06.3-2.04.83-2.95,1.59-.91.76-1.51,1.74-1.81,2.95-.3,1.21-.91,1.89-1.81,2.04-.91.15-1.59.68-2.04,1.59-.45.91-1.29,1.36-2.49,1.36h-1.81c.07.23.15.45.23.68.15.45-.53.98-2.04,1.59-1.51.61-2.42,1.29-2.72,2.04-.3.76-.83,1.36-1.59,1.81-.76.45-1.21.98-1.36,1.59-.15.6-.53.98-1.13,1.13-.6.15-1.13.68-1.59,1.59-.45.91-.98,1.36-1.59,1.36s-1.51.76-2.72,2.27-2.04,2.19-2.49,2.04c-.45-.15-1.28.38-2.49,1.59-.6.61-1.21,1.21-1.81,1.81-.15-.15-.3-.3-.45-.45-.15-.15-.3-.3-.45-.45v.68c0,.45-.38.91-1.13,1.36-.76.45-1.36,1.13-1.81,2.04-.45.91-1.06,1.36-1.81,1.36h-1.13c.08.3.15.6.23.91.15.6-.23,1.06-1.13,1.36-.91.3-1.89,1.44-2.95,3.4-1.06,1.97-1.97,3.18-2.72,3.63-.76.45-3.17,3.4-7.26,8.84-4.08,5.44-6.43,8.32-7.03,8.62-.3.15-.6.3-.91.45.08.15.15.3.23.45.15.3-.07.68-.68,1.13-.3.23-.6.45-.91.68.15.15.3.3.45.45.15.15.3.3.45.45-.3.08-.6.15-.91.23-.6.15-1.06,2.19-1.36,6.12-.3,3.93.45,6.27,2.27,7.03,1.81.76,2.8,2.04,2.95,3.85s.53,3.18,1.13,4.08c.6.91,1.59,1.21,2.95.91.68-.15,1.36-.3,2.04-.45v.91c0,.6.23,1.13.68,1.59.45.45,1.36.91,2.72,1.36,1.36.45,3.1.6,5.22.45,2.12-.15,3.4-.45,3.86-.91.45-.45,1.13-.45,2.04,0,.91.45,5.29.68,13.15.68s13.53-.07,17.01-.23c3.48-.15,7.26-.91,11.34-2.27,4.08-1.36,7.26-2.19,9.52-2.49,2.27-.3,3.78-.68,4.54-1.13.76-.45,3.1-1.06,7.03-1.81,3.93-.76,5.97-1.29,6.12-1.59.15-.3.76-.45,1.81-.45s1.89-.23,2.49-.68,1.44-.68,2.49-.68,2.04-.3,2.95-.91c.91-.6,2.65-1.06,5.22-1.36,2.57-.3,4.76-.83,6.58-1.59,1.81-.76,7.48-2.19,17.01-4.31,9.52-2.12,14.74-3.48,15.65-4.08.91-.6,2.04-.91,3.4-.91s3.4-.53,6.12-1.59c2.72-1.06,4.38-1.51,4.99-1.36.6.15,2.19-.23,4.76-1.13,2.57-.91,5.82-1.66,9.75-2.27s8.01-1.59,12.25-2.95c4.23-1.36,13-3.48,26.31-6.35,13.3-2.87,20.79-4.69,22.45-5.44,1.66-.76,4.08-1.29,7.26-1.59,3.17-.3,6.8-1.06,10.88-2.27,4.08-1.21,8.92-2.27,14.51-3.18,5.59-.91,8.92-1.51,9.98-1.81,1.06-.3,1.96-.83,2.72-1.59l1.13-1.13c.15.15.3.3.45.45.3.3,1.59.38,3.85.23,2.27-.15,6.95-1.13,14.06-2.95,7.11-1.81,11.94-2.8,14.51-2.95,2.57-.15,5.37-.68,8.39-1.59,3.02-.91,5.14-1.29,6.35-1.13,1.21.15,2.42,0,3.63-.45,1.21-.45,3.4-.83,6.58-1.13,3.17-.3,5.44-.76,6.8-1.36,1.36-.6,2.57-.83,3.63-.68,1.06.15,2.87-.15,5.44-.91,2.57-.76,6.27-1.36,11.11-1.81,4.84-.45,11.87-1.51,21.09-3.17,9.22-1.66,15.5-2.49,18.82-2.49s5.22-.15,5.67-.45c.23-.15.45-.3.68-.45v.68c0,.45-.45.83-1.36,1.13-.91.3-2.57,1.66-4.99,4.08-2.42,2.42-4.16,3.85-5.22,4.31s-1.89.98-2.49,1.59-.91,1.21-.91,1.81v.91c-.23-.15-.45-.3-.68-.45-.45-.3-1.06-.23-1.81.23-.76.45-1.21.91-1.36,1.36-.15.45-1.66,1.66-4.54,3.63-2.87,1.96-4.54,3.33-4.99,4.08-.45.76-1.44,1.59-2.95,2.49-1.51.91-2.87,2.04-4.08,3.4-1.21,1.36-2.87,2.65-4.99,3.86-2.12,1.21-3.33,2.19-3.63,2.95-.3.76-.91,1.36-1.82,1.81-.91.45-1.59,1.06-2.04,1.81-.45.76-.98,1.28-1.59,1.59-.6.3-1.29.3-2.04,0-.38-.15-.76-.3-1.13-.45.08.3.15.6.23.91.15.6,0,1.21-.45,1.81-.45.6-1.36,1.21-2.72,1.81-1.36.6-2.12,1.36-2.27,2.27-.15.91-.76,1.51-1.81,1.81-1.06.3-1.81.83-2.27,1.59-.45.76-1.36,1.44-2.72,2.04-1.36.6-2.19,1.36-2.49,2.27-.3.91-.76,1.36-1.36,1.36s-.98.38-1.13,1.13c-.15.76-.76,1.29-1.81,1.59-1.06.3-1.51.76-1.36,1.36.07.3.15.6.23.91-.3-.08-.6-.15-.91-.23-.3-.08-.6-.15-.91-.23.15.45.3.91.45,1.36.15.45.3.91.45,1.36-.38-.15-.76-.3-1.13-.45-.76-.3-1.51-.15-2.27.45-.76.6-1.21,1.28-1.36,2.04-.08.38-.15.76-.23,1.13-.08-.23-.15-.45-.23-.68-.08-.23-.15-.45-.23-.68-.38.15-.76.3-1.13.45-.76.3-1.29.6-1.59.91-.15.15-.3.3-.45.45.15.15.3.3.45.45.3.3.38.68.23,1.13-.08.23-.15.45-.23.68-.3-.23-.6-.45-.91-.68s-.6-.45-.91-.68c-.15.6-.3,1.21-.45,1.81-.3,1.21-.68,1.89-1.13,2.04-.23.08-.45.15-.68.23v-1.36c-.3.08-.6.15-.91.23-.3.08-.6.15-.91.23.15.23.3.45.45.68.3.45.3,1.21,0,2.27-.3,1.06-.83,1.59-1.59,1.59s-1.29.3-1.59.91c-.3.6-.68.83-1.13.68-.45-.15-.6-.6-.45-1.36.15-.76.68-1.29,1.59-1.59.45-.15.91-.3,1.36-.45-.3-.08-.6-.15-.91-.23-.6-.15-1.51.23-2.72,1.13-.6.45-1.21.91-1.81,1.36.15.15.3.3.45.45.3.3.3.83,0,1.59-.3.76-.6,1.13-.91,1.13h-.45v-1.81c-.38.15-.76.3-1.13.45-.76.3-1.66,1.06-2.72,2.27-.53.6-1.06,1.21-1.59,1.81.3-.15.6-.3.91-.45.6-.3,1.13-.45,1.59-.45h.68v.45c0,.3-.76,1.21-2.27,2.72s-2.57,2.27-3.18,2.27-.98.68-1.13,2.04c-.08.68-.15,1.36-.23,2.04-.15-.23-.3-.45-.45-.68-.3-.45-.68-.68-1.13-.68h-.68c.08.45.15.91.23,1.36.08.45.15.91.23,1.36-.23-.15-.45-.3-.68-.45-.23-.15-.45-.3-.68-.45-.23.53-.45,1.06-.68,1.59-.23.53-.45,1.06-.68,1.59h1.36c.91,0,1.44.53,1.59,1.59.08.53.15,1.06.23,1.59h-3.17v1.36c.38-.08.76-.15,1.13-.23.76-.15,1.29,0,1.59.45.15.23.3.45.45.68-.3.08-.6.15-.91.23-.3.08-.6.15-.91.23.08.15.15.3.23.45.15.3,1.06.68,2.72,1.13,1.66.45,2.65.98,2.95,1.59.15.3.3.6.45.91h-.45c-.3,0-.53.68-.68,2.04-.08.68-.15,1.36-.23,2.04.23-.15.45-.3.68-.45.45-.3.68-.76.68-1.36s.3-1.06.91-1.36c.6-.3,1.06-.38,1.36-.23.15.08.3.15.45.23-.15.23-.3.45-.45.68-.15.23-.3.45-.45.68.23-.15.45-.3.68-.45.23-.15.45-.3.68-.45.08.23.15.45.23.68.15.45.07,1.06-.23,1.81-.15.38-.3.76-.45,1.13h1.81v-1.36c.23.07.45.15.68.23.45.15.83,0,1.13-.45.15-.23.3-.45.45-.68.38.3.76.6,1.13.91.76.6,2.04.76,3.85.45,1.81-.3,2.95-.15,3.4.45.23.3.45.6.68.91.08-.15.15-.3.23-.45.15-.3.53-.38,1.13-.23.6.15.91.76.91,1.81v1.59c.38-.15.76-.3,1.13-.45.76-.3,1.81-1.13,3.17-2.49s2.12-2.34,2.27-2.95c.15-.6.76-.83,1.81-.68,1.06.15,1.66-.23,1.81-1.13.07-.45.15-.91.23-1.36.38.07.76.15,1.13.23.38.08.76.15,1.13.23v-1.36h3.18c-.23.15-.45.3-.68.45-.45.3-.68.76-.68,1.36v.91c.38-.23.76-.45,1.13-.68.76-.45,1.44-1.13,2.04-2.04.6-.91,2.04-2.04,4.31-3.4,2.27-1.36,4.08-2.72,5.44-4.08,1.36-1.36,2.42-2.19,3.17-2.49.76-.3,1.29-.76,1.59-1.36.3-.6.68-.91,1.13-.91s1.29-.61,2.49-1.81c1.21-1.21,2.42-2.04,3.63-2.49,1.21-.45,1.89-1.06,2.04-1.81.15-.76.91-1.44,2.27-2.04,1.36-.6,3.18-1.96,5.44-4.08s3.93-3.33,4.99-3.63c1.06-.3,2.04-1.06,2.95-2.27.91-1.21,1.59-1.81,2.04-1.81s1.36-.45,2.72-1.36c1.36-.91,2.27-1.74,2.72-2.49.45-.76,1.66-1.66,3.63-2.72,1.97-1.06,3.33-1.97,4.08-2.72.76-.76,1.13-1.36,1.13-1.81s.98-1.21,2.95-2.27c1.97-1.06,3.17-1.97,3.63-2.72.45-.76,1.13-1.36,2.04-1.81.91-.45,1.29-.91,1.13-1.36-.15-.45.45-1.21,1.81-2.27,1.36-1.06,2.49-1.66,3.4-1.81.91-.15,1.36-.53,1.36-1.13v-.91c.15.15.3.3.45.45.15.15.3.3.45.45.08-.15.15-.3.23-.45.08-.15.15-.3.23-.45-.15-.08-.3-.15-.45-.23-.15-.08-.3-.15-.45-.23.53-.15,1.06-.3,1.59-.45,1.06-.3,1.89-.98,2.49-2.04.6-1.06,1.28-1.59,2.04-1.59s2.19-.76,4.31-2.27c2.12-1.51,3.25-2.42,3.4-2.72.08-.15.15-.3.23-.45h-1.36c.08-.23.15-.45.23-.68.08-.23.15-.45.23-.68.38.15.76.3,1.13.45.76.3,1.97-.3,3.63-1.81,1.66-1.51,2.42-2.49,2.27-2.95-.15-.45.38-.91,1.59-1.36,1.21-.45,2.42-1.36,3.63-2.72,1.21-1.36,2.72-2.49,4.54-3.4,1.81-.91,3.4-2.04,4.76-3.4,1.36-1.36,2.42-2.12,3.17-2.27.76-.15,3.02-1.89,6.8-5.22,3.78-3.33,6.2-5.14,7.26-5.44,1.06-.3,1.97-.91,2.72-1.81.76-.91,1.81-1.66,3.17-2.27,1.36-.6,2.34-1.36,2.95-2.27.6-.91,2.57-2.27,5.9-4.08,3.33-1.81,6.43-3.85,9.3-6.12s4.76-3.48,5.67-3.63c.91-.15,3.1-1.36,6.58-3.63,3.48-2.27,5.59-3.4,6.35-3.4s1.44-.3,2.04-.91c.6-.6,2.27-1.44,4.99-2.49,2.72-1.06,4.23-1.89,4.54-2.49.3-.6.23-1.29-.23-2.04-.45-.76-.6-2.42-.45-4.99.15-2.57.08-4.08-.23-4.54-.3-.45-.38-.91-.23-1.36.08-.23.15-.45.23-.68.23.08.45.15.68.23.23.07.45.15.68.23-.08-.45-.15-.91-.23-1.36-.15-.91-1.51-1.96-4.08-3.17-2.57-1.21-4.38-1.89-5.44-2.04-1.06-.15-1.97-.6-2.72-1.36-.76-.76-2.8-1.44-6.12-2.04-3.33-.6-5.29-1.51-5.9-2.72-.6-1.21-1.36-1.74-2.27-1.59-.91.15-2.19-.08-3.86-.68-1.66-.6-3.7-.98-6.12-1.13-2.42-.15-6.73-.83-12.93-2.04-6.2-1.21-9.75-1.74-10.66-1.59-.91.15-1.97,0-3.18-.45-1.21-.45-2.34-.53-3.4-.23-1.06.3-1.74.3-2.04,0-.3-.3-5.37-.91-15.19-1.81-9.83-.91-15.42-1.59-16.78-2.04-1.36-.45-3.1-.68-5.22-.68s-3.25.15-3.4.45c-.08.15-.15.3-.23.45-.15-.15-.3-.3-.45-.45-.3-.3-2.19-.45-5.67-.45s-5.44.23-5.9.68c-.23.23-.45.45-.68.68v-.68c0-.45-.38-.83-1.13-1.13-.76-.3-3.4-.6-7.94-.91-4.54-.3-7.56-.3-9.07,0-1.51.3-3.7.23-6.58-.23-2.87-.45-6.35-.68-10.43-.68s-6.27.15-6.58.45c-.3.3-1.28.38-2.95.23-1.66-.15-2.8,0-3.4.45-.3.23-.6.45-.91.68-.15-.3-.3-.6-.45-.91-.3-.61-.91-.76-1.81-.45-.91.3-1.51.23-1.81-.23-.3-.45-2.42-.68-6.35-.68s-6.05.15-6.35.45ZM298.23,5.9c.08.15.15.3.23.45.08.15.15.3.23.45-.08-.15-.15-.3-.23-.45-.08-.15-.15-.3-.23-.45ZM485.09,6.8c.08.15.15.3.23.45.08.15.15.3.23.45h-.91c.08-.15.15-.3.23-.45.08-.15.15-.3.23-.45ZM271.02,14.97c.15.68.3,1.36.45,2.04.3,1.36.23,2.12-.23,2.27-.23.08-.45.15-.68.23.08-.76.15-1.51.23-2.27.07-.76.15-1.51.23-2.27ZM288.7,15.42h1.36c-.08.23-.15.45-.23.68-.15.45-.38.68-.68.68h-.45v-1.36ZM337.69,18.6c.08.15.15.3.23.45.08.15.15.3.23.45-.08-.15-.15-.3-.23-.45-.07-.15-.15-.3-.23-.45ZM479.87,27.67c-.08.15-.15.3-.23.45.08-.15.15-.3.23-.45.08-.15.15-.3.23-.45-.08.15-.15.3-.23.45ZM286.89,28.57c.15.15.3.3.45.45s.3.3.45.45l-.68.68c-.23.23-.45.45-.68.68.08-.38.15-.76.23-1.13.08-.38.15-.76.23-1.13ZM227.02,29.03c.23.15.45.3.68.45.23.15.45.3.68.45-.23-.15-.45-.3-.68-.45-.23-.15-.45-.3-.68-.45ZM324.53,33.56l.68.68c.23.23.45.45.68.68h-1.36v-1.36ZM147.65,36.28c.15.15.3.3.45.45.15.15.3.3.45.45-.15-.15-.3-.3-.45-.45-.15-.15-.3-.3-.45-.45ZM188.93,42.18c.08.15.15.3.23.45.08.15.15.3.23.45-.07-.15-.15-.3-.23-.45-.07-.15-.15-.3-.23-.45ZM253.33,46.71c.15.08.3.15.45.23.15.08.3.15.45.23-.15-.08-.3-.15-.45-.23-.15-.08-.3-.15-.45-.23ZM318.64,47.17c.08.15.15.3.23.45.08.15.15.3.23.45-.08-.15-.15-.3-.23-.45-.08-.15-.15-.3-.23-.45ZM547.22,47.17c.08.15.15.3.23.45.08.15.15.3.23.45-.08-.15-.15-.3-.23-.45-.08-.15-.15-.3-.23-.45ZM97.76,50.8c.15.15.3.3.45.45.15.15.3.3.45.45-.15-.15-.3-.3-.45-.45-.15-.15-.3-.3-.45-.45ZM571.71,52.16c.08.23.15.45.23.68.08.23.15.45.23.68-.08-.23-.15-.45-.23-.68-.08-.23-.15-.45-.23-.68ZM93.68,53.52c.15.15.3.3.45.45.15.15.3.3.45.45-.15-.15-.3-.3-.45-.45-.15-.15-.3-.3-.45-.45ZM553.57,55.79c.08.15.15.3.23.45.08.15.15.3.23.45-.08-.15-.15-.3-.23-.45-.08-.15-.15-.3-.23-.45ZM172.6,58.51c.08.15.15.3.23.45.07.15.15.3.23.45-.08-.15-.15-.3-.23-.45-.08-.15-.15-.3-.23-.45ZM524.55,58.96c.15.07.3.15.45.23.15.08.3.15.45.23-.15-.07-.3-.15-.45-.23-.15-.08-.3-.15-.45-.23ZM495.07,68.48c.08.15.15.3.23.45.08.15.15.3.23.45-.07-.15-.15-.3-.23-.45-.08-.15-.15-.3-.23-.45ZM85.52,69.85c.15.15.3.3.45.45.15.15.3.3.45.45-.15-.15-.3-.3-.45-.45-.15-.15-.3-.3-.45-.45ZM261.49,69.85h.91v1.36c-.15-.23-.3-.45-.45-.68-.15-.23-.3-.45-.45-.68ZM437.92,69.85c.08.15.15.3.23.45.08.15.15.3.23.45-.08-.15-.15-.3-.23-.45-.07-.15-.15-.3-.23-.45ZM613.89,69.85c.08.15.15.3.23.45.08.15.15.3.23.45-.08-.15-.15-.3-.23-.45-.08-.15-.15-.3-.23-.45ZM389.84,73.02c.08.23.15.45.23.68.08.23.15.45.23.68h-1.36c.15-.23.3-.45.45-.68.15-.23.3-.45.45-.68ZM494.16,73.47c.15.15.3.3.45.45.15.15.3.3.45.45-.15-.15-.3-.3-.45-.45-.15-.15-.3-.3-.45-.45ZM6.15,83.45c.15.15.3.3.45.45.15.15.3.3.45.45-.15-.15-.3-.3-.45-.45-.15-.15-.3-.3-.45-.45ZM79.17,83.45h.91v2.27c-.15-.38-.3-.76-.45-1.13-.15-.38-.3-.76-.45-1.13ZM255.14,83.45h.91v1.81c-.15-.3-.3-.6-.45-.91-.15-.3-.3-.6-.45-.91ZM431.12,83.45c.15.08.3.15.45.23.15.08.3.15.45.23-.15-.08-.3-.15-.45-.23-.15-.07-.3-.15-.45-.23ZM607.54,83.45c.08.3.15.61.23.91.08.3.15.6.23.91-.08-.3-.15-.6-.23-.91-.08-.3-.15-.6-.23-.91ZM431.12,84.36c.15.15.3.3.45.45.15.15.3.3.45.45-.15-.15-.3-.3-.45-.45-.15-.15-.3-.3-.45-.45ZM201.62,87.53c.15.07.3.15.45.23.15.08.3.15.45.23-.15-.08-.3-.15-.45-.23-.15-.08-.3-.15-.45-.23ZM565.36,87.53c.07.23.15.45.23.68.07.23.15.45.23.68-.15-.08-.3-.15-.45-.23-.15-.07-.3-.15-.45-.23.08-.15.15-.3.23-.45.08-.15.15-.3.23-.45ZM336.78,87.99c.15.08.3.15.45.23.15.08.3.15.45.23-.15-.08-.3-.15-.45-.23-.15-.07-.3-.15-.45-.23ZM621.15,91.16c.15.08.3.15.45.23.15.08.3.15.45.23-.15-.08-.3-.15-.45-.23-.15-.08-.3-.15-.45-.23ZM7.74,101.14c.08.15.15.3.23.45.08-.15.15-.3.23-.45.08-.15.15-.3.23-.45h-.91c.08.15.15.3.23.45ZM609.81,100.69c.15.07.3.15.45.23.15.07.3.15.45.23-.15-.08-.3-.15-.45-.23-.15-.08-.3-.15-.45-.23ZM8.64,102.05c.07.15.15.3.23.45.07-.15.15-.3.23-.45.07-.15.15-.3.23-.45h-.91c.08.15.15.3.23.45ZM232.01,107.04c.23.15.45.3.68.45.23.15.45.3.68.45-.23-.15-.45-.3-.68-.45-.23-.15-.45-.3-.68-.45ZM584.41,107.04c.15.15.3.3.45.45.15.15.3.3.45.45-.15-.15-.3-.3-.45-.45-.15-.15-.3-.3-.45-.45ZM232.92,108.4h.91c-.07.23-.15.45-.23.68-.08.23-.15.45-.23.68-.08-.23-.15-.45-.23-.68-.08-.23-.15-.45-.23-.68ZM585.32,108.4c.08.23.15.45.23.68.08.23.15.45.23.68-.15-.08-.3-.15-.45-.23-.15-.08-.3-.15-.45-.23.08-.15.15-.3.23-.45.08-.15.15-.3.23-.45ZM217.5,110.21c.15.15.3.3.45.45.15.15.3.3.45.45-.15-.15-.3-.3-.45-.45-.15-.15-.3-.3-.45-.45ZM569.45,110.21c.15.15.3.3.45.45.15.15.3.3.45.45-.15-.15-.3-.3-.45-.45-.15-.15-.3-.3-.45-.45ZM236.55,110.66c-.08.15-.15.3-.23.45-.08.15-.15.3-.23.45.08-.15.15-.3.23-.45.08-.15.15-.3.23-.45ZM576.7,111.12c.15.08.3.15.45.23.15.08.3.15.45.23-.15-.08-.3-.15-.45-.23-.15-.08-.3-.15-.45-.23ZM257.41,113.39c.23.08.45.15.68.23.23.08.45.15.68.23-.08.23-.15.45-.23.68-.15.45-.38.68-.68.68h-.45v-1.81ZM280.09,117.92c.15.08.3.15.45.23.15.07.3.15.45.23-.15-.08-.3-.15-.45-.23-.15-.08-.3-.15-.45-.23ZM282.81,119.28h.91c-.08.15-.15.3-.23.45-.08.15-.15.3-.23.45-.08-.15-.15-.3-.23-.45-.08-.15-.15-.3-.23-.45ZM175.77,125.18c.08.15.15.3.23.45.08.15.15.3.23.45-.07-.15-.15-.3-.23-.45-.07-.15-.15-.3-.23-.45ZM276.46,125.18c.15.07.3.15.45.23.15.07.3.15.45.23-.08.15-.15.3-.23.45-.08.15-.15.3-.23.45-.08-.23-.15-.45-.23-.68-.08-.23-.15-.45-.23-.68ZM519.1,126.08c.15.15.3.3.45.45.15.15.3.3.45.45h-1.36c.07-.15.15-.3.23-.45.07-.15.15-.3.23-.45ZM516.38,128.35c.15.15.3.3.45.45.15.15.3.3.45.45-.3.07-.6.15-.91.23-.3.07-.6.15-.91.23.15-.23.3-.45.45-.68.15-.23.3-.45.45-.68ZM211.15,139.24c.15.08.3.15.45.23.15.08.3.15.45.23-.15-.07-.3-.15-.45-.23-.15-.08-.3-.15-.45-.23ZM175.32,139.92c.15.08.3.15.45.23-.15-.08-.3-.15-.45-.23-.15-.08-.3-.15-.45-.23.15.08.3.15.45.23ZM499.83,142.87c.08.15.15.3.23.45-.08-.15-.15-.3-.23-.45-.08-.15-.15-.3-.23-.45.08.15.15.3.23.45ZM533.16,142.41c.15.15.3.3.45.45.15.15.3.3.45.45-.15-.15-.3-.3-.45-.45-.15-.15-.3-.3-.45-.45ZM549.04,146.49c.23.08.45.15.68.23.23.08.45.15.68.23-.08.15-.15.3-.23.45-.08.15-.15.3-.23.45-.15-.23-.3-.45-.45-.68-.15-.23-.3-.45-.45-.68ZM491.44,147.85h.45v.68c0,.45-.23.76-.68.91-.23.07-.45.15-.68.23.07-.3.15-.6.23-.91.15-.6.38-.91.68-.91ZM484.18,161.91c.3.08.6.15.91.23.3.08.6.15.91.23-.23.08-.45.15-.68.23-.45.15-.76.08-.91-.23-.07-.15-.15-.3-.23-.45ZM482.37,166.9h.91c-.08.23-.15.45-.23.68-.08.23-.15.45-.23.68-.08-.23-.15-.45-.23-.68-.08-.23-.15-.45-.23-.68ZM516.38,174.39c-.3.23-.6.45-.91.68.45-.08.91-.15,1.36-.23.91-.15,1.44-.38,1.59-.68.08-.15.15-.3.23-.45h-.68c-.45,0-.98.23-1.59.68ZM487.58,178.47c.08.23.15.45.23.68-.08-.23-.15-.45-.23-.68-.08-.23-.15-.45-.23-.68.08.23.15.45.23.68Z"/>
  </g>
</svg>