<?xml version="1.0" encoding="UTF-8"?>
<svg id="Camada_2" data-name="Camada 2" xmlns="http://www.w3.org/2000/svg" viewBox="0 0 721.78 266.9">
  <defs>
    <style>
      .cls-1 {
        fill: #00ff2f;
        opacity: .68;
      }
    </style>
  </defs>
  <g id="_1" data-name="1">
    <path class="cls-1" d="M330.98,266.78c-.91-.15-1.6-.53-2.05-1.14-.45-.61-.68-2.12-.68-4.55s-.23-4.78-.68-7.05c-.46-2.27-1.75-4.62-3.87-7.05-2.12-2.43-3.72-4.93-4.77-7.51-1.07-2.58-2.81-5.38-5.24-8.42-2.42-3.03-3.18-5.08-2.27-6.14.92-1.06,1.44-1.97,1.6-2.73.15-.76,1.37-1.9,3.64-3.41,2.27-1.52,3.33-2.65,3.18-3.41-.15-.76.75-1.74,2.73-2.96,1.97-1.21,4.17-2.05,6.6-2.5,2.42-.45,4.02-1.06,4.78-1.82.75-.76,1.58-.99,2.5-.68.91.3,1.66.15,2.27-.45.6-.61,1.13-.91,1.58-.91s.84.38,1.14,1.14c.3.76,1.67.91,4.1.45,2.42-.45,4.02-.53,4.77-.23.75.3,2.73.46,5.92.46s9.47-.3,18.87-.91c9.41-.61,28.51-2.12,57.31-4.55,28.82-2.43,48.91-4.25,60.28-5.46,5.69-.61,11.37-1.21,17.06-1.82-.15-.15-.3-.3-.46-.45-.3-.3-44.57-2.27-132.82-5.91-88.24-3.64-152.62-6.67-193.09-9.1-40.49-2.43-74.83-4.78-103.03-7.05-28.2-2.28-48.07-3.71-59.59-4.32-11.53-.61-17.81-1.14-18.88-1.59-1.06-.45-1.67-1.36-1.82-2.73-.15-1.36,0-2.65.45-3.87.46-1.21.69-5.08.69-11.6s.08-10.99.23-13.42c.15-2.43.53-4.62,1.13-6.6.61-1.97.99-5.16,1.14-9.55.15-4.4.53-6.75,1.13-7.05.61-.3,4.78-.38,12.51-.23,7.74.15,26.01,1.36,54.81,3.64,28.81,2.28,67.4,4.85,115.77,7.73,48.37,2.88,118.57,6.22,210.61,10.01,46.02,1.9,92.04,3.79,138.06,5.69-.08-.23-.15-.45-.23-.68-.15-.45-2.12-1.9-5.92-4.32-3.79-2.43-20.99-13.04-51.62-31.84-30.63-18.8-53.45-33.21-68.47-43.21-15-10.01-22.21-15.69-21.6-17.06.6-1.36,1.36-2.35,2.27-2.96.91-.61,1.96-2.27,3.18-5,1.22-2.73,2.27-4.32,3.18-4.78.92-.45,1.9-1.52,2.96-3.18,1.06-1.67,1.75-3.18,2.05-4.55.3-1.36.75-2.2,1.36-2.5.61-.3,1.29-1.37,2.05-3.18.77-1.82,1.52-2.88,2.27-3.18.77-.3,1.37-.99,1.82-2.05.45-1.06,1.59-2.27,3.42-3.64,1.82-1.37,2.88-2.65,3.18-3.87.3-1.21.77-2.05,1.37-2.5.6-.45,2.42-.23,5.45.68,3.04.91,11.68,6.06,25.93,15.47,14.26,9.4,34.05,21.83,59.36,37.3,25.33,15.47,55.34,34.19,90.06,56.18,34.72,21.99,59.13,37.22,73.24,45.71,14.1,8.49,22.59,13.34,25.47,14.56,2.89,1.21,4.55,2.12,5.01,2.73.45.61,1.74,1.29,3.86,2.05,2.12.76,3.34,1.36,3.64,1.82.3.46,1.52.91,3.64,1.37,2.12.45,4.08,1.59,5.91,3.41,1.82,1.82,2.58,3.34,2.27,4.55-.3,1.21-.98,2.35-2.05,3.41-1.06,1.06-2.73,4.09-5,9.1s-3.33,8.04-3.18,9.1c.15,1.06,0,2.35-.46,3.87-.45,1.52-.38,2.88.24,4.09.6,1.21.91,2.35.91,3.41s-.98,1.97-2.95,2.73c-1.97.76-2.96,1.29-2.96,1.59s-.75.83-2.27,1.59c-1.51.76-4.1,1.29-7.73,1.59-3.64.3-5.99.68-7.05,1.14-1.07.45-2.28.61-3.64.45-1.37-.15-16.98,2.12-46.85,6.82-29.87,4.7-58.38,8.72-85.52,12.05-27.15,3.34-50.8,5.99-70.97,7.96-20.16,1.97-42,3.87-65.5,5.69-23.49,1.82-40.4,2.96-50.72,3.41-10.31.45-15.69.91-16.14,1.36-.45.45-1.07.61-1.82.45-.75-.15-1.29-.08-1.59.23-.3.3-2.73.53-7.27.68-4.55.15-7.27.15-8.19,0Z"/>
  </g>
</svg>